<svg width="403" height="152" viewBox="0 0 403 152" fill="none" xmlns="http://www.w3.org/2000/svg">
<g filter="url(#filter0_b_205_49716)">
<g clip-path="url(#clip0_205_49716)">
<rect y="49" width="403" height="103" rx="4" fill="url(#paint0_linear_205_49716)"/>
<g filter="url(#filter1_f_205_49716)">
<circle cx="202" cy="30" r="70" fill="#955CEF"/>
</g>
<path d="M131.696 125L140.048 104.7H142.368L150.662 125H147.066L140.57 108.557H141.788L135.234 125H131.696ZM135.814 121.085V118.185H146.573V121.085H135.814ZM156.351 125L149.681 104.7H152.958L157.975 120.331H157.105L162.006 104.7H164.326L169.227 120.331H168.357L173.374 104.7H176.651L169.981 125H167.661L162.731 109.398H163.601L158.671 125H156.351ZM184.341 125.29C182.737 125.29 181.374 125 180.252 124.42C179.131 123.84 178.126 122.989 177.236 121.868L179.498 119.606C180.059 120.418 180.726 121.056 181.499 121.52C182.273 121.965 183.259 122.187 184.457 122.187C185.579 122.187 186.468 121.955 187.125 121.491C187.802 121.027 188.14 120.389 188.14 119.577C188.14 118.9 187.966 118.349 187.618 117.924C187.27 117.499 186.806 117.151 186.226 116.88C185.666 116.59 185.037 116.339 184.341 116.126C183.665 115.894 182.978 115.643 182.282 115.372C181.606 115.082 180.977 114.724 180.397 114.299C179.837 113.874 179.382 113.323 179.034 112.646C178.686 111.969 178.512 111.109 178.512 110.065C178.512 108.866 178.802 107.851 179.382 107.02C179.982 106.169 180.784 105.522 181.789 105.077C182.795 104.632 183.916 104.41 185.153 104.41C186.487 104.41 187.676 104.671 188.72 105.193C189.784 105.715 190.644 106.382 191.301 107.194L189.039 109.456C188.459 108.799 187.85 108.315 187.212 108.006C186.594 107.677 185.878 107.513 185.066 107.513C184.061 107.513 183.268 107.716 182.688 108.122C182.128 108.528 181.847 109.098 181.847 109.833C181.847 110.452 182.021 110.954 182.369 111.341C182.717 111.708 183.172 112.027 183.732 112.298C184.312 112.549 184.941 112.791 185.617 113.023C186.313 113.255 187 113.516 187.676 113.806C188.372 114.096 189.001 114.473 189.561 114.937C190.141 115.382 190.605 115.962 190.953 116.677C191.301 117.392 191.475 118.291 191.475 119.374C191.475 121.191 190.828 122.632 189.532 123.695C188.256 124.758 186.526 125.29 184.341 125.29ZM206.58 125.29C205.208 125.29 203.961 124.971 202.839 124.333C201.737 123.695 200.867 122.825 200.229 121.723C199.591 120.621 199.272 119.393 199.272 118.04C199.272 116.667 199.591 115.44 200.229 114.357C200.867 113.255 201.737 112.385 202.839 111.747C203.961 111.109 205.208 110.79 206.58 110.79C207.663 110.79 208.668 111.003 209.596 111.428C210.544 111.834 211.346 112.424 212.003 113.197L209.915 115.314C209.509 114.831 209.016 114.473 208.436 114.241C207.876 113.99 207.257 113.864 206.58 113.864C205.788 113.864 205.082 114.048 204.463 114.415C203.864 114.763 203.39 115.246 203.042 115.865C202.714 116.484 202.549 117.209 202.549 118.04C202.549 118.852 202.714 119.577 203.042 120.215C203.39 120.834 203.864 121.327 204.463 121.694C205.082 122.042 205.788 122.216 206.58 122.216C207.257 122.216 207.876 122.1 208.436 121.868C209.016 121.617 209.509 121.249 209.915 120.766L212.003 122.883C211.346 123.656 210.544 124.256 209.596 124.681C208.668 125.087 207.663 125.29 206.58 125.29ZM214.303 125V104.12H217.493V125H214.303ZM227.423 125.29C226.07 125.29 224.842 124.971 223.74 124.333C222.638 123.676 221.759 122.796 221.101 121.694C220.463 120.592 220.144 119.364 220.144 118.011C220.144 116.658 220.463 115.44 221.101 114.357C221.759 113.274 222.638 112.414 223.74 111.776C224.842 111.119 226.07 110.79 227.423 110.79C228.796 110.79 230.033 111.109 231.135 111.747C232.237 112.385 233.107 113.255 233.745 114.357C234.403 115.44 234.731 116.658 234.731 118.011C234.731 119.364 234.403 120.592 233.745 121.694C233.107 122.796 232.237 123.676 231.135 124.333C230.033 124.971 228.796 125.29 227.423 125.29ZM227.423 122.216C228.216 122.216 228.912 122.042 229.511 121.694C230.13 121.327 230.604 120.824 230.932 120.186C231.28 119.548 231.454 118.823 231.454 118.011C231.454 117.199 231.28 116.484 230.932 115.865C230.584 115.246 230.111 114.763 229.511 114.415C228.912 114.048 228.216 113.864 227.423 113.864C226.65 113.864 225.954 114.048 225.335 114.415C224.736 114.763 224.262 115.246 223.914 115.865C223.586 116.484 223.421 117.199 223.421 118.011C223.421 118.823 223.586 119.548 223.914 120.186C224.262 120.824 224.736 121.327 225.335 121.694C225.954 122.042 226.65 122.216 227.423 122.216ZM243.097 125.29C241.918 125.29 240.864 125.029 239.936 124.507C239.028 123.985 238.312 123.27 237.79 122.361C237.288 121.433 237.036 120.37 237.036 119.171V111.08H240.226V119.026C240.226 119.703 240.333 120.283 240.545 120.766C240.777 121.23 241.106 121.588 241.531 121.839C241.976 122.09 242.498 122.216 243.097 122.216C244.025 122.216 244.731 121.945 245.214 121.404C245.717 120.843 245.968 120.051 245.968 119.026V111.08H249.158V119.171C249.158 120.389 248.897 121.462 248.375 122.39C247.873 123.299 247.167 124.014 246.258 124.536C245.35 125.039 244.296 125.29 243.097 125.29ZM258.195 125.29C256.938 125.29 255.797 124.971 254.773 124.333C253.767 123.695 252.965 122.835 252.366 121.752C251.786 120.65 251.496 119.422 251.496 118.069C251.496 116.696 251.786 115.469 252.366 114.386C252.965 113.284 253.767 112.414 254.773 111.776C255.797 111.119 256.938 110.79 258.195 110.79C259.258 110.79 260.196 111.022 261.008 111.486C261.839 111.931 262.496 112.549 262.98 113.342C263.463 114.135 263.705 115.034 263.705 116.039V120.041C263.705 121.046 263.463 121.945 262.98 122.738C262.516 123.531 261.868 124.159 261.037 124.623C260.205 125.068 259.258 125.29 258.195 125.29ZM258.717 122.274C259.509 122.274 260.196 122.1 260.776 121.752C261.375 121.385 261.839 120.882 262.168 120.244C262.496 119.606 262.661 118.871 262.661 118.04C262.661 117.209 262.496 116.474 262.168 115.836C261.839 115.198 261.375 114.705 260.776 114.357C260.196 113.99 259.509 113.806 258.717 113.806C257.943 113.806 257.257 113.99 256.658 114.357C256.078 114.705 255.614 115.198 255.266 115.836C254.937 116.474 254.773 117.209 254.773 118.04C254.773 118.871 254.937 119.606 255.266 120.244C255.614 120.882 256.078 121.385 256.658 121.752C257.257 122.1 257.943 122.274 258.717 122.274ZM265.648 125H262.458V121.259L263.009 117.866L262.458 114.502V104.12H265.648V125Z" fill="white"/>
</g>
</g>
<g clip-path="url(#clip1_205_49716)">
<g filter="url(#filter2_d_205_49716)">
<path d="M202 92.875C228.924 92.875 250.75 72.3081 250.75 46.9375C250.75 21.5669 228.924 1 202 1C175.076 1 153.25 21.5669 153.25 46.9375C153.25 72.3081 175.076 92.875 202 92.875Z" fill="black"/>
</g>
<path d="M202 92.875C228.924 92.875 250.75 72.3081 250.75 46.9375C250.75 21.5669 228.924 1 202 1C175.076 1 153.25 21.5669 153.25 46.9375C153.25 72.3081 175.076 92.875 202 92.875Z" fill="#201734"/>
<path style="mix-blend-mode:soft-light" d="M202 92.875C228.924 92.875 250.75 72.3081 250.75 46.9375C250.75 21.5669 228.924 1 202 1C175.076 1 153.25 21.5669 153.25 46.9375C153.25 72.3081 175.076 92.875 202 92.875Z" fill="url(#paint1_linear_205_49716)"/>
<path d="M202 91.3438C228.026 91.3438 249.125 71.4624 249.125 46.9375C249.125 22.4126 228.026 2.53125 202 2.53125C175.974 2.53125 154.875 22.4126 154.875 46.9375C154.875 71.4624 175.974 91.3438 202 91.3438Z" stroke="white" stroke-opacity="0.097"/>
</g>
<g clip-path="url(#clip2_205_49716)">
<path d="M185.491 43.3052C185.491 44.2278 185.592 44.9758 185.768 45.5243C185.992 46.1414 186.261 46.7414 186.573 47.3193C186.699 47.5187 186.75 47.7181 186.75 47.8928C186.75 48.142 186.599 48.3914 186.272 48.6408L184.686 49.6878C184.46 49.8376 184.233 49.9123 184.032 49.9123C183.78 49.9123 183.528 49.7875 183.277 49.5631C182.938 49.2021 182.634 48.8097 182.371 48.3914C182.119 47.9678 181.867 47.4937 181.591 46.9205C179.628 49.214 177.161 50.3611 174.192 50.3611C172.078 50.3611 170.392 49.7625 169.159 48.5661C167.926 47.369 167.297 45.7734 167.297 43.779C167.297 41.6599 168.052 39.9396 169.587 38.6431C171.122 37.3467 173.16 36.6984 175.752 36.6984C176.608 36.6984 177.489 36.7731 178.42 36.8978C179.351 37.0226 180.307 37.222 181.314 37.4464V35.6264C181.314 33.7314 180.911 32.4102 180.131 31.6373C179.326 30.8643 177.967 30.4902 176.029 30.4902C175.148 30.4902 174.242 30.5902 173.311 30.8146C172.38 31.0387 171.474 31.3131 170.593 31.6623C170.191 31.8367 169.889 31.9364 169.712 31.9864C169.536 32.0364 169.411 32.0611 169.31 32.0611C168.958 32.0611 168.781 31.8117 168.781 31.2881V30.0664C168.781 29.6675 168.832 29.3684 168.958 29.194C169.083 29.0193 169.31 28.8449 169.662 28.6705C170.543 28.2217 171.6 27.8475 172.833 27.5484C174.066 27.2243 175.375 27.0749 176.759 27.0749C179.754 27.0749 181.943 27.7478 183.353 29.0943C184.737 30.4405 185.442 32.4849 185.442 35.2276V43.3052H185.491ZM175.274 47.0949C176.105 47.0949 176.96 46.9455 177.866 46.6461C178.772 46.347 179.578 45.7984 180.257 45.0505C180.66 44.577 180.962 44.0534 181.112 43.4549C181.264 42.8567 181.364 42.1334 181.364 41.2858V40.2387C180.601 40.0547 179.828 39.9132 179.049 39.8149C178.264 39.7162 177.474 39.6662 176.683 39.6652C174.997 39.6652 173.764 39.9893 172.934 40.6625C172.103 41.3358 171.701 42.2831 171.701 43.5296C171.701 44.7014 172.003 45.574 172.632 46.1725C173.236 46.7958 174.117 47.0949 175.274 47.0949ZM195.482 49.7875C195.029 49.7875 194.727 49.7128 194.526 49.5381C194.325 49.3887 194.148 49.0396 193.997 48.5661L188.084 29.2937C187.932 28.7949 187.857 28.4708 187.857 28.2964C187.857 27.8975 188.058 27.6728 188.461 27.6728H190.927C191.405 27.6728 191.733 27.7478 191.909 27.9223C192.11 28.072 192.261 28.4211 192.412 28.8946L196.64 45.3996L200.566 28.8946C200.691 28.3961 200.842 28.072 201.043 27.9223C201.245 27.7728 201.597 27.6731 202.05 27.6731H204.064C204.542 27.6731 204.869 27.7478 205.07 27.9223C205.272 28.072 205.448 28.4211 205.548 28.8946L209.525 45.599L213.878 28.8946C214.029 28.3961 214.205 28.072 214.381 27.9223C214.582 27.7728 214.91 27.6731 215.363 27.6731H217.703C218.106 27.6731 218.332 27.8725 218.332 28.2964C218.332 28.4211 218.307 28.5458 218.282 28.6952C218.257 28.8449 218.206 29.0443 218.106 29.3187L212.041 48.5908C211.89 49.0896 211.714 49.4137 211.512 49.5631C211.311 49.7128 210.984 49.8126 210.556 49.8126H208.392C207.914 49.8126 207.587 49.7378 207.385 49.5631C207.184 49.3887 207.008 49.0646 206.907 48.5661L203.006 32.4849L199.131 48.5408C199.005 49.0396 198.854 49.3637 198.653 49.5381C198.451 49.7128 198.099 49.7875 197.646 49.7875H195.482ZM227.82 50.4608C226.511 50.4608 225.203 50.3111 223.944 50.012C222.686 49.7128 221.705 49.3884 221.05 49.0149C220.648 48.7902 220.371 48.5411 220.27 48.3167C220.172 48.0966 220.121 47.859 220.119 47.6184V46.347C220.119 45.8234 220.32 45.574 220.698 45.574C220.852 45.5746 221.005 45.5999 221.151 45.649C221.302 45.699 221.528 45.7984 221.78 45.8981C222.669 46.2855 223.597 46.578 224.548 46.7708C225.534 46.969 226.537 47.0692 227.543 47.0699C229.128 47.0699 230.362 46.7958 231.217 46.2473C232.073 45.6987 232.526 44.9011 232.526 43.8787C232.526 43.1808 232.299 42.6073 231.846 42.1334C231.393 41.6599 230.538 41.2361 229.305 40.837L225.656 39.7152C223.819 39.1417 222.46 38.294 221.629 37.172C220.799 36.0749 220.371 34.8534 220.371 33.557C220.371 32.5099 220.597 31.5873 221.05 30.7893C221.503 29.9917 222.107 29.2937 222.862 28.7452C223.617 28.1717 224.473 27.7478 225.48 27.4487C226.486 27.1496 227.543 27.0249 228.65 27.0249C229.204 27.0249 229.783 27.0499 230.336 27.1246C230.915 27.1993 231.444 27.299 231.972 27.3987C232.475 27.5234 232.954 27.6481 233.407 27.7978C233.86 27.9473 234.212 28.097 234.464 28.2464C234.816 28.4461 235.067 28.6455 235.219 28.8699C235.37 29.0693 235.445 29.3434 235.445 29.6925V30.8643C235.445 31.3878 235.244 31.6623 234.866 31.6623C234.665 31.6623 234.338 31.5623 233.91 31.3628C232.475 30.7146 230.865 30.3905 229.078 30.3905C227.644 30.3905 226.511 30.6149 225.731 31.0887C224.951 31.5623 224.548 32.2855 224.548 33.3075C224.548 34.0058 224.8 34.604 225.303 35.0778C225.807 35.5514 226.738 36.0252 228.072 36.449L231.645 37.5711C233.457 38.1446 234.766 38.9423 235.546 39.9643C236.326 40.9867 236.704 42.1584 236.704 43.4549C236.704 44.527 236.477 45.4993 236.049 46.347C235.596 47.1946 234.992 47.9425 234.212 48.5411C233.432 49.1643 232.501 49.6131 231.419 49.9373C230.286 50.2864 229.103 50.4608 227.82 50.4608Z" fill="white"/>
<path d="M232.576 62.5778C224.297 68.6363 212.267 71.8525 201.925 71.8525C187.429 71.8525 174.368 66.5419 164.503 57.716C163.723 57.0181 164.428 56.0707 165.359 56.6189C176.029 62.7525 189.191 66.4672 202.805 66.4672C211.991 66.4672 222.082 64.5725 231.368 60.6831C232.752 60.0595 233.935 61.5807 232.576 62.5778ZM236.024 58.6884C234.967 57.3422 229.028 58.0401 226.335 58.3642C225.53 58.4642 225.404 57.766 226.134 57.2425C230.865 53.9513 238.641 54.8989 239.547 55.9957C240.453 57.1178 239.295 64.8216 234.866 68.5116C234.187 69.0851 233.533 68.786 233.834 68.0381C234.841 65.5695 237.081 60.0098 236.024 58.6884Z" fill="#FF9900"/>
</g>
<defs>
<filter id="filter0_b_205_49716" x="-200" y="-151" width="803" height="503" filterUnits="userSpaceOnUse" color-interpolation-filters="sRGB">
<feFlood flood-opacity="0" result="BackgroundImageFix"/>
<feGaussianBlur in="BackgroundImageFix" stdDeviation="100"/>
<feComposite in2="SourceAlpha" operator="in" result="effect1_backgroundBlur_205_49716"/>
<feBlend mode="normal" in="SourceGraphic" in2="effect1_backgroundBlur_205_49716" result="shape"/>
</filter>
<filter id="filter1_f_205_49716" x="2" y="-170" width="400" height="400" filterUnits="userSpaceOnUse" color-interpolation-filters="sRGB">
<feFlood flood-opacity="0" result="BackgroundImageFix"/>
<feBlend mode="normal" in="SourceGraphic" in2="BackgroundImageFix" result="shape"/>
<feGaussianBlur stdDeviation="65" result="effect1_foregroundBlur_205_49716"/>
</filter>
<filter id="filter2_d_205_49716" x="152.25" y="0.5" width="99.5" height="93.875" filterUnits="userSpaceOnUse" color-interpolation-filters="sRGB">
<feFlood flood-opacity="0" result="BackgroundImageFix"/>
<feColorMatrix in="SourceAlpha" type="matrix" values="0 0 0 0 0 0 0 0 0 0 0 0 0 0 0 0 0 0 127 0" result="hardAlpha"/>
<feOffset dy="0.5"/>
<feGaussianBlur stdDeviation="0.5"/>
<feComposite in2="hardAlpha" operator="out"/>
<feColorMatrix type="matrix" values="0 0 0 0 0 0 0 0 0 0 0 0 0 0 0 0 0 0 0.199474 0"/>
<feBlend mode="normal" in2="BackgroundImageFix" result="effect1_dropShadow_205_49716"/>
<feBlend mode="normal" in="SourceGraphic" in2="effect1_dropShadow_205_49716" result="shape"/>
</filter>
<linearGradient id="paint0_linear_205_49716" x1="232.237" y1="20.1476" x2="227.681" y2="177.406" gradientUnits="userSpaceOnUse">
<stop stop-color="#FFFDFD" stop-opacity="0.4"/>
<stop offset="0.0001" stop-color="#FFFDFD" stop-opacity="0.2"/>
<stop offset="1" stop-color="white" stop-opacity="0"/>
</linearGradient>
<linearGradient id="paint1_linear_205_49716" x1="5028.25" y1="1" x2="5028.25" y2="9188.5" gradientUnits="userSpaceOnUse">
<stop stop-color="white" stop-opacity="0.5"/>
<stop offset="1" stop-opacity="0.5"/>
</linearGradient>
<clipPath id="clip0_205_49716">
<rect y="49" width="403" height="103" rx="4" fill="white"/>
</clipPath>
<clipPath id="clip1_205_49716">
<rect width="104" height="98" fill="white" transform="translate(150 1)"/>
</clipPath>
<clipPath id="clip2_205_49716">
<rect width="76" height="45" fill="white" transform="translate(164 27)"/>
</clipPath>
</defs>
</svg>
