<svg width="222" height="80" viewBox="0 0 222 80" fill="none" xmlns="http://www.w3.org/2000/svg">
<path d="M79.9996 39.8234C80.0345 47.7343 77.7229 55.478 73.3569 62.0752C68.991 68.6724 62.7668 73.8269 55.4715 76.8867C48.1762 79.9466 40.1374 80.7746 32.3715 79.2658C24.6057 77.7571 17.4616 73.9795 11.8427 68.4106C6.22373 62.8418 2.38228 55.7318 0.804065 47.9798C-0.77415 40.2278 -0.0182465 32.1819 2.97619 24.8594C5.97063 17.537 11.0691 11.2669 17.6269 6.84209C24.1848 2.41723 31.9074 0.0363129 39.8184 0.000393979C50.4275 -0.0466577 60.6208 4.12242 68.1561 11.5906C75.6915 19.0588 79.9517 29.2143 79.9996 39.8234Z" fill="#B1B1C6"/>
<path d="M76.9863 39.8317C77.0196 47.1469 74.8829 54.3076 70.8465 60.4084C66.8101 66.5093 61.0552 71.2762 54.3096 74.1063C47.5641 76.9365 40.1307 77.7028 32.9496 76.3083C25.7686 74.9139 19.1622 71.4214 13.966 66.2723C8.76988 61.1233 5.21725 54.5491 3.75741 47.381C2.29758 40.2129 2.9961 32.7729 5.76465 26.0018C8.5332 19.2307 13.2474 13.4327 19.3112 9.34081C25.375 5.24896 32.5159 3.04711 39.8311 3.01369C44.6883 2.9915 49.5022 3.92623 53.9982 5.76451C58.4941 7.60279 62.5839 10.3086 66.0341 13.7275C69.4843 17.1464 72.2273 21.2114 74.1064 25.6903C75.9856 30.1693 76.9642 34.9746 76.9863 39.8317Z" fill="#D9DEEE"/>
<path d="M40.6741 5.41185C43.0255 4.99211 45.4326 4.99211 47.784 5.41185C50.1579 5.78802 52.4525 6.55717 54.5736 7.68769C56.6808 8.84668 58.5057 10.4187 60.3179 11.9022C62.1302 13.3857 63.9382 14.8861 65.6577 16.5382C67.4111 18.1625 68.9416 20.0119 70.2094 22.0381C71.5166 24.0506 72.5872 26.2073 73.3998 28.4653C74.981 32.9753 75.431 37.8045 74.7105 42.5291H74.4745C73.7804 38.0155 72.6194 33.5862 71.0102 29.3124C70.239 27.1989 69.3309 25.1378 68.2918 23.1423C67.1997 21.1526 65.9982 19.225 64.6926 17.3684C63.3608 15.4893 61.7291 13.8419 59.8628 12.4922C57.9873 11.1562 55.8295 10.288 53.7391 9.46622C51.6487 8.64438 49.5583 7.82677 47.3878 7.19881C45.2173 6.57084 42.9963 6.10303 40.6825 5.64786L40.6741 5.41185Z" fill="white"/>
<path d="M58.7543 26.7669C56.0696 25.9872 53.2754 24.8872 50.4686 23.7746C50.3084 23.0666 49.6804 22.1857 48.4161 21.111C46.5743 19.5137 43.1184 19.5559 40.1303 20.2681C36.8346 19.4927 33.5768 19.2187 30.4369 19.9689C4.87589 27.0071 19.3738 44.215 9.98389 61.4945C11.3199 64.3267 25.7209 80.8813 46.5575 76.4266C46.5575 76.4266 39.4349 59.303 55.5133 51.0847C68.5573 44.3962 77.9851 32.014 58.7543 26.7669Z" fill="#A9ADBF"/>
<path d="M61.9109 38.0237C61.9134 38.3308 61.8247 38.6317 61.656 38.8883C61.4873 39.1449 61.2462 39.3457 60.9633 39.4651C60.6804 39.5846 60.3683 39.6173 60.0668 39.5593C59.7652 39.5012 59.4877 39.3549 59.2693 39.139C59.051 38.923 58.9017 38.6471 58.8403 38.3461C58.779 38.0452 58.8084 37.7329 58.9247 37.4487C59.0411 37.1645 59.2392 36.9212 59.494 36.7497C59.7487 36.5782 60.0487 36.4862 60.3558 36.4854C60.5589 36.4843 60.7602 36.5232 60.9483 36.5999C61.1364 36.6766 61.3075 36.7896 61.4519 36.9324C61.5963 37.0753 61.7112 37.2452 61.79 37.4324C61.8687 37.6196 61.9098 37.8206 61.9109 38.0237Z" fill="white"/>
<path d="M40.1304 20.2595C41.9932 20.3943 48.7322 22.5943 50.4686 23.7744C49.0314 19.5599 44.1468 19.012 40.1304 20.2595Z" fill="#9194A3"/>
<path d="M41.9046 30.8886C41.9046 32.3056 41.4844 33.6908 40.6971 34.869C39.9098 36.0473 38.7909 36.9656 37.4817 37.5079C36.1725 38.0501 34.7319 38.192 33.3421 37.9156C31.9523 37.6391 30.6757 36.9568 29.6737 35.9548C28.6717 34.9528 27.9893 33.6761 27.7129 32.2863C27.4364 30.8965 27.5783 29.4559 28.1206 28.1468C28.6629 26.8376 29.5812 25.7186 30.7594 24.9313C31.9376 24.1441 33.3228 23.7239 34.7399 23.7239C36.6401 23.7239 38.4624 24.4787 39.8061 25.8224C41.1497 27.166 41.9046 28.9884 41.9046 30.8886Z" fill="white"/>
<path d="M39.7847 30.9519C39.7856 31.9473 39.4911 32.9206 38.9387 33.7487C38.3863 34.5768 37.6007 35.2224 36.6812 35.604C35.7618 35.9855 34.7499 36.0857 33.7735 35.892C32.797 35.6984 31.9 35.2194 31.1958 34.5158C30.4917 33.8122 30.012 32.9156 29.8175 31.9394C29.623 30.9631 29.7224 29.9511 30.1031 29.0313C30.4839 28.1116 31.1288 27.3254 31.9565 26.7723C32.7841 26.2192 33.7572 25.924 34.7526 25.924C36.0861 25.9251 37.3648 26.455 38.3081 27.3976C39.2515 28.3401 39.7825 29.6183 39.7847 30.9519Z" fill="#58595B"/>
<path d="M67.7058 41.1763C61.9108 45.2601 55.3193 48.3409 45.9715 48.3409C41.5969 48.3409 40.7118 43.705 37.8207 45.9724C36.3245 47.1482 31.0774 49.7655 26.884 49.58C22.6905 49.3946 15.9262 46.9291 14.0508 38.0154C13.3048 46.9291 12.9213 53.4953 9.57495 61.0224C16.2423 71.6978 32.1353 79.9288 46.5574 76.3886C45.0106 65.5657 54.468 54.962 59.7994 49.5379C61.8139 47.4854 65.6997 44.1306 67.7058 41.1594V41.1763Z" fill="#A9ADBF"/>
<path d="M67.4783 41.4459C65.6321 43.0337 63.5722 44.3545 61.3588 45.3696C59.1526 46.4179 56.8526 47.2561 54.4892 47.8731C52.1291 48.4842 49.6593 48.9436 47.1601 48.716C44.6609 48.4884 42.1027 47.6371 40.4548 45.7658L40.5349 45.6731C42.5747 46.9922 44.9054 47.4558 47.2318 47.5233C49.5938 47.5918 51.956 47.3953 54.2742 46.9374C56.6162 46.4493 58.9076 45.7438 61.1186 44.8302C63.3654 43.9722 65.4806 42.8032 67.4025 41.3574L67.4783 41.4459Z" fill="#58595B"/>
<path d="M110.672 37.6644C110.464 36.3364 110.016 35.3364 109.328 34.6644C108.656 33.9924 107.76 33.6484 106.64 33.6324C105.808 33.6324 105.08 33.8244 104.456 34.2084C103.832 34.5924 103.312 35.1044 102.896 35.7444C102.496 36.3844 102.192 37.1124 101.984 37.9284C101.792 38.7444 101.696 39.5844 101.696 40.4484C101.696 41.8244 101.888 43.0484 102.272 44.1204C102.672 45.1764 103.248 46.0084 104 46.6164C104.752 47.2244 105.664 47.5284 106.736 47.5284C107.744 47.5284 108.744 47.2724 109.736 46.7604C110.728 46.2324 111.56 45.5044 112.232 44.5764L113.384 45.6324C112.6 46.7044 111.776 47.5204 110.912 48.0804C110.048 48.6244 109.2 48.9924 108.368 49.1844C107.552 49.3764 106.816 49.4724 106.16 49.4724C104.928 49.4724 103.808 49.2564 102.8 48.8244C101.792 48.3764 100.92 47.7684 100.184 47.0004C99.4644 46.2164 98.9044 45.3124 98.5044 44.2884C98.1204 43.2484 97.9284 42.1284 97.9284 40.9284C97.9284 39.8404 98.1044 38.7604 98.4564 37.6884C98.8084 36.6164 99.3284 35.6484 100.016 34.7844C100.72 33.9044 101.6 33.2084 102.656 32.6964C103.712 32.1684 104.936 31.9044 106.328 31.9044C106.952 31.9044 107.632 32.0084 108.368 32.2164C109.12 32.4084 109.824 32.6964 110.48 33.0804L110.384 32.0724H112.232V37.6644H110.672ZM120.476 49.4724C119.324 49.4724 118.284 49.2244 117.356 48.7284C116.428 48.2324 115.692 47.5284 115.148 46.6164C114.62 45.6884 114.356 44.6004 114.356 43.3524C114.356 42.0244 114.628 40.8644 115.172 39.8724C115.732 38.8644 116.468 38.0884 117.38 37.5444C118.308 36.9844 119.316 36.7044 120.404 36.7044C121.556 36.7044 122.588 36.9524 123.5 37.4484C124.412 37.9444 125.132 38.6564 125.66 39.5844C126.188 40.4964 126.452 41.5924 126.452 42.8724C126.452 44.2164 126.196 45.3844 125.684 46.3764C125.172 47.3684 124.468 48.1364 123.572 48.6804C122.676 49.2084 121.644 49.4724 120.476 49.4724ZM120.572 47.7684C121.212 47.7524 121.692 47.5284 122.012 47.0964C122.348 46.6644 122.58 46.1204 122.708 45.4644C122.836 44.8084 122.9 44.1444 122.9 43.4724C122.9 42.8804 122.852 42.2804 122.756 41.6724C122.676 41.0644 122.54 40.5124 122.348 40.0164C122.156 39.5204 121.892 39.1204 121.556 38.8164C121.236 38.5124 120.836 38.3684 120.356 38.3844C119.732 38.4004 119.236 38.6244 118.868 39.0564C118.516 39.4884 118.26 40.0324 118.1 40.6884C117.956 41.3284 117.884 42.0004 117.884 42.7044C117.884 43.5204 117.972 44.3204 118.148 45.1044C118.324 45.8884 118.604 46.5364 118.988 47.0484C119.388 47.5444 119.916 47.7844 120.572 47.7684ZM128.19 47.5284C128.638 47.5284 128.958 47.4404 129.15 47.2644C129.342 47.0884 129.462 46.8404 129.51 46.5204C129.574 46.1844 129.606 45.8084 129.606 45.3924V41.4084C129.606 41.1204 129.614 40.7924 129.63 40.4244C129.646 40.0404 129.67 39.6724 129.702 39.3204C129.446 39.3364 129.142 39.3524 128.79 39.3684C128.454 39.3684 128.198 39.3764 128.022 39.3924V37.5684C128.758 37.5684 129.382 37.5284 129.894 37.4484C130.406 37.3684 130.806 37.2724 131.094 37.1604C131.398 37.0484 131.606 36.9444 131.718 36.8484H133.014V45.2244C133.014 45.4484 133.006 45.7684 132.99 46.1844C132.974 46.5844 132.95 46.9684 132.918 47.3364C133.174 47.3044 133.454 47.2884 133.758 47.2884C134.078 47.2724 134.318 47.2644 134.478 47.2644V49.0884H128.19V47.5284ZM131.19 34.9524C130.646 34.9524 130.198 34.7604 129.846 34.3764C129.494 33.9924 129.318 33.5284 129.318 32.9844C129.318 32.4404 129.502 31.9764 129.87 31.5924C130.238 31.2084 130.67 31.0164 131.166 31.0164C131.678 31.0164 132.102 31.2084 132.438 31.5924C132.79 31.9764 132.966 32.4404 132.966 32.9844C132.966 33.5284 132.806 33.9924 132.486 34.3764C132.166 34.7604 131.734 34.9524 131.19 34.9524ZM136.041 49.0884V47.5284C136.489 47.5284 136.809 47.4404 137.001 47.2644C137.193 47.0884 137.313 46.8404 137.361 46.5204C137.425 46.1844 137.457 45.8084 137.457 45.3924V41.3604C137.457 41.0724 137.465 40.7524 137.481 40.4004C137.497 40.0324 137.521 39.6724 137.553 39.3204C137.297 39.3364 136.993 39.3524 136.641 39.3684C136.305 39.3684 136.049 39.3764 135.873 39.3924V37.5684C136.609 37.5684 137.233 37.5284 137.745 37.4484C138.257 37.3684 138.657 37.2724 138.945 37.1604C139.249 37.0484 139.457 36.9444 139.569 36.8484H140.745C140.777 37.0564 140.793 37.2084 140.793 37.3044C140.793 37.4004 140.793 37.4964 140.793 37.5924C140.809 37.6724 140.841 37.8244 140.889 38.0484C141.209 37.7924 141.577 37.5684 141.993 37.3764C142.409 37.1684 142.825 37.0084 143.241 36.8964C143.657 36.7684 144.025 36.7044 144.345 36.7044C145.817 36.7044 146.857 37.1284 147.465 37.9764C148.089 38.8084 148.401 40.1524 148.401 42.0084V45.2244C148.401 45.4484 148.393 45.7684 148.377 46.1844C148.361 46.5844 148.337 46.9684 148.305 47.3364C148.577 47.3044 148.865 47.2884 149.169 47.2884C149.473 47.2724 149.705 47.2644 149.865 47.2644V49.0884H143.577V47.5284C144.025 47.5284 144.345 47.4404 144.537 47.2644C144.745 47.0884 144.873 46.8404 144.921 46.5204C144.985 46.1844 145.017 45.8084 145.017 45.3924L144.993 41.9844C144.993 40.9444 144.841 40.1764 144.537 39.6804C144.249 39.1684 143.753 38.9124 143.049 38.9124C142.649 38.9124 142.249 39.0004 141.849 39.1764C141.465 39.3524 141.137 39.5604 140.865 39.8004C140.865 40.0244 140.865 40.2564 140.865 40.4964C140.865 40.7204 140.865 40.9444 140.865 41.1684V45.2244C140.865 45.4484 140.857 45.7684 140.841 46.1844C140.825 46.5844 140.801 46.9684 140.769 47.3364C141.025 47.3044 141.305 47.2884 141.609 47.2884C141.929 47.2724 142.169 47.2644 142.329 47.2644V49.0884H136.041ZM159.034 49.4724C157.306 49.4724 155.834 49.0964 154.618 48.3444C153.402 47.5764 152.474 46.5444 151.834 45.2484C151.194 43.9524 150.874 42.5124 150.874 40.9284C150.874 39.8404 151.042 38.7604 151.378 37.6884C151.73 36.6164 152.25 35.6484 152.938 34.7844C153.626 33.9044 154.49 33.2084 155.53 32.6964C156.586 32.1684 157.81 31.9044 159.202 31.9044C159.634 31.9044 160.122 31.9524 160.666 32.0484C161.21 32.1284 161.754 32.2564 162.298 32.4324C162.858 32.6084 163.354 32.8244 163.786 33.0804L163.69 32.0724H165.538V37.6644H163.978C163.834 36.7684 163.554 36.0244 163.138 35.4324C162.722 34.8404 162.202 34.3924 161.578 34.0884C160.954 33.7844 160.266 33.6324 159.514 33.6324C158.682 33.6324 157.954 33.8244 157.33 34.2084C156.722 34.5924 156.218 35.1044 155.818 35.7444C155.418 36.3844 155.114 37.1124 154.906 37.9284C154.714 38.7444 154.618 39.5844 154.618 40.4484C154.618 41.8244 154.81 43.0484 155.194 44.1204C155.578 45.1924 156.138 46.0404 156.874 46.6644C157.626 47.2724 158.546 47.5764 159.634 47.5764C159.938 47.5764 160.298 47.5524 160.714 47.5044C161.13 47.4564 161.546 47.3844 161.962 47.2884C162.378 47.1924 162.73 47.0724 163.018 46.9284V44.6964C163.018 44.2644 163.026 43.8484 163.042 43.4484C163.074 43.0484 163.098 42.7444 163.114 42.5364C162.858 42.5524 162.538 42.5684 162.154 42.5844C161.77 42.5844 161.49 42.5924 161.314 42.6084V40.7604H167.698V42.3444C167.426 42.3604 167.186 42.3924 166.978 42.4404C166.786 42.4884 166.618 42.5844 166.474 42.7284C166.346 42.8564 166.25 43.0564 166.186 43.3284C166.122 43.6004 166.09 43.9684 166.09 44.4324V48.2724H165.514C165.05 48.2724 164.586 48.3364 164.122 48.4644C163.658 48.5924 163.162 48.7364 162.634 48.8964C162.138 49.0404 161.594 49.1684 161.002 49.2804C160.41 49.4084 159.754 49.4724 159.034 49.4724ZM174.776 49.4724C173.608 49.4724 172.576 49.2164 171.68 48.7044C170.784 48.1764 170.088 47.4404 169.592 46.4964C169.096 45.5364 168.848 44.4084 168.848 43.1124C168.848 41.9924 169.096 40.9444 169.592 39.9684C170.088 38.9924 170.784 38.2084 171.68 37.6164C172.592 37.0084 173.648 36.7044 174.848 36.7044C175.52 36.7044 176.176 36.8004 176.816 36.9924C177.456 37.1684 178.032 37.4804 178.544 37.9284C179.072 38.3764 179.488 38.9844 179.792 39.7524C180.112 40.5204 180.264 41.4804 180.248 42.6324L172.376 42.7764C172.376 43.6404 172.48 44.4164 172.688 45.1044C172.912 45.7924 173.272 46.3364 173.768 46.7364C174.264 47.1364 174.928 47.3364 175.76 47.3364C176.08 47.3364 176.44 47.2804 176.84 47.1684C177.256 47.0564 177.672 46.8724 178.088 46.6164C178.52 46.3444 178.92 45.9844 179.288 45.5364L180.368 46.5444C179.792 47.3604 179.176 47.9844 178.52 48.4164C177.864 48.8324 177.208 49.1124 176.552 49.2564C175.912 49.4004 175.32 49.4724 174.776 49.4724ZM172.52 41.0964H176.936C176.92 40.4244 176.824 39.8964 176.648 39.5124C176.488 39.1124 176.264 38.8244 175.976 38.6484C175.688 38.4724 175.352 38.3844 174.968 38.3844C174.264 38.3844 173.712 38.6404 173.312 39.1524C172.912 39.6484 172.648 40.2964 172.52 41.0964ZM187.666 49.4724C186.594 49.4724 185.61 49.2324 184.714 48.7524C183.818 48.2724 183.098 47.5764 182.554 46.6644C182.026 45.7524 181.762 44.6484 181.762 43.3524C181.762 42.4404 181.914 41.5844 182.218 40.7844C182.522 39.9844 182.946 39.2804 183.49 38.6724C184.05 38.0644 184.706 37.5844 185.458 37.2324C186.226 36.8804 187.074 36.7044 188.002 36.7044C189.026 36.7044 189.874 36.8644 190.546 37.1844C191.234 37.4884 191.746 37.8964 192.082 38.4084C192.434 38.9044 192.61 39.4324 192.61 39.9924C192.61 40.4564 192.466 40.8724 192.178 41.2404C191.906 41.5924 191.514 41.7764 191.002 41.7924C190.394 41.8084 189.97 41.6404 189.73 41.2884C189.49 40.9204 189.37 40.5684 189.37 40.2324C189.37 40.0884 189.394 39.9204 189.442 39.7284C189.49 39.5204 189.562 39.3364 189.658 39.1764C189.546 38.9364 189.378 38.7604 189.154 38.6484C188.93 38.5364 188.698 38.4644 188.458 38.4324C188.234 38.3844 188.05 38.3684 187.906 38.3844C187.138 38.4324 186.506 38.8164 186.01 39.5364C185.514 40.2564 185.266 41.2964 185.266 42.6564C185.266 43.4564 185.362 44.2084 185.554 44.9124C185.762 45.6004 186.098 46.1684 186.562 46.6164C187.026 47.0644 187.65 47.3044 188.434 47.3364C189.106 47.3524 189.762 47.1924 190.402 46.8564C191.042 46.5204 191.586 46.0644 192.034 45.4884L193.138 46.5684C192.562 47.3684 191.962 47.9764 191.338 48.3924C190.714 48.8084 190.09 49.0884 189.466 49.2324C188.858 49.3924 188.258 49.4724 187.666 49.4724ZM194.04 49.0884V47.5284C194.488 47.5284 194.808 47.4404 195 47.2644C195.208 47.0884 195.336 46.8404 195.384 46.5204C195.448 46.1844 195.48 45.8084 195.48 45.3924V35.5284C195.48 35.2404 195.488 34.9124 195.504 34.5444C195.52 34.1604 195.544 33.7924 195.576 33.4404C195.32 33.4564 195.016 33.4724 194.664 33.4884C194.328 33.4884 194.072 33.4964 193.896 33.5124V31.6884C194.632 31.6884 195.248 31.6484 195.744 31.5684C196.256 31.4884 196.664 31.3924 196.968 31.2804C197.272 31.1684 197.472 31.0644 197.568 30.9684H198.888V41.9124H200.04L201.768 39.9204C201.976 39.6964 202.144 39.5044 202.272 39.3444C202.416 39.1844 202.56 39.0404 202.704 38.9124H201.432V37.0884H206.832V38.6244C206.272 38.6884 205.776 38.8244 205.344 39.0324C204.912 39.2244 204.536 39.4564 204.216 39.7284C203.912 40.0004 203.648 40.2644 203.424 40.5204L201.888 42.2484C202.128 42.3604 202.36 42.5284 202.584 42.7524C202.824 42.9604 203.112 43.2884 203.448 43.7364L205.056 45.8484C205.152 45.9604 205.272 46.1124 205.416 46.3044C205.576 46.4964 205.752 46.6884 205.944 46.8804C206.136 47.0564 206.344 47.2084 206.568 47.3364C206.792 47.4644 207.024 47.5284 207.264 47.5284V49.0884H204.504C203.992 49.0884 203.544 48.9124 203.16 48.5604C202.776 48.1924 202.336 47.6724 201.84 47.0004C201.552 46.6164 201.248 46.2084 200.928 45.7764C200.624 45.3284 200.336 44.9124 200.064 44.5284C199.808 44.1284 199.6 43.8164 199.44 43.5924L198.888 43.6164V45.2244C198.888 45.4484 198.88 45.7684 198.864 46.1844C198.848 46.5844 198.824 46.9684 198.792 47.3364C199.048 47.3044 199.328 47.2884 199.632 47.2884C199.936 47.2724 200.176 47.2644 200.352 47.2644V49.0884H194.04ZM213.968 49.4724C212.816 49.4724 211.776 49.2244 210.848 48.7284C209.92 48.2324 209.184 47.5284 208.64 46.6164C208.112 45.6884 207.848 44.6004 207.848 43.3524C207.848 42.0244 208.12 40.8644 208.664 39.8724C209.224 38.8644 209.96 38.0884 210.872 37.5444C211.8 36.9844 212.808 36.7044 213.896 36.7044C215.048 36.7044 216.08 36.9524 216.992 37.4484C217.904 37.9444 218.624 38.6564 219.152 39.5844C219.68 40.4964 219.944 41.5924 219.944 42.8724C219.944 44.2164 219.688 45.3844 219.176 46.3764C218.664 47.3684 217.96 48.1364 217.064 48.6804C216.168 49.2084 215.136 49.4724 213.968 49.4724ZM214.064 47.7684C214.704 47.7524 215.184 47.5284 215.504 47.0964C215.84 46.6644 216.072 46.1204 216.2 45.4644C216.328 44.8084 216.392 44.1444 216.392 43.4724C216.392 42.8804 216.344 42.2804 216.248 41.6724C216.168 41.0644 216.032 40.5124 215.84 40.0164C215.648 39.5204 215.384 39.1204 215.048 38.8164C214.728 38.5124 214.328 38.3684 213.848 38.3844C213.224 38.4004 212.728 38.6244 212.36 39.0564C212.008 39.4884 211.752 40.0324 211.592 40.6884C211.448 41.3284 211.376 42.0004 211.376 42.7044C211.376 43.5204 211.464 44.3204 211.64 45.1044C211.816 45.8884 212.096 46.5364 212.48 47.0484C212.88 47.5444 213.408 47.7844 214.064 47.7684Z" fill="#A9ADBF"/>
</svg>
