<svg width="316" height="81" viewBox="0 0 316 81" fill="none" xmlns="http://www.w3.org/2000/svg">
<path d="M69.5648 48.4009C68.1472 49.2952 66.4792 49.4066 65.2139 48.6945C63.6034 47.7833 62.717 45.6637 62.717 42.7073V33.8715C62.717 29.6055 61.0253 26.568 58.1968 25.7479C53.406 24.354 49.7994 30.2029 48.446 32.4034L39.9944 46.0721V29.3659C39.8997 25.5184 38.6479 23.22 36.2728 22.5247C34.6961 22.0691 32.3447 22.2514 30.0576 25.7411L11.121 56.0723C8.586 51.2715 7.26431 45.926 7.27079 40.5C7.27079 22.2278 21.9511 7.36425 39.9944 7.36425C58.0344 7.36425 72.7113 22.2278 72.7113 40.5C72.7249 40.5607 72.7181 40.6147 72.7215 40.6789C72.8906 44.2192 71.7403 47.034 69.5648 48.4076V48.4009ZM79.9855 40.5034L79.9821 40.3177C79.8806 18.0664 61.9828 0 39.9911 0C17.9418 0 0 18.1676 0 40.5C0 62.829 17.9418 81 39.9911 81C50.1106 81 59.7701 77.1626 67.183 70.2C68.6547 68.8162 68.7393 66.4875 67.3758 64.9991C67.0542 64.6451 66.6649 64.3586 66.2309 64.1566C65.7968 63.9545 65.3267 63.8408 64.8481 63.8223C64.3695 63.8038 63.892 63.8807 63.4435 64.0486C62.9951 64.2164 62.5847 64.4719 62.2365 64.8C56.2283 70.4747 48.2685 73.6368 39.9944 73.6357C30.3316 73.6357 21.6398 69.3731 15.6446 62.6062L32.7237 35.2519V47.8643C32.7237 53.919 35.0785 55.8765 37.0543 56.4502C39.0302 57.024 42.0481 56.6325 45.2183 51.4958C48.5949 46.0485 52.0696 40.3684 55.4462 35.0257V42.7073C55.4462 48.3705 57.7198 52.8997 61.6817 55.1273C65.2545 57.1421 69.7475 56.9599 73.4049 54.6548C77.8439 51.8603 80.2325 46.71 79.9821 40.5034H79.9855Z" fill="#D9DEEE"/>
<path d="M115.584 37.576C115.376 36.248 114.928 35.248 114.24 34.576C113.568 33.904 112.672 33.56 111.552 33.544C110.72 33.544 109.992 33.736 109.368 34.12C108.744 34.504 108.224 35.016 107.808 35.656C107.408 36.296 107.104 37.024 106.896 37.84C106.704 38.656 106.608 39.496 106.608 40.36C106.608 41.736 106.8 42.96 107.184 44.032C107.584 45.088 108.16 45.92 108.912 46.528C109.664 47.136 110.576 47.44 111.648 47.44C112.656 47.44 113.656 47.184 114.648 46.672C115.64 46.144 116.472 45.416 117.144 44.488L118.296 45.544C117.512 46.616 116.688 47.432 115.824 47.992C114.96 48.536 114.112 48.904 113.28 49.096C112.464 49.288 111.728 49.384 111.072 49.384C109.84 49.384 108.72 49.168 107.712 48.736C106.704 48.288 105.832 47.68 105.096 46.912C104.376 46.128 103.816 45.224 103.416 44.2C103.032 43.16 102.84 42.04 102.84 40.84C102.84 39.752 103.016 38.672 103.368 37.6C103.72 36.528 104.24 35.56 104.928 34.696C105.632 33.816 106.512 33.12 107.568 32.608C108.624 32.08 109.848 31.816 111.24 31.816C111.864 31.816 112.544 31.92 113.28 32.128C114.032 32.32 114.736 32.608 115.392 32.992L115.296 31.984H117.144V37.576H115.584ZM127.715 49.384C126.195 49.384 124.899 49.128 123.827 48.616C122.771 48.104 121.915 47.424 121.259 46.576C120.603 45.712 120.123 44.76 119.819 43.72C119.515 42.68 119.363 41.64 119.363 40.6C119.363 39.592 119.531 38.576 119.867 37.552C120.219 36.512 120.739 35.56 121.427 34.696C122.131 33.832 123.011 33.136 124.067 32.608C125.123 32.08 126.363 31.816 127.787 31.816C129.243 31.816 130.499 32.08 131.555 32.608C132.611 33.136 133.475 33.84 134.147 34.72C134.819 35.584 135.315 36.528 135.635 37.552C135.971 38.576 136.139 39.592 136.139 40.6C136.139 41.592 135.963 42.6 135.611 43.624C135.275 44.648 134.755 45.6 134.051 46.48C133.363 47.344 132.491 48.048 131.435 48.592C130.379 49.12 129.139 49.384 127.715 49.384ZM127.979 47.632C128.811 47.632 129.507 47.432 130.067 47.032C130.627 46.616 131.075 46.08 131.411 45.424C131.747 44.768 131.987 44.056 132.131 43.288C132.275 42.504 132.347 41.744 132.347 41.008C132.347 39.904 132.251 38.896 132.059 37.984C131.867 37.072 131.571 36.288 131.171 35.632C130.771 34.96 130.259 34.448 129.635 34.096C129.027 33.728 128.307 33.552 127.475 33.568C126.659 33.584 125.971 33.808 125.411 34.24C124.851 34.656 124.403 35.2 124.067 35.872C123.731 36.528 123.491 37.248 123.347 38.032C123.203 38.816 123.131 39.576 123.131 40.312C123.131 41.064 123.211 41.864 123.371 42.712C123.547 43.56 123.819 44.36 124.187 45.112C124.555 45.864 125.051 46.472 125.675 46.936C126.299 47.4 127.067 47.632 127.979 47.632ZM144.776 33.784C144.424 33.8 144.12 33.848 143.864 33.928C143.608 34.008 143.408 34.192 143.264 34.48C143.136 34.752 143.072 35.216 143.072 35.872V45.064C143.072 45.496 143.064 45.912 143.048 46.312C143.032 46.712 143.008 47.016 142.976 47.224C143.232 47.192 143.552 47.176 143.936 47.176C144.336 47.16 144.616 47.152 144.776 47.152V49H137.888V47.416C138.256 47.4 138.56 47.352 138.8 47.272C139.056 47.192 139.248 47.008 139.376 46.72C139.52 46.432 139.592 45.968 139.592 45.328V36.136C139.592 35.704 139.6 35.288 139.616 34.888C139.648 34.488 139.672 34.184 139.688 33.976C139.432 33.992 139.112 34.008 138.728 34.024C138.344 34.024 138.064 34.032 137.888 34.048V32.2H144.776V33.784ZM159.937 49.24L152.257 39.424C152.049 39.152 151.833 38.864 151.609 38.56C151.385 38.256 151.161 37.944 150.937 37.624H150.913L150.961 45.064C150.961 45.496 150.953 45.912 150.937 46.312C150.921 46.712 150.897 47.016 150.865 47.224C151.121 47.192 151.441 47.176 151.825 47.176C152.225 47.16 152.505 47.152 152.665 47.152V49H147.193V47.416C147.561 47.4 147.865 47.352 148.105 47.272C148.361 47.192 148.553 47.008 148.681 46.72C148.825 46.432 148.897 45.968 148.897 45.328L148.849 36.136C148.849 35.704 148.857 35.288 148.873 34.888C148.889 34.488 148.913 34.184 148.945 33.976C148.689 33.992 148.361 34.008 147.961 34.024C147.577 34.024 147.297 34.032 147.121 34.048V32.2H150.889L158.233 41.464C158.633 41.976 158.961 42.416 159.217 42.784C159.489 43.152 159.721 43.472 159.913 43.744H159.937V36.136C159.937 35.704 159.945 35.288 159.961 34.888C159.977 34.488 159.993 34.184 160.009 33.976C159.753 33.992 159.433 34.008 159.049 34.024C158.665 34.024 158.385 34.032 158.209 34.048V32.2H163.681V33.784C163.329 33.8 163.025 33.848 162.769 33.928C162.513 34.008 162.313 34.192 162.169 34.48C162.041 34.752 161.977 35.216 161.977 35.872V49.24H159.937ZM174.323 49.24C173.779 47.912 173.235 46.592 172.691 45.28C172.163 43.968 171.627 42.656 171.083 41.344C170.955 41.04 170.787 40.616 170.579 40.072C170.387 39.512 170.179 38.872 169.955 38.152C169.747 37.432 169.555 36.688 169.379 35.92C169.411 36.816 169.435 37.664 169.451 38.464C169.467 39.248 169.467 40 169.451 40.72C169.451 41.072 169.451 41.432 169.451 41.8C169.451 42.168 169.443 42.536 169.427 42.904C169.427 43.256 169.427 43.616 169.427 43.984C169.427 44.336 169.427 44.696 169.427 45.064C169.427 45.496 169.411 45.912 169.379 46.312C169.363 46.712 169.339 47.016 169.307 47.224C169.579 47.192 169.907 47.176 170.291 47.176C170.691 47.16 170.971 47.152 171.131 47.152V49H165.659V47.416C166.027 47.4 166.331 47.352 166.571 47.272C166.827 47.192 167.019 47.008 167.147 46.72C167.291 46.432 167.363 45.968 167.363 45.328L167.507 36.136C167.523 35.704 167.539 35.288 167.555 34.888C167.571 34.488 167.587 34.184 167.603 33.976C167.347 33.992 167.027 34.008 166.643 34.024C166.259 34.024 165.979 34.032 165.803 34.048V32.2H171.107L174.731 41.488C174.875 41.856 175.035 42.288 175.211 42.784C175.387 43.264 175.555 43.736 175.715 44.2C175.875 44.648 175.995 45.008 176.075 45.28H176.099C176.307 44.72 176.499 44.176 176.675 43.648C176.851 43.12 177.035 42.608 177.227 42.112C177.851 40.448 178.467 38.792 179.075 37.144C179.699 35.496 180.323 33.848 180.947 32.2H186.491V33.784C186.139 33.8 185.827 33.848 185.555 33.928C185.283 34.008 185.075 34.192 184.931 34.48C184.803 34.752 184.747 35.216 184.763 35.872L185.123 45.064C185.155 45.496 185.155 45.912 185.123 46.312C185.091 46.712 185.059 47.016 185.027 47.224C185.299 47.192 185.627 47.176 186.011 47.176C186.411 47.16 186.691 47.152 186.851 47.152V49H180.179V47.416C180.547 47.4 180.859 47.352 181.115 47.272C181.387 47.192 181.587 47.008 181.715 46.72C181.859 46.432 181.915 45.968 181.883 45.328L181.691 40.24C181.691 40.048 181.675 39.72 181.643 39.256C181.611 38.776 181.579 38.256 181.547 37.696C181.531 37.12 181.515 36.584 181.499 36.088C181.451 36.2 181.403 36.312 181.355 36.424C181.307 36.52 181.267 36.624 181.235 36.736L176.555 49.24H174.323ZM187.948 49V47.344C188.396 47.344 188.756 47.216 189.028 46.96C189.3 46.704 189.524 46.368 189.7 45.952C189.892 45.536 190.076 45.088 190.252 44.608L194.932 31.768H196.612L201.724 44.848C201.82 45.088 201.948 45.456 202.108 45.952C202.268 46.432 202.364 46.856 202.396 47.224C202.668 47.192 202.924 47.176 203.164 47.176C203.42 47.16 203.628 47.152 203.788 47.152V49H197.332V47.416C197.78 47.416 198.084 47.328 198.244 47.152C198.42 46.96 198.5 46.704 198.484 46.384C198.468 46.064 198.38 45.704 198.22 45.304L197.74 43.984L192.532 44.08L192.148 45.208C192.068 45.416 191.948 45.728 191.788 46.144C191.644 46.544 191.508 46.88 191.38 47.152C191.636 47.12 191.94 47.104 192.292 47.104C192.66 47.088 192.924 47.08 193.084 47.08V49H187.948ZM193.132 42.28H197.14L196.036 39.28C195.828 38.704 195.644 38.128 195.484 37.552C195.324 36.96 195.204 36.44 195.124 35.992H195.1C195.036 36.264 194.94 36.672 194.812 37.216C194.684 37.76 194.484 38.408 194.212 39.16L193.132 42.28ZM205.083 49V47.416C205.451 47.4 205.755 47.352 205.995 47.272C206.251 47.192 206.443 47.008 206.571 46.72C206.715 46.432 206.787 45.968 206.787 45.328V36.136C206.787 35.704 206.795 35.288 206.811 34.888C206.843 34.488 206.867 34.184 206.883 33.976C206.627 33.992 206.307 34.008 205.923 34.024C205.539 34.024 205.259 34.032 205.083 34.048V32.2C206.219 32.184 207.355 32.176 208.491 32.176C209.627 32.176 210.763 32.168 211.899 32.152C213.307 32.136 214.531 32.296 215.571 32.632C216.611 32.968 217.411 33.512 217.971 34.264C218.531 35.016 218.795 36.032 218.763 37.312C218.747 37.984 218.579 38.624 218.259 39.232C217.955 39.84 217.491 40.376 216.867 40.84C216.259 41.304 215.483 41.672 214.539 41.944C214.843 42.072 215.139 42.28 215.427 42.568C215.731 42.856 215.987 43.16 216.195 43.48L217.323 45.16C217.675 45.704 217.987 46.136 218.259 46.456C218.531 46.776 218.803 47.016 219.075 47.176C219.347 47.32 219.659 47.4 220.011 47.416V49H216.051C215.763 48.792 215.475 48.496 215.187 48.112C214.915 47.712 214.619 47.256 214.299 46.744L212.523 43.864C212.315 43.544 212.131 43.272 211.971 43.048C211.827 42.824 211.675 42.632 211.515 42.472C211.259 42.472 211.043 42.472 210.867 42.472C210.691 42.472 210.491 42.472 210.267 42.472V45.04C210.267 45.488 210.259 45.912 210.243 46.312C210.227 46.712 210.203 47.016 210.171 47.224C210.347 47.208 210.571 47.2 210.843 47.2C211.115 47.184 211.379 47.176 211.635 47.176C211.907 47.16 212.099 47.152 212.211 47.152V49H205.083ZM211.419 40.744C212.315 40.744 213.035 40.616 213.579 40.36C214.123 40.088 214.515 39.688 214.755 39.16C215.011 38.616 215.139 37.936 215.139 37.12C215.139 36.352 215.019 35.752 214.779 35.32C214.539 34.872 214.235 34.544 213.867 34.336C213.515 34.112 213.155 33.976 212.787 33.928C212.419 33.864 212.115 33.832 211.875 33.832C211.539 33.832 211.251 33.872 211.011 33.952C210.771 34.032 210.587 34.208 210.459 34.48C210.331 34.752 210.267 35.168 210.267 35.728V40.648C210.443 40.664 210.627 40.688 210.819 40.72C211.011 40.736 211.211 40.744 211.419 40.744ZM221.536 49V47.416C221.904 47.4 222.208 47.352 222.448 47.272C222.704 47.192 222.896 47.008 223.024 46.72C223.168 46.432 223.24 45.968 223.24 45.328V36.136C223.24 35.704 223.248 35.288 223.264 34.888C223.296 34.488 223.32 34.184 223.336 33.976C223.08 33.992 222.76 34.008 222.376 34.024C221.992 34.024 221.712 34.032 221.536 34.048V32.2H228.424V33.784C228.072 33.8 227.768 33.848 227.512 33.928C227.256 34.008 227.056 34.192 226.912 34.48C226.784 34.752 226.72 35.216 226.72 35.872V39.52H228.448L230.296 36.376C230.568 35.896 230.856 35.416 231.16 34.936C231.464 34.456 231.72 34.128 231.928 33.952C231.672 33.968 231.4 33.984 231.112 34C230.824 34.016 230.592 34.032 230.416 34.048V32.2H236.296V33.784C235.944 33.8 235.56 33.864 235.144 33.976C234.744 34.088 234.328 34.312 233.896 34.648C233.464 34.984 233.024 35.512 232.576 36.232L230.272 39.928C230.592 40.136 230.872 40.36 231.112 40.6C231.368 40.824 231.592 41.072 231.784 41.344L234.256 44.824C234.576 45.272 234.904 45.696 235.24 46.096C235.592 46.48 235.952 46.792 236.32 47.032C236.688 47.272 237.048 47.4 237.4 47.416V49H233.704C233.576 48.984 233.368 48.84 233.08 48.568C232.792 48.296 232.488 47.968 232.168 47.584C231.848 47.2 231.576 46.856 231.352 46.552L228.976 43.096C228.768 42.792 228.536 42.48 228.28 42.16C228.04 41.84 227.808 41.6 227.584 41.44H226.72V45.064C226.72 45.496 226.712 45.912 226.696 46.312C226.68 46.712 226.656 47.016 226.624 47.224C226.88 47.192 227.2 47.176 227.584 47.176C227.984 47.16 228.264 47.152 228.424 47.152V49H221.536ZM246.782 43.216C246.782 42.544 246.678 42.064 246.47 41.776C246.262 41.472 245.974 41.28 245.606 41.2C245.254 41.12 244.862 41.088 244.43 41.104L243.806 41.128V45.064C243.806 45.496 243.798 45.904 243.782 46.288C243.766 46.672 243.742 46.968 243.71 47.176H246.926C247.406 47.176 247.87 47.072 248.318 46.864C248.766 46.64 249.134 46.28 249.422 45.784C249.71 45.272 249.854 44.584 249.854 43.72H251.414L251.294 49H238.622V47.416C238.99 47.4 239.294 47.352 239.534 47.272C239.79 47.192 239.982 47.008 240.11 46.72C240.254 46.432 240.326 45.968 240.326 45.328V36.136C240.326 35.704 240.334 35.288 240.35 34.888C240.382 34.488 240.406 34.184 240.422 33.976C240.166 33.992 239.846 34.008 239.462 34.024C239.078 34.024 238.798 34.032 238.622 34.048V32.2H250.622L250.766 36.856H249.182C249.182 35.976 249.03 35.312 248.726 34.864C248.422 34.416 248.046 34.12 247.598 33.976C247.15 33.816 246.71 33.744 246.278 33.76L245.414 33.784C245.078 33.784 244.79 33.832 244.55 33.928C244.31 34.008 244.126 34.2 243.998 34.504C243.87 34.792 243.806 35.248 243.806 35.872V39.472H246.614L246.518 37.384H248.366V43.216H246.782ZM266.006 37.624C266.006 36.76 265.886 36.048 265.646 35.488C265.406 34.912 265.062 34.488 264.614 34.216C264.182 33.928 263.662 33.792 263.054 33.808H261.902V45.064C261.902 45.496 261.894 45.912 261.878 46.312C261.862 46.712 261.838 47.016 261.806 47.224C262.078 47.192 262.422 47.176 262.838 47.176C263.27 47.16 263.566 47.152 263.726 47.152V49H256.718V47.416C257.086 47.4 257.39 47.352 257.63 47.272C257.886 47.192 258.078 47.008 258.206 46.72C258.35 46.432 258.422 45.968 258.422 45.328V33.832H257.318C256.406 33.848 255.686 34.16 255.158 34.768C254.63 35.376 254.366 36.328 254.366 37.624H252.782L252.902 32.2H267.446L267.59 37.624H266.006ZM281.592 37.576C281.384 36.248 280.936 35.248 280.248 34.576C279.576 33.904 278.68 33.56 277.56 33.544C276.728 33.544 276 33.736 275.376 34.12C274.752 34.504 274.232 35.016 273.816 35.656C273.416 36.296 273.112 37.024 272.904 37.84C272.712 38.656 272.616 39.496 272.616 40.36C272.616 41.736 272.808 42.96 273.192 44.032C273.592 45.088 274.168 45.92 274.92 46.528C275.672 47.136 276.584 47.44 277.656 47.44C278.664 47.44 279.664 47.184 280.656 46.672C281.648 46.144 282.48 45.416 283.152 44.488L284.304 45.544C283.52 46.616 282.696 47.432 281.832 47.992C280.968 48.536 280.12 48.904 279.288 49.096C278.472 49.288 277.736 49.384 277.08 49.384C275.848 49.384 274.728 49.168 273.72 48.736C272.712 48.288 271.84 47.68 271.104 46.912C270.384 46.128 269.824 45.224 269.424 44.2C269.04 43.16 268.848 42.04 268.848 40.84C268.848 39.752 269.024 38.672 269.376 37.6C269.728 36.528 270.248 35.56 270.936 34.696C271.64 33.816 272.52 33.12 273.576 32.608C274.632 32.08 275.856 31.816 277.248 31.816C277.872 31.816 278.552 31.92 279.288 32.128C280.04 32.32 280.744 32.608 281.4 32.992L281.304 31.984H283.152V37.576H281.592ZM284.463 49V47.344C284.911 47.344 285.271 47.216 285.543 46.96C285.815 46.704 286.039 46.368 286.215 45.952C286.407 45.536 286.591 45.088 286.767 44.608L291.447 31.768H293.127L298.239 44.848C298.335 45.088 298.463 45.456 298.623 45.952C298.783 46.432 298.879 46.856 298.911 47.224C299.183 47.192 299.439 47.176 299.679 47.176C299.935 47.16 300.143 47.152 300.303 47.152V49H293.847V47.416C294.295 47.416 294.599 47.328 294.759 47.152C294.935 46.96 295.015 46.704 294.999 46.384C294.983 46.064 294.895 45.704 294.735 45.304L294.255 43.984L289.047 44.08L288.663 45.208C288.583 45.416 288.463 45.728 288.303 46.144C288.159 46.544 288.023 46.88 287.895 47.152C288.151 47.12 288.455 47.104 288.807 47.104C289.175 47.088 289.439 47.08 289.599 47.08V49H284.463ZM289.647 42.28H293.655L292.551 39.28C292.343 38.704 292.159 38.128 291.999 37.552C291.839 36.96 291.719 36.44 291.639 35.992H291.615C291.551 36.264 291.455 36.672 291.327 37.216C291.199 37.76 290.999 38.408 290.727 39.16L289.647 42.28ZM301.598 47.416C301.966 47.4 302.27 47.352 302.51 47.272C302.766 47.192 302.958 47.008 303.086 46.72C303.23 46.432 303.302 45.968 303.302 45.328V36.136C303.302 35.704 303.31 35.288 303.326 34.888C303.358 34.488 303.382 34.184 303.398 33.976C303.142 33.992 302.822 34.008 302.438 34.024C302.054 34.024 301.774 34.032 301.598 34.048V32.2C302.734 32.184 303.87 32.176 305.006 32.176C306.142 32.176 307.278 32.168 308.414 32.152C309.822 32.136 311.046 32.32 312.086 32.704C313.142 33.088 313.95 33.68 314.51 34.48C315.086 35.28 315.358 36.32 315.326 37.6C315.31 38.24 315.158 38.872 314.87 39.496C314.582 40.104 314.158 40.664 313.598 41.176C313.038 41.672 312.334 42.08 311.486 42.4C310.638 42.72 309.646 42.896 308.51 42.928C308.158 42.944 307.846 42.952 307.574 42.952C307.318 42.952 307.054 42.944 306.782 42.928V45.04C306.782 45.488 306.774 45.912 306.758 46.312C306.742 46.712 306.718 47.016 306.686 47.224C306.862 47.208 307.086 47.2 307.358 47.2C307.63 47.184 307.894 47.176 308.15 47.176C308.422 47.16 308.614 47.152 308.726 47.152V49H301.598V47.416ZM306.782 41.128C306.958 41.144 307.134 41.16 307.31 41.176C307.486 41.192 307.67 41.2 307.862 41.2C308.742 41.2 309.454 41.056 309.998 40.768C310.558 40.464 310.966 40.032 311.222 39.472C311.478 38.896 311.606 38.2 311.606 37.384C311.606 36.584 311.494 35.944 311.27 35.464C311.062 34.984 310.79 34.632 310.454 34.408C310.118 34.168 309.766 34.016 309.398 33.952C309.03 33.872 308.694 33.832 308.39 33.832C308.054 33.832 307.766 33.872 307.526 33.952C307.286 34.032 307.102 34.208 306.974 34.48C306.846 34.752 306.782 35.168 306.782 35.728V41.128Z" fill="#A9ADBF"/>
</svg>
