<svg xmlns="http://www.w3.org/2000/svg" width="80" height="80" viewBox="0 0 100 100" fill="none"><circle cx="50" cy="50" r="49.5" fill="#5F5F5F" fill-opacity="0.2" stroke="#353535"></circle><path d="M65.2083 41.5V52.2292C65.2083 58.6459 61.5417 61.3958 56.0417 61.3958H37.7291C36.7916 61.3958 35.8958 61.3126 35.0625 61.1251C34.5416 61.0417 34.0417 60.8959 33.5833 60.7292C30.4583 59.5626 28.5625 56.8542 28.5625 52.2292V41.5C28.5625 35.0833 32.2291 32.3334 37.7291 32.3334H56.0417C60.7083 32.3334 64.0625 34.3125 64.9583 38.8334C65.1042 39.6667 65.2083 40.5208 65.2083 41.5Z" stroke="#00C4F4" stroke-width="1.5" stroke-miterlimit="10" stroke-linecap="round" stroke-linejoin="round"></path><path d="M71.4603 47.7505V58.4797C71.4603 64.8963 67.7936 67.6463 62.2936 67.6463H43.9811C42.4394 67.6463 41.0436 67.438 39.8353 66.9797C37.3561 66.063 35.6686 64.1672 35.0644 61.1256C35.8978 61.3131 36.7936 61.3963 37.7311 61.3963H56.0436C61.5436 61.3963 65.2103 58.6463 65.2103 52.2297V41.5005C65.2103 40.5213 65.1269 39.6464 64.9603 38.8339C68.9186 39.6672 71.4603 42.4588 71.4603 47.7505Z" stroke="#00C4F4" stroke-width="1.5" stroke-miterlimit="10" stroke-linecap="round" stroke-linejoin="round"></path><path d="M46.8711 52.3749C49.9087 52.3749 52.3711 49.9125 52.3711 46.8749C52.3711 43.8373 49.9087 41.3749 46.8711 41.3749C43.8335 41.3749 41.3711 43.8373 41.3711 46.8749C41.3711 49.9125 43.8335 52.3749 46.8711 52.3749Z" stroke="#00C4F4" stroke-width="1.5" stroke-miterlimit="10" stroke-linecap="round" stroke-linejoin="round"></path><path d="M34.959 42.2919V51.4586" stroke="#00C4F4" stroke-width="1.5" stroke-miterlimit="10" stroke-linecap="round" stroke-linejoin="round"></path><path d="M58.7949 42.2924V51.4591" stroke="#00C4F4" stroke-width="1.5" stroke-miterlimit="10" stroke-linecap="round" stroke-linejoin="round"></path></svg>