<svg class="cursor-pointer" xmlns="http://www.w3.org/2000/svg" width="18" height="21" viewBox="0 0 22 25" fill="none"><path d="M21.8 8.40511C21.7874 8.29385 21.763 8.18424 21.7273 8.07811V7.96911C21.6691 7.84459 21.5914 7.73012 21.4972 7.63L14.2306 0.363333C14.1304 0.269129 14.016 0.191454 13.8914 0.133222C13.8553 0.128087 13.8186 0.128087 13.7824 0.133222C13.6594 0.0626644 13.5235 0.0173724 13.3828 0H8.47778C7.51416 0 6.59001 0.382797 5.90862 1.06418C5.22724 1.74556 4.84444 2.66971 4.84444 3.63333V4.84445H3.63333C2.66971 4.84445 1.74556 5.22724 1.06418 5.90862C0.382797 6.59001 0 7.51416 0 8.47778V20.5889C0 21.5525 0.382797 22.4767 1.06418 23.158C1.74556 23.8394 2.66971 24.2222 3.63333 24.2222H13.3222C14.2858 24.2222 15.21 23.8394 15.8914 23.158C16.5728 22.4767 16.9556 21.5525 16.9556 20.5889V19.3778H18.1667C19.1303 19.3778 20.0544 18.995 20.7358 18.3136C21.4172 17.6322 21.8 16.7081 21.8 15.7444V8.47778V8.40511ZM14.5333 4.12989L17.6701 7.26667H15.7444C15.4232 7.26667 15.1152 7.13907 14.8881 6.91194C14.6609 6.68481 14.5333 6.37676 14.5333 6.05556V4.12989ZM14.5333 20.5889C14.5333 20.9101 14.4057 21.2182 14.1786 21.4453C13.9515 21.6724 13.6434 21.8 13.3222 21.8H3.63333C3.31213 21.8 3.00408 21.6724 2.77695 21.4453C2.54982 21.2182 2.42222 20.9101 2.42222 20.5889V8.47778C2.42222 8.15657 2.54982 7.84852 2.77695 7.62139C3.00408 7.39427 3.31213 7.26667 3.63333 7.26667H4.84444V15.7444C4.84444 16.7081 5.22724 17.6322 5.90862 18.3136C6.59001 18.995 7.51416 19.3778 8.47778 19.3778H14.5333V20.5889ZM19.3778 15.7444C19.3778 16.0657 19.2502 16.3737 19.0231 16.6008C18.7959 16.828 18.4879 16.9556 18.1667 16.9556H8.47778C8.15657 16.9556 7.84852 16.828 7.62139 16.6008C7.39427 16.3737 7.26667 16.0657 7.26667 15.7444V3.63333C7.26667 3.31213 7.39427 3.00408 7.62139 2.77695C7.84852 2.54982 8.15657 2.42222 8.47778 2.42222H12.1111V6.05556C12.1111 7.01918 12.4939 7.94333 13.1753 8.62471C13.8567 9.30609 14.7808 9.68889 15.7444 9.68889H19.3778V15.7444Z" fill="#00C4F4"></path></svg>