<svg xmlns="http://www.w3.org/2000/svg" width="80" height="80" viewBox="0 0 100 100" fill="none"><circle cx="50" cy="50" r="49.5" fill="#5F5F5F" fill-opacity="0.2" stroke="#353535"></circle><path d="M62.584 53.2292C61.709 54.0833 61.209 55.3125 61.334 56.625C61.5215 58.875 63.584 60.5208 65.834 60.5208H69.7923V63C69.7923 67.3125 66.2715 70.8334 61.959 70.8334H38.0423C33.7298 70.8334 30.209 67.3125 30.209 63V48.9792C30.209 44.6667 33.7298 41.1459 38.0423 41.1459H61.959C66.2715 41.1459 69.7923 44.6667 69.7923 48.9792V51.9792H65.584C64.4173 51.9792 63.3548 52.4375 62.584 53.2292Z" stroke="#00C4F4" stroke-width="1.5" stroke-linecap="round" stroke-linejoin="round"></path><path d="M30.209 50.8542V41.3335C30.209 38.8543 31.7298 36.6459 34.0423 35.7709L50.584 29.5209C53.1673 28.5417 55.9382 30.4585 55.9382 33.2293V41.1459" stroke="#00C4F4" stroke-width="1.5" stroke-linecap="round" stroke-linejoin="round"></path><path d="M71.9982 54.1044V58.3962C71.9982 59.542 71.0815 60.4794 69.9148 60.5211H65.8315C63.5815 60.5211 61.519 58.8753 61.3315 56.6253C61.2065 55.3128 61.7065 54.0836 62.5815 53.2294C63.3523 52.4378 64.4148 51.9795 65.5815 51.9795H69.9148C71.0815 52.0212 71.9982 52.9586 71.9982 54.1044Z" stroke="#00C4F4" stroke-width="1.5" stroke-linecap="round" stroke-linejoin="round"></path><path d="M39.584 50H54.1673" stroke="#00C4F4" stroke-width="1.5" stroke-linecap="round" stroke-linejoin="round"></path></svg>