<svg xmlns="http://www.w3.org/2000/svg" width="40" height="40" viewBox="0 0 49 49" fill="none"><path d="M24.5 11V38M31.25 18.875C31.25 15.77 28.2282 13.25 24.5 13.25C20.7717 13.25 17.75 15.77 17.75 18.875C17.75 21.98 20.7717 24.5 24.5 24.5C28.2282 24.5 31.25 27.02 31.25 30.125C31.25 33.23 28.2282 35.75 24.5 35.75C20.7717 35.75 17.75 33.23 17.75 30.125" stroke="#00C4F4" stroke-width="2.9375" stroke-linecap="round"></path><path d="M13.25 5.01053C16.6689 3.03255 20.5501 1.99394 24.5 2.00003C36.9267 2.00003 47 12.0733 47 24.5C47 36.9268 36.9267 47 24.5 47C12.0733 47 2 36.9268 2 24.5C2 20.4028 3.09575 16.5575 5.0105 13.25" stroke="#00C4F4" stroke-width="2.9375" stroke-linecap="round"></path></svg>