<svg width="223" height="80" viewBox="0 0 223 80" fill="none" xmlns="http://www.w3.org/2000/svg">
<path fill-rule="evenodd" clip-rule="evenodd" d="M43.9686 75.4764C48.7636 72.9938 52.6866 70.893 52.6858 70.8076C52.6836 70.587 41.1776 64.7955 40.7692 64.8096C40.5835 64.8158 39.2358 65.4324 37.7746 66.1796L35.1175 67.5379L32.2156 66.0554L29.3138 64.5726L24.5616 66.6949C17.401 69.893 16.6573 70.2434 16.7739 70.3612C16.9286 70.5174 19.4969 71.8887 26.4651 75.5349C29.8327 77.2971 33.1013 79.0249 33.7288 79.3745C34.3562 79.7241 34.9552 80.0054 35.0598 79.9999C35.1644 79.9945 39.1735 77.9589 43.9686 75.4764ZM64.9995 64.6523L69.991 62.0897V50.843C69.991 44.6573 69.9255 39.5964 69.8451 39.5964C69.7649 39.5964 67.3091 40.6545 64.3877 41.9477L59.0762 44.299V56.1537L56.4806 54.7482C54.4805 53.6662 52.4792 52.5863 50.4767 51.5087L47.0684 49.6746L45.5518 50.3562C44.6006 50.7843 43.6514 51.2167 42.7041 51.6532C41.972 51.992 40.1751 52.7964 38.7109 53.4411C37.2468 54.0861 35.8914 54.7347 35.6992 54.8825C35.4439 55.0789 38.557 56.7887 47.2135 61.2068C53.7386 64.5372 59.2867 67.2515 59.5426 67.2385C59.7985 67.2255 62.254 66.0618 64.9995 64.6523ZM15.8743 63.9327C19.2738 62.4073 22.0577 61.0983 22.0609 61.0237C22.0638 60.9491 20.211 59.8541 17.9431 58.5907C15.6754 57.3271 13.82 56.2256 13.82 56.1427C13.82 56.0599 15.8267 55.0935 18.279 53.9947C20.7317 52.8962 26.931 50.1137 32.0555 47.8112L49.2263 40.0971C53.5456 38.1564 57.439 36.4072 57.8782 36.2095C66.7006 32.24 69.1256 31.1385 69.4586 30.9495C69.7934 30.7591 69.8693 29.6532 69.9289 24.1028L70 17.4828L65.5363 15.2223L61.0728 12.9619L54.8833 15.7382C51.4791 17.2651 48.6939 18.5943 48.6939 18.6922C48.6939 18.7899 49.323 19.1972 50.0915 19.5979C50.8604 19.9985 52.4475 20.8854 53.6189 21.5692C54.7901 22.253 55.958 22.8804 56.2145 22.9636C56.4708 23.0466 56.6768 23.1917 56.6726 23.2864C56.6683 23.3808 53.9428 24.6675 50.6162 26.146C44.155 29.0172 39.2103 31.2302 28.5948 36.0015C23.8479 38.1346 19.1005 40.2664 14.3524 42.3969C10.1795 44.2689 5.32778 46.4553 3.57072 47.2555L0.37616 48.7103L0.305138 55.4057L0.233749 62.1008L4.76101 64.4103C7.25111 65.6805 9.37952 66.7166 9.49111 66.7128C9.60261 66.7093 12.475 65.4584 15.8743 63.9327ZM1.5891 39.7784C2.25623 39.4545 3.57397 38.8481 4.5174 38.4309C5.46082 38.0138 7.25111 37.2109 8.4957 36.6465L10.7585 35.6207L10.8102 29.7427C10.8387 26.51 10.9584 23.8793 11.0763 23.8964C11.3442 23.936 15.5852 26.0977 19.8483 28.3682C22.9253 30.0066 23.1186 30.0718 23.8416 29.7159C24.2595 29.51 26.7579 28.3964 29.3934 27.2407C32.029 26.0852 34.2712 25.0643 34.3767 24.9718C34.4819 24.8795 29.1776 22.0221 22.589 18.6217L10.6102 12.4392L5.49303 15.0702C2.67892 16.517 0.285927 17.8368 0.175728 18.0028C-0.0723419 18.376 -0.0510788 40.4185 0.197266 40.3887C0.295486 40.3769 0.921959 40.1022 1.5891 39.7784ZM29.9258 13.9061C30.8134 13.5268 31.7008 13.147 32.588 12.7666C35.2669 11.6147 34.7419 11.5765 37.929 13.1534C40.0518 14.2036 40.9668 14.5277 41.364 14.3704C41.6619 14.2525 44.2258 13.106 47.062 11.8228C49.898 10.5395 52.3168 9.48965 52.4371 9.48965C53.6271 9.48965 51.6489 8.31493 44.0154 4.48785L35.0632 0L31.2966 1.84821C29.2249 2.86478 25.0464 4.9004 22.0108 6.37177C18.9755 7.84351 16.5295 9.08577 16.5752 9.13264C16.6214 9.17933 19.1648 10.4774 22.2275 12.0173L27.7961 14.8166L29.9258 13.9061Z" fill="#D9DEEE"/>
<path d="M93.2 46.416C93.568 46.4 93.872 46.352 94.112 46.272C94.368 46.192 94.56 46.008 94.688 45.72C94.832 45.432 94.904 44.968 94.904 44.328V35.136C94.904 34.704 94.912 34.288 94.928 33.888C94.96 33.488 94.984 33.184 95 32.976C94.744 32.992 94.424 33.008 94.04 33.024C93.656 33.024 93.376 33.032 93.2 33.048V31.2L100.184 31.176C101.768 31.176 103.136 31.416 104.288 31.896C105.456 32.36 106.408 32.992 107.144 33.792C107.896 34.592 108.456 35.488 108.824 36.48C109.192 37.456 109.376 38.44 109.376 39.432C109.376 40.408 109.2 41.4 108.848 42.408C108.512 43.416 107.976 44.344 107.24 45.192C106.504 46.024 105.544 46.704 104.36 47.232C103.176 47.744 101.744 48 100.064 48H93.2V46.416ZM98.384 44.064C98.384 44.496 98.376 44.912 98.36 45.312C98.344 45.712 98.32 46.016 98.288 46.224C98.448 46.208 98.664 46.208 98.936 46.224C99.224 46.224 99.52 46.232 99.824 46.248C100.128 46.248 100.376 46.248 100.568 46.248C101.448 46.248 102.2 46.072 102.824 45.72C103.464 45.368 103.984 44.896 104.384 44.304C104.8 43.696 105.104 43.016 105.296 42.264C105.488 41.512 105.584 40.736 105.584 39.936C105.584 38.304 105.36 36.968 104.912 35.928C104.464 34.888 103.832 34.112 103.016 33.6C102.216 33.088 101.256 32.816 100.136 32.784C99.752 32.768 99.424 32.808 99.152 32.904C98.896 32.984 98.704 33.168 98.576 33.456C98.448 33.744 98.384 34.2 98.384 34.824V44.064ZM119.243 42.216C119.243 41.544 119.139 41.064 118.931 40.776C118.723 40.472 118.435 40.28 118.067 40.2C117.715 40.12 117.323 40.088 116.891 40.104L116.267 40.128V44.064C116.267 44.496 116.259 44.904 116.243 45.288C116.227 45.672 116.203 45.968 116.171 46.176H119.387C119.867 46.176 120.331 46.072 120.779 45.864C121.227 45.64 121.595 45.28 121.883 44.784C122.171 44.272 122.315 43.584 122.315 42.72H123.875L123.755 48H111.083V46.416C111.451 46.4 111.755 46.352 111.995 46.272C112.251 46.192 112.443 46.008 112.571 45.72C112.715 45.432 112.787 44.968 112.787 44.328V35.136C112.787 34.704 112.795 34.288 112.811 33.888C112.843 33.488 112.867 33.184 112.883 32.976C112.627 32.992 112.307 33.008 111.923 33.024C111.539 33.024 111.259 33.032 111.083 33.048V31.2H123.083L123.227 35.856H121.643C121.643 34.976 121.491 34.312 121.187 33.864C120.883 33.416 120.507 33.12 120.059 32.976C119.611 32.816 119.171 32.744 118.739 32.76L117.875 32.784C117.539 32.784 117.251 32.832 117.011 32.928C116.771 33.008 116.587 33.2 116.459 33.504C116.331 33.792 116.267 34.248 116.267 34.872V38.472H119.075L118.979 36.384H120.827V42.216H119.243ZM125.699 48V46.416C126.163 46.304 126.627 46.048 127.091 45.648C127.555 45.232 128.083 44.632 128.675 43.848L131.459 40.128C130.819 39.312 130.179 38.496 129.539 37.68C128.899 36.864 128.251 36.048 127.595 35.232C127.339 34.896 127.107 34.528 126.899 34.128C126.691 33.712 126.523 33.328 126.395 32.976C126.139 32.992 125.915 33.008 125.723 33.024C125.547 33.024 125.371 33.032 125.195 33.048V31.2H132.491V32.784H132.251C131.755 32.784 131.411 32.856 131.219 33C131.027 33.144 130.955 33.344 131.003 33.6C131.067 33.84 131.219 34.112 131.459 34.416C131.827 34.864 132.187 35.312 132.539 35.76C132.891 36.208 133.243 36.664 133.595 37.128L135.419 34.608C135.755 34.144 136.019 33.808 136.211 33.6C136.419 33.376 136.627 33.168 136.835 32.976C136.579 32.992 136.259 33.008 135.875 33.024C135.491 33.024 135.211 33.032 135.035 33.048V31.2H140.483V32.784C140.115 32.832 139.747 32.96 139.379 33.168C139.027 33.376 138.667 33.672 138.299 34.056C137.931 34.424 137.531 34.904 137.099 35.496L134.795 38.64C135.307 39.28 135.811 39.92 136.307 40.56C136.803 41.2 137.299 41.84 137.795 42.48C138.307 43.12 138.811 43.76 139.307 44.4C139.579 44.736 139.827 45.056 140.051 45.36C140.275 45.664 140.443 45.952 140.555 46.224C140.827 46.192 141.019 46.176 141.131 46.176C141.243 46.16 141.379 46.152 141.539 46.152V48H134.363V46.416C134.955 46.416 135.339 46.344 135.515 46.2C135.691 46.056 135.731 45.864 135.635 45.624C135.555 45.368 135.395 45.088 135.155 44.784C134.755 44.272 134.347 43.76 133.931 43.248C133.531 42.72 133.123 42.2 132.707 41.688C132.355 42.168 132.003 42.656 131.651 43.152C131.299 43.632 130.947 44.112 130.595 44.592C130.259 45.04 130.003 45.376 129.827 45.6C129.651 45.824 129.467 46.032 129.275 46.224C129.547 46.208 129.859 46.192 130.211 46.176C130.563 46.16 130.819 46.152 130.979 46.152V48H125.699ZM155.249 36.624C155.249 35.76 155.129 35.048 154.889 34.488C154.649 33.912 154.305 33.488 153.857 33.216C153.425 32.928 152.905 32.792 152.297 32.808H151.145V44.064C151.145 44.496 151.137 44.912 151.121 45.312C151.105 45.712 151.081 46.016 151.049 46.224C151.321 46.192 151.665 46.176 152.081 46.176C152.513 46.16 152.809 46.152 152.969 46.152V48H145.961V46.416C146.329 46.4 146.633 46.352 146.873 46.272C147.129 46.192 147.321 46.008 147.449 45.72C147.593 45.432 147.665 44.968 147.665 44.328V32.832H146.561C145.649 32.848 144.929 33.16 144.401 33.768C143.873 34.376 143.609 35.328 143.609 36.624H142.025L142.145 31.2H156.689L156.833 36.624H155.249ZM166.442 48.384C164.922 48.384 163.626 48.128 162.554 47.616C161.498 47.104 160.642 46.424 159.986 45.576C159.33 44.712 158.85 43.76 158.546 42.72C158.242 41.68 158.09 40.64 158.09 39.6C158.09 38.592 158.258 37.576 158.594 36.552C158.946 35.512 159.466 34.56 160.154 33.696C160.858 32.832 161.738 32.136 162.794 31.608C163.85 31.08 165.09 30.816 166.514 30.816C167.97 30.816 169.226 31.08 170.282 31.608C171.338 32.136 172.202 32.84 172.874 33.72C173.546 34.584 174.042 35.528 174.362 36.552C174.698 37.576 174.866 38.592 174.866 39.6C174.866 40.592 174.69 41.6 174.338 42.624C174.002 43.648 173.482 44.6 172.778 45.48C172.09 46.344 171.218 47.048 170.162 47.592C169.106 48.12 167.866 48.384 166.442 48.384ZM166.706 46.632C167.538 46.632 168.234 46.432 168.794 46.032C169.354 45.616 169.802 45.08 170.138 44.424C170.474 43.768 170.714 43.056 170.858 42.288C171.002 41.504 171.074 40.744 171.074 40.008C171.074 38.904 170.978 37.896 170.786 36.984C170.594 36.072 170.298 35.288 169.898 34.632C169.498 33.96 168.986 33.448 168.362 33.096C167.754 32.728 167.034 32.552 166.202 32.568C165.386 32.584 164.698 32.808 164.138 33.24C163.578 33.656 163.13 34.2 162.794 34.872C162.458 35.528 162.218 36.248 162.074 37.032C161.93 37.816 161.858 38.576 161.858 39.312C161.858 40.064 161.938 40.864 162.098 41.712C162.274 42.56 162.546 43.36 162.914 44.112C163.282 44.864 163.778 45.472 164.402 45.936C165.026 46.4 165.794 46.632 166.706 46.632ZM184.887 48.384C183.367 48.384 182.071 48.128 180.999 47.616C179.943 47.104 179.087 46.424 178.431 45.576C177.775 44.712 177.295 43.76 176.991 42.72C176.687 41.68 176.535 40.64 176.535 39.6C176.535 38.592 176.703 37.576 177.039 36.552C177.391 35.512 177.911 34.56 178.599 33.696C179.303 32.832 180.183 32.136 181.239 31.608C182.295 31.08 183.535 30.816 184.959 30.816C186.415 30.816 187.671 31.08 188.727 31.608C189.783 32.136 190.647 32.84 191.319 33.72C191.991 34.584 192.487 35.528 192.807 36.552C193.143 37.576 193.311 38.592 193.311 39.6C193.311 40.592 193.135 41.6 192.783 42.624C192.447 43.648 191.927 44.6 191.223 45.48C190.535 46.344 189.663 47.048 188.607 47.592C187.551 48.12 186.311 48.384 184.887 48.384ZM185.151 46.632C185.983 46.632 186.679 46.432 187.239 46.032C187.799 45.616 188.247 45.08 188.583 44.424C188.919 43.768 189.159 43.056 189.303 42.288C189.447 41.504 189.519 40.744 189.519 40.008C189.519 38.904 189.423 37.896 189.231 36.984C189.039 36.072 188.743 35.288 188.343 34.632C187.943 33.96 187.431 33.448 186.807 33.096C186.199 32.728 185.479 32.552 184.647 32.568C183.831 32.584 183.143 32.808 182.583 33.24C182.023 33.656 181.575 34.2 181.239 34.872C180.903 35.528 180.663 36.248 180.519 37.032C180.375 37.816 180.303 38.576 180.303 39.312C180.303 40.064 180.383 40.864 180.543 41.712C180.719 42.56 180.991 43.36 181.359 44.112C181.727 44.864 182.223 45.472 182.847 45.936C183.471 46.4 184.239 46.632 185.151 46.632ZM195.059 48V46.416C195.427 46.4 195.731 46.352 195.971 46.272C196.227 46.192 196.419 46.008 196.547 45.72C196.691 45.432 196.763 44.968 196.763 44.328V35.136C196.763 34.704 196.771 34.288 196.787 33.888C196.819 33.488 196.843 33.184 196.859 32.976C196.603 32.992 196.283 33.008 195.899 33.024C195.515 33.024 195.235 33.032 195.059 33.048V31.2H201.947V32.784C201.595 32.8 201.291 32.848 201.035 32.928C200.779 33.008 200.579 33.192 200.435 33.48C200.307 33.752 200.243 34.216 200.243 34.872V44.064C200.243 44.496 200.235 44.904 200.219 45.288C200.203 45.672 200.179 45.968 200.147 46.176H203.363C204.307 46.16 205.043 45.832 205.571 45.192C206.115 44.536 206.387 43.552 206.387 42.24H207.995L207.851 48H195.059ZM219.24 36.576C219.096 35.68 218.84 34.936 218.472 34.344C218.104 33.736 217.632 33.28 217.056 32.976C216.496 32.672 215.84 32.528 215.088 32.544C214.4 32.544 213.792 32.736 213.264 33.12C212.752 33.504 212.496 34 212.496 34.608C212.496 35.104 212.632 35.536 212.904 35.904C213.192 36.272 213.624 36.616 214.2 36.936C214.776 37.256 215.504 37.6 216.384 37.968C216.992 38.208 217.616 38.488 218.256 38.808C218.896 39.128 219.488 39.512 220.032 39.96C220.576 40.392 221.016 40.904 221.352 41.496C221.688 42.072 221.856 42.752 221.856 43.536C221.856 44.48 221.6 45.32 221.088 46.056C220.576 46.792 219.856 47.368 218.928 47.784C218.016 48.184 216.944 48.384 215.712 48.384C215.072 48.384 214.376 48.28 213.624 48.072C212.888 47.88 212.192 47.592 211.536 47.208L211.608 48.216H209.76V42.6H211.344C211.568 43.944 212.08 44.96 212.88 45.648C213.696 46.32 214.664 46.656 215.784 46.656C216.36 46.656 216.864 46.552 217.296 46.344C217.728 46.136 218.064 45.864 218.304 45.528C218.544 45.176 218.664 44.8 218.664 44.4C218.664 43.84 218.464 43.376 218.064 43.008C217.68 42.64 217.192 42.328 216.6 42.072C216.024 41.816 215.432 41.568 214.824 41.328C214.056 41.008 213.336 40.672 212.664 40.32C212.008 39.952 211.432 39.536 210.936 39.072C210.44 38.608 210.056 38.08 209.784 37.488C209.512 36.88 209.376 36.184 209.376 35.4C209.376 34.904 209.472 34.392 209.664 33.864C209.856 33.32 210.168 32.824 210.6 32.376C211.032 31.912 211.608 31.536 212.328 31.248C213.048 30.96 213.936 30.816 214.992 30.816C215.632 30.816 216.328 30.912 217.08 31.104C217.848 31.296 218.504 31.584 219.048 31.968L218.952 30.984H220.824V36.576H219.24Z" fill="#A9ADBF"/>
</svg>
