<svg width="403" height="153" viewBox="0 0 403 153" fill="none" xmlns="http://www.w3.org/2000/svg">
<g filter="url(#filter0_b_205_49701)">
<g clip-path="url(#clip0_205_49701)">
<rect y="50" width="402" height="103" rx="4" fill="url(#paint0_linear_205_49701)"/>
<g filter="url(#filter1_f_205_49701)">
<circle cx="201" cy="31" r="70" fill="#FDB730"/>
</g>
<path d="M125.368 126.29C123.976 126.29 122.661 126.019 121.424 125.478C120.187 124.937 119.104 124.192 118.176 123.245C117.248 122.278 116.513 121.167 115.972 119.91C115.45 118.634 115.189 117.271 115.189 115.821C115.189 114.371 115.45 113.018 115.972 111.761C116.513 110.504 117.248 109.402 118.176 108.455C119.123 107.488 120.225 106.744 121.482 106.222C122.758 105.681 124.131 105.41 125.6 105.41C127.205 105.41 128.693 105.719 130.066 106.338C131.439 106.957 132.589 107.836 133.517 108.977L131.255 111.239C130.656 110.388 129.853 109.741 128.848 109.296C127.843 108.832 126.76 108.6 125.6 108.6C124.208 108.6 122.98 108.909 121.917 109.528C120.873 110.127 120.061 110.968 119.481 112.051C118.901 113.134 118.611 114.39 118.611 115.821C118.611 117.252 118.901 118.518 119.481 119.62C120.08 120.703 120.883 121.553 121.888 122.172C122.893 122.791 124.034 123.1 125.31 123.1C126.663 123.1 127.823 122.858 128.79 122.375C129.776 121.872 130.53 121.138 131.052 120.171C131.574 119.185 131.835 117.977 131.835 116.546L133.923 118.054H125.252V115.009H135.286V115.473C135.286 117.89 134.851 119.9 133.981 121.505C133.13 123.11 131.961 124.308 130.472 125.101C128.983 125.894 127.282 126.29 125.368 126.29ZM144.55 126.29C143.197 126.29 141.969 125.971 140.867 125.333C139.765 124.676 138.886 123.796 138.228 122.694C137.59 121.592 137.271 120.364 137.271 119.011C137.271 117.658 137.59 116.44 138.228 115.357C138.886 114.274 139.765 113.414 140.867 112.776C141.969 112.119 143.197 111.79 144.55 111.79C145.923 111.79 147.16 112.109 148.262 112.747C149.364 113.385 150.234 114.255 150.872 115.357C151.53 116.44 151.858 117.658 151.858 119.011C151.858 120.364 151.53 121.592 150.872 122.694C150.234 123.796 149.364 124.676 148.262 125.333C147.16 125.971 145.923 126.29 144.55 126.29ZM144.55 123.216C145.343 123.216 146.039 123.042 146.638 122.694C147.257 122.327 147.731 121.824 148.059 121.186C148.407 120.548 148.581 119.823 148.581 119.011C148.581 118.199 148.407 117.484 148.059 116.865C147.711 116.246 147.238 115.763 146.638 115.415C146.039 115.048 145.343 114.864 144.55 114.864C143.777 114.864 143.081 115.048 142.462 115.415C141.863 115.763 141.389 116.246 141.041 116.865C140.713 117.484 140.548 118.199 140.548 119.011C140.548 119.823 140.713 120.548 141.041 121.186C141.389 121.824 141.863 122.327 142.462 122.694C143.081 123.042 143.777 123.216 144.55 123.216ZM160.891 126.29C159.538 126.29 158.31 125.971 157.208 125.333C156.106 124.676 155.227 123.796 154.569 122.694C153.931 121.592 153.612 120.364 153.612 119.011C153.612 117.658 153.931 116.44 154.569 115.357C155.227 114.274 156.106 113.414 157.208 112.776C158.31 112.119 159.538 111.79 160.891 111.79C162.264 111.79 163.501 112.109 164.603 112.747C165.705 113.385 166.575 114.255 167.213 115.357C167.871 116.44 168.199 117.658 168.199 119.011C168.199 120.364 167.871 121.592 167.213 122.694C166.575 123.796 165.705 124.676 164.603 125.333C163.501 125.971 162.264 126.29 160.891 126.29ZM160.891 123.216C161.684 123.216 162.38 123.042 162.979 122.694C163.598 122.327 164.072 121.824 164.4 121.186C164.748 120.548 164.922 119.823 164.922 119.011C164.922 118.199 164.748 117.484 164.4 116.865C164.052 116.246 163.579 115.763 162.979 115.415C162.38 115.048 161.684 114.864 160.891 114.864C160.118 114.864 159.422 115.048 158.803 115.415C158.204 115.763 157.73 116.246 157.382 116.865C157.054 117.484 156.889 118.199 156.889 119.011C156.889 119.823 157.054 120.548 157.382 121.186C157.73 121.824 158.204 122.327 158.803 122.694C159.422 123.042 160.118 123.216 160.891 123.216ZM176.652 132.09C175.183 132.09 173.897 131.819 172.795 131.278C171.693 130.756 170.804 130.012 170.127 129.045L172.215 126.957C172.776 127.653 173.414 128.175 174.129 128.523C174.844 128.871 175.705 129.045 176.71 129.045C177.967 129.045 178.962 128.716 179.697 128.059C180.432 127.421 180.799 126.541 180.799 125.42V121.998L181.35 118.924L180.799 115.821V112.08H183.989V125.42C183.989 126.754 183.68 127.914 183.061 128.9C182.442 129.905 181.582 130.688 180.48 131.249C179.378 131.81 178.102 132.09 176.652 132.09ZM176.507 125.71C175.27 125.71 174.148 125.41 173.143 124.811C172.157 124.192 171.374 123.351 170.794 122.288C170.233 121.225 169.953 120.036 169.953 118.721C169.953 117.406 170.233 116.227 170.794 115.183C171.374 114.139 172.157 113.317 173.143 112.718C174.148 112.099 175.27 111.79 176.507 111.79C177.609 111.79 178.576 112.012 179.407 112.457C180.238 112.902 180.886 113.52 181.35 114.313C181.814 115.086 182.046 115.995 182.046 117.039V120.461C182.046 121.486 181.804 122.394 181.321 123.187C180.857 123.98 180.209 124.598 179.378 125.043C178.547 125.488 177.59 125.71 176.507 125.71ZM177.145 122.694C177.918 122.694 178.595 122.53 179.175 122.201C179.755 121.872 180.2 121.418 180.509 120.838C180.838 120.239 181.002 119.543 181.002 118.75C181.002 117.957 180.838 117.271 180.509 116.691C180.2 116.092 179.755 115.628 179.175 115.299C178.595 114.97 177.918 114.806 177.145 114.806C176.372 114.806 175.685 114.97 175.086 115.299C174.506 115.628 174.052 116.092 173.723 116.691C173.394 117.271 173.23 117.957 173.23 118.75C173.23 119.523 173.394 120.21 173.723 120.809C174.052 121.408 174.506 121.872 175.086 122.201C175.685 122.53 176.372 122.694 177.145 122.694ZM187.533 126V105.12H190.723V126H187.533ZM200.74 126.29C199.348 126.29 198.091 125.981 196.97 125.362C195.868 124.724 194.988 123.854 194.331 122.752C193.693 121.65 193.374 120.413 193.374 119.04C193.374 117.667 193.693 116.44 194.331 115.357C194.969 114.255 195.829 113.385 196.912 112.747C198.014 112.109 199.232 111.79 200.566 111.79C201.861 111.79 203.002 112.09 203.988 112.689C204.993 113.288 205.776 114.11 206.337 115.154C206.917 116.198 207.207 117.387 207.207 118.721C207.207 118.953 207.188 119.195 207.149 119.446C207.13 119.678 207.091 119.939 207.033 120.229H195.607V117.619H205.38L204.191 118.663C204.152 117.812 203.988 117.097 203.698 116.517C203.408 115.937 202.992 115.492 202.451 115.183C201.929 114.874 201.281 114.719 200.508 114.719C199.696 114.719 198.99 114.893 198.391 115.241C197.792 115.589 197.328 116.082 196.999 116.72C196.67 117.339 196.506 118.083 196.506 118.953C196.506 119.823 196.68 120.587 197.028 121.244C197.376 121.901 197.869 122.414 198.507 122.781C199.145 123.129 199.88 123.303 200.711 123.303C201.426 123.303 202.084 123.177 202.683 122.926C203.302 122.675 203.824 122.307 204.249 121.824L206.279 123.883C205.602 124.676 204.781 125.275 203.814 125.681C202.847 126.087 201.823 126.29 200.74 126.29ZM221.979 126.29C220.606 126.29 219.359 125.971 218.238 125.333C217.136 124.695 216.266 123.825 215.628 122.723C214.99 121.621 214.671 120.393 214.671 119.04C214.671 117.667 214.99 116.44 215.628 115.357C216.266 114.255 217.136 113.385 218.238 112.747C219.359 112.109 220.606 111.79 221.979 111.79C223.061 111.79 224.067 112.003 224.995 112.428C225.942 112.834 226.744 113.424 227.402 114.197L225.314 116.314C224.908 115.831 224.415 115.473 223.835 115.241C223.274 114.99 222.655 114.864 221.979 114.864C221.186 114.864 220.48 115.048 219.862 115.415C219.262 115.763 218.789 116.246 218.441 116.865C218.112 117.484 217.948 118.209 217.948 119.04C217.948 119.852 218.112 120.577 218.441 121.215C218.789 121.834 219.262 122.327 219.862 122.694C220.48 123.042 221.186 123.216 221.979 123.216C222.655 123.216 223.274 123.1 223.835 122.868C224.415 122.617 224.908 122.249 225.314 121.766L227.402 123.883C226.744 124.656 225.942 125.256 224.995 125.681C224.067 126.087 223.061 126.29 221.979 126.29ZM229.702 126V105.12H232.892V126H229.702ZM242.822 126.29C241.469 126.29 240.241 125.971 239.139 125.333C238.037 124.676 237.157 123.796 236.5 122.694C235.862 121.592 235.543 120.364 235.543 119.011C235.543 117.658 235.862 116.44 236.5 115.357C237.157 114.274 238.037 113.414 239.139 112.776C240.241 112.119 241.469 111.79 242.822 111.79C244.195 111.79 245.432 112.109 246.534 112.747C247.636 113.385 248.506 114.255 249.144 115.357C249.801 116.44 250.13 117.658 250.13 119.011C250.13 120.364 249.801 121.592 249.144 122.694C248.506 123.796 247.636 124.676 246.534 125.333C245.432 125.971 244.195 126.29 242.822 126.29ZM242.822 123.216C243.615 123.216 244.311 123.042 244.91 122.694C245.529 122.327 246.002 121.824 246.331 121.186C246.679 120.548 246.853 119.823 246.853 119.011C246.853 118.199 246.679 117.484 246.331 116.865C245.983 116.246 245.509 115.763 244.91 115.415C244.311 115.048 243.615 114.864 242.822 114.864C242.049 114.864 241.353 115.048 240.734 115.415C240.135 115.763 239.661 116.246 239.313 116.865C238.984 117.484 238.82 118.199 238.82 119.011C238.82 119.823 238.984 120.548 239.313 121.186C239.661 121.824 240.135 122.327 240.734 122.694C241.353 123.042 242.049 123.216 242.822 123.216ZM258.496 126.29C257.316 126.29 256.263 126.029 255.335 125.507C254.426 124.985 253.711 124.27 253.189 123.361C252.686 122.433 252.435 121.37 252.435 120.171V112.08H255.625V120.026C255.625 120.703 255.731 121.283 255.944 121.766C256.176 122.23 256.504 122.588 256.93 122.839C257.374 123.09 257.896 123.216 258.496 123.216C259.424 123.216 260.129 122.945 260.613 122.404C261.115 121.843 261.367 121.051 261.367 120.026V112.08H264.557V120.171C264.557 121.389 264.296 122.462 263.774 123.39C263.271 124.299 262.565 125.014 261.657 125.536C260.748 126.039 259.694 126.29 258.496 126.29ZM273.593 126.29C272.336 126.29 271.196 125.971 270.171 125.333C269.166 124.695 268.363 123.835 267.764 122.752C267.184 121.65 266.894 120.422 266.894 119.069C266.894 117.696 267.184 116.469 267.764 115.386C268.363 114.284 269.166 113.414 270.171 112.776C271.196 112.119 272.336 111.79 273.593 111.79C274.656 111.79 275.594 112.022 276.406 112.486C277.237 112.931 277.895 113.549 278.378 114.342C278.861 115.135 279.103 116.034 279.103 117.039V121.041C279.103 122.046 278.861 122.945 278.378 123.738C277.914 124.531 277.266 125.159 276.435 125.623C275.604 126.068 274.656 126.29 273.593 126.29ZM274.115 123.274C274.908 123.274 275.594 123.1 276.174 122.752C276.773 122.385 277.237 121.882 277.566 121.244C277.895 120.606 278.059 119.871 278.059 119.04C278.059 118.209 277.895 117.474 277.566 116.836C277.237 116.198 276.773 115.705 276.174 115.357C275.594 114.99 274.908 114.806 274.115 114.806C273.342 114.806 272.655 114.99 272.056 115.357C271.476 115.705 271.012 116.198 270.664 116.836C270.335 117.474 270.171 118.209 270.171 119.04C270.171 119.871 270.335 120.606 270.664 121.244C271.012 121.882 271.476 122.385 272.056 122.752C272.655 123.1 273.342 123.274 274.115 123.274ZM281.046 126H277.856V122.259L278.407 118.866L277.856 115.502V105.12H281.046V126Z" fill="white"/>
</g>
</g>
<g filter="url(#filter2_d_205_49701)">
<path d="M206.5 94C232.181 94 253 73.1812 253 47.5C253 21.8188 232.181 1 206.5 1C180.819 1 160 21.8188 160 47.5C160 73.1812 180.819 94 206.5 94Z" fill="black"/>
</g>
<path d="M206.5 94C232.181 94 253 73.1812 253 47.5C253 21.8188 232.181 1 206.5 1C180.819 1 160 21.8188 160 47.5C160 73.1812 180.819 94 206.5 94Z" fill="#ADADAD"/>
<path d="M206.562 90.0053C230.003 90.0053 249.005 71.0029 249.005 47.5623C249.005 24.1217 230.003 5.11938 206.562 5.11938C183.122 5.11938 164.119 24.1217 164.119 47.5623C164.119 71.0029 183.122 90.0053 206.562 90.0053Z" fill="white"/>
<path style="mix-blend-mode:soft-light" d="M206.5 94C232.181 94 253 73.1812 253 47.5C253 21.8188 232.181 1 206.5 1C180.819 1 160 21.8188 160 47.5C160 73.1812 180.819 94 206.5 94Z" fill="url(#paint1_linear_205_49701)"/>
<g clip-path="url(#clip1_205_49701)">
<path d="M197.508 21.8419C191.913 23.783 187.087 27.4672 183.741 32.3533C180.394 37.2395 178.703 43.0701 178.915 48.9887C179.127 54.9072 181.231 60.6019 184.918 65.2361C188.606 69.8703 193.683 73.1999 199.402 74.7357C204.04 75.9322 208.898 75.9848 213.56 74.8888C217.783 73.9402 221.688 71.911 224.891 69.0001C228.225 65.8778 230.645 61.9059 231.891 57.5113C233.245 52.7323 233.486 47.7067 232.596 42.8201H206.556V53.6219H221.636C221.335 55.3447 220.689 56.9891 219.737 58.4564C218.786 59.9238 217.548 61.1841 216.097 62.1619C214.256 63.3805 212.18 64.2002 210.003 64.5682C207.82 64.9743 205.58 64.9743 203.397 64.5682C201.184 64.1111 199.09 63.1978 197.25 61.8863C194.293 59.7932 192.073 56.8197 190.906 53.3901C189.72 49.8961 189.72 46.1084 190.906 42.6144C191.737 40.1654 193.11 37.9355 194.922 36.0913C196.997 33.9421 199.624 32.4058 202.514 31.651C205.404 30.8962 208.446 30.9521 211.307 31.8126C213.542 32.4982 215.585 33.6968 217.274 35.3126C218.975 33.6209 220.672 31.9248 222.367 30.2244C223.242 29.3101 224.196 28.4394 225.057 27.5032C222.479 25.1036 219.452 23.2363 216.15 22.0082C210.137 19.825 203.559 19.7663 197.508 21.8419Z" fill="white"/>
<path d="M197.508 21.8419C203.558 19.7649 210.137 19.822 216.15 22.0037C219.452 23.2402 222.478 25.1165 225.053 27.525C224.178 28.4612 223.255 29.3362 222.363 30.2462C220.665 31.9408 218.969 33.6296 217.274 35.3125C215.585 33.6967 213.542 32.4981 211.307 31.8125C208.447 30.949 205.405 30.8899 202.514 31.6416C199.623 32.3933 196.995 33.9268 194.918 36.0737C193.105 37.918 191.732 40.1478 190.902 42.5969L181.833 35.575C185.079 29.1374 190.7 24.2132 197.508 21.8419Z" fill="#E33629"/>
<path d="M179.426 42.5312C179.913 40.1152 180.723 37.7755 181.833 35.575L190.902 42.6143C189.716 46.1083 189.716 49.896 190.902 53.39C187.88 55.7233 184.857 58.0683 181.833 60.425C179.055 54.8963 178.208 48.5971 179.426 42.5312Z" fill="#F8BD00"/>
<path d="M206.556 42.8157H232.596C233.486 47.7023 233.245 52.7279 231.891 57.5069C230.645 61.9015 228.225 65.8734 224.891 68.9957C221.964 66.7119 219.024 64.4457 216.097 62.1619C217.549 61.1831 218.787 59.9215 219.739 58.4525C220.691 56.9835 221.336 55.3376 221.636 53.6132H206.556C206.551 50.0169 206.556 46.4163 206.556 42.8157Z" fill="#587DBD"/>
<path d="M181.828 60.4249C184.853 58.0916 187.876 55.7466 190.897 53.3899C192.067 56.8208 194.29 59.7944 197.25 61.8861C199.096 63.1915 201.194 64.0975 203.41 64.5461C205.593 64.9522 207.833 64.9522 210.016 64.5461C212.193 64.1781 214.269 63.3585 216.111 62.1399C219.038 64.4236 221.977 66.6899 224.904 68.9736C221.701 71.8862 217.797 73.9169 213.573 74.8668C208.911 75.9627 204.053 75.9102 199.416 74.7136C195.748 73.7344 192.322 72.0081 189.353 69.643C186.211 67.1476 183.644 64.0033 181.828 60.4249Z" fill="#319F43"/>
</g>
<defs>
<filter id="filter0_b_205_49701" x="-200" y="-150" width="802" height="503" filterUnits="userSpaceOnUse" color-interpolation-filters="sRGB">
<feFlood flood-opacity="0" result="BackgroundImageFix"/>
<feGaussianBlur in="BackgroundImageFix" stdDeviation="100"/>
<feComposite in2="SourceAlpha" operator="in" result="effect1_backgroundBlur_205_49701"/>
<feBlend mode="normal" in="SourceGraphic" in2="effect1_backgroundBlur_205_49701" result="shape"/>
</filter>
<filter id="filter1_f_205_49701" x="1" y="-169" width="400" height="400" filterUnits="userSpaceOnUse" color-interpolation-filters="sRGB">
<feFlood flood-opacity="0" result="BackgroundImageFix"/>
<feBlend mode="normal" in="SourceGraphic" in2="BackgroundImageFix" result="shape"/>
<feGaussianBlur stdDeviation="65" result="effect1_foregroundBlur_205_49701"/>
</filter>
<filter id="filter2_d_205_49701" x="159" y="0.5" width="95" height="95" filterUnits="userSpaceOnUse" color-interpolation-filters="sRGB">
<feFlood flood-opacity="0" result="BackgroundImageFix"/>
<feColorMatrix in="SourceAlpha" type="matrix" values="0 0 0 0 0 0 0 0 0 0 0 0 0 0 0 0 0 0 127 0" result="hardAlpha"/>
<feOffset dy="0.5"/>
<feGaussianBlur stdDeviation="0.5"/>
<feComposite in2="hardAlpha" operator="out"/>
<feColorMatrix type="matrix" values="0 0 0 0 0 0 0 0 0 0 0 0 0 0 0 0 0 0 0.199474 0"/>
<feBlend mode="normal" in2="BackgroundImageFix" result="effect1_dropShadow_205_49701"/>
<feBlend mode="normal" in="SourceGraphic" in2="effect1_dropShadow_205_49701" result="shape"/>
</filter>
<linearGradient id="paint0_linear_205_49701" x1="231.661" y1="21.1476" x2="227.094" y2="178.405" gradientUnits="userSpaceOnUse">
<stop stop-color="#FFFDFD" stop-opacity="0.4"/>
<stop offset="0.0001" stop-color="#FFFDFD" stop-opacity="0.2"/>
<stop offset="1" stop-color="white" stop-opacity="0"/>
</linearGradient>
<linearGradient id="paint1_linear_205_49701" x1="4810" y1="1" x2="4810" y2="9301" gradientUnits="userSpaceOnUse">
<stop stop-color="white" stop-opacity="0.5"/>
<stop offset="1" stop-opacity="0.5"/>
</linearGradient>
<clipPath id="clip0_205_49701">
<rect y="50" width="402" height="103" rx="4" fill="white"/>
</clipPath>
<clipPath id="clip1_205_49701">
<rect width="56" height="56" fill="white" transform="translate(178 20)"/>
</clipPath>
</defs>
</svg>
