<svg xmlns="http://www.w3.org/2000/svg" width="40" height="40" viewBox="0 0 49 49" fill="none"><path d="M24.5 31.25C28.454 31.25 31.6593 28.228 31.6593 24.5C31.6593 20.7721 28.454 17.75 24.5 17.75C20.5459 17.75 17.3406 20.7721 17.3406 24.5C17.3406 28.228 20.5459 31.25 24.5 31.25Z" stroke="#00C4F4" stroke-width="2.9375"></path><path d="M4.5993 21.44C5.72809 22.106 6.45358 23.2445 6.45358 24.5C6.45358 25.7555 5.72809 26.894 4.5993 27.56C3.83324 28.0167 3.33686 28.379 2.98605 28.811C2.60443 29.28 2.32455 29.8153 2.1624 30.3862C2.00025 30.9572 1.959 31.5527 2.04101 32.1388C2.16511 33.0253 2.72115 33.9343 3.83086 35.75C4.94533 37.5657 5.50138 38.4725 6.25312 39.0192C6.75054 39.379 7.31828 39.6429 7.92389 39.7958C8.5295 39.9487 9.16113 39.9876 9.78269 39.9103C10.3554 39.8383 10.9354 39.6178 11.7372 39.2173C12.3111 38.9212 12.9553 38.7675 13.6095 38.7706C14.2636 38.7738 14.9062 38.9337 15.4768 39.2352C16.6295 39.8652 17.3144 41.024 17.3621 42.2795C17.3955 43.1345 17.4814 43.7195 17.7034 44.2212C17.9432 44.7676 18.295 45.264 18.7384 45.6821C19.1819 46.1002 19.7084 46.4318 20.2879 46.658C21.1637 47 22.2758 47 24.5 47C26.7242 47 27.8363 47 28.7121 46.658C29.2916 46.4318 29.8181 46.1002 30.2616 45.6821C30.705 45.264 31.0568 44.7676 31.2966 44.2212C31.5162 43.7195 31.6045 43.1345 31.6379 42.2795C31.6856 41.024 32.3705 39.863 33.5232 39.2352C34.0938 38.9337 34.7364 38.7738 35.3905 38.7706C36.0447 38.7675 36.6889 38.9212 37.2628 39.2173C38.0646 39.6178 38.6469 39.8383 39.2197 39.9103C40.4742 40.0658 41.7429 39.7453 42.7469 39.0192C43.4986 38.4747 44.0547 37.5657 45.1668 35.75C45.6631 34.94 46.0474 34.3123 46.3337 33.7858M44.4007 27.5623C43.842 27.2421 43.3787 26.7933 43.0544 26.2581C42.73 25.7228 42.5552 25.1186 42.5464 24.5023C42.5464 23.2445 43.2719 22.106 44.4007 21.4377C45.1668 20.9832 45.6608 20.621 46.0139 20.189C46.3956 19.72 46.6754 19.1847 46.8376 18.6138C46.9998 18.0428 47.041 17.4473 46.959 16.8612C46.8349 15.9747 46.2788 15.0657 45.1691 13.25C44.0547 11.4343 43.4986 10.5275 42.7469 9.98075C42.2495 9.62095 41.6817 9.35708 41.0761 9.2042C40.4705 9.05132 39.8389 9.01243 39.2173 9.08975C38.6446 9.16175 38.0646 9.38225 37.2604 9.78275C36.6869 10.0784 36.043 10.2319 35.3893 10.2288C34.7357 10.2256 34.0935 10.0659 33.5232 9.76475C32.9611 9.44954 32.4932 9.00479 32.1634 8.47228C31.8336 7.93977 31.6528 7.33698 31.6379 6.7205C31.6045 5.8655 31.5186 5.2805 31.2966 4.77875C31.0568 4.23241 30.705 3.73599 30.2616 3.31788C29.8181 2.89976 29.2916 2.56815 28.7121 2.342C27.8363 2 26.7242 2 24.5 2C22.2758 2 21.1637 2 20.2879 2.342C19.7084 2.56815 19.1819 2.89976 18.7384 3.31788C18.295 3.73599 17.9432 4.23241 17.7034 4.77875C17.4838 5.2805 17.3955 5.8655 17.3621 6.7205C17.3472 7.33698 17.1664 7.93977 16.8366 8.47228C16.5068 9.00479 16.0389 9.44954 15.4768 9.76475C14.9062 10.0663 14.2636 10.2262 13.6095 10.2294C12.9553 10.2325 12.3111 10.0788 11.7372 9.78275C10.9354 9.38225 10.3531 9.16175 9.78031 9.08975C8.52579 8.93421 7.2571 9.25469 6.25312 9.98075C5.50377 10.5275 4.94533 11.4343 3.83324 13.25C3.33686 14.06 2.95264 14.6878 2.66626 15.2143" stroke="#00C4F4" stroke-width="2.9375" stroke-linecap="round"></path></svg>