<svg width="40" height="40" viewBox="0 0 65 65" fill="none" xmlns="http://www.w3.org/2000/svg"><path d="M33 13C27.6969 13 22.6062 15.1084 18.8594 18.8578C15.1086 22.6087 13.001 27.6956 13 33C13 38.3022 15.1094 43.3928 18.8594 47.1422C22.6062 50.8916 27.6969 53 33 53C38.3031 53 43.3937 50.8916 47.1406 47.1422C50.8906 43.3928 53 38.3022 53 33C53 27.6978 50.8906 22.6072 47.1406 18.8578C43.3937 15.1084 38.3031 13 33 13Z" fill="#878693"></path><path d="M21.5809 32.749C27.7561 30.209 31.8729 28.5343 33.9313 27.7253C39.8152 25.415 41.0364 25.0137 41.8339 25.0001C42.0093 24.9975 42.3998 25.0384 42.6546 25.2329C42.8664 25.397 42.926 25.6189 42.9558 25.7746C42.9822 25.9303 43.0186 26.285 42.9889 26.5618C42.6712 29.7243 41.2912 37.3986 40.5896 40.9408C40.2951 42.4395 39.7093 42.942 39.1434 42.9911C37.9124 43.098 36.9791 42.2236 35.7878 41.4864C33.9246 40.3323 32.8723 39.6142 31.0621 38.4883C28.9706 37.1871 30.3274 36.4718 31.5188 35.303C31.8298 34.9971 37.2505 30.3424 37.3531 29.9202C37.3663 29.8674 37.3796 29.6706 37.2538 29.5668C37.1314 29.4627 36.9494 29.4984 36.817 29.5265C36.6284 29.5665 33.6533 31.4252 27.8818 35.1024C27.038 35.6505 26.2735 35.9177 25.5852 35.9036C24.8306 35.8883 23.3745 35.4999 22.2924 35.168C20.9687 34.7608 19.913 34.5455 20.0057 33.854C20.052 33.494 20.5782 33.1255 21.5809 32.749Z" fill="white"></path><circle cx="32.5" cy="32.5" r="31.75" stroke="#00C4F4" stroke-width="1.5"></circle></svg>