<svg width="1405" height="569" viewBox="0 0 1405 569" fill="none" xmlns="http://www.w3.org/2000/svg">
<rect x="1214.07" y="199.652" width="84.4586" height="23.5376" fill="url(#paint0_linear_49_17436)"/>
<path fill-rule="evenodd" clip-rule="evenodd" d="M1217.13 237.035C1215.44 237.035 1214.07 238.405 1214.07 240.096V282.331C1214.07 283.376 1214.61 284.348 1215.49 284.91L1239.48 300.243C1239.97 300.558 1240.54 300.725 1241.12 300.725H1400.7C1402.39 300.725 1403.76 299.354 1403.76 297.664V258.477C1403.76 257.418 1403.21 256.434 1402.31 255.876L1372.66 237.494C1372.18 237.194 1371.62 237.035 1371.05 237.035H1217.13ZM1218.97 240.573C1217.28 240.573 1215.91 241.944 1215.91 243.635V279.724C1215.91 280.799 1216.47 281.796 1217.39 282.349L1239.44 295.571C1239.92 295.857 1240.46 296.007 1241.02 296.007H1388.78C1390.48 296.007 1391.85 294.637 1391.85 292.946V259.514C1391.85 258.424 1391.27 257.416 1390.32 256.868L1363.03 240.989C1362.56 240.717 1362.03 240.573 1361.49 240.573H1218.97Z" fill="#2A5642"/>
<path d="M1241.46 270.017V269.574C1241.46 269.264 1241.62 269.109 1241.93 269.109H1243.81C1244.12 269.109 1244.28 269.264 1244.28 269.574V269.751C1244.28 270.312 1244.39 270.696 1244.61 270.903C1244.83 271.11 1245.24 271.213 1245.83 271.213H1246.87C1247.45 271.213 1247.84 271.103 1248.07 270.881C1248.3 270.659 1248.42 270.246 1248.42 269.64V269.375C1248.42 268.946 1248.24 268.621 1247.89 268.4C1247.55 268.164 1247.12 268.023 1246.6 267.979C1246.09 267.935 1245.53 267.853 1244.92 267.735C1244.33 267.602 1243.78 267.44 1243.26 267.248C1242.74 267.041 1242.31 266.65 1241.95 266.074C1241.61 265.483 1241.44 264.73 1241.44 263.814V263.039C1241.44 261.887 1241.77 260.993 1242.42 260.358C1243.07 259.723 1243.97 259.406 1245.12 259.406H1247.33C1248.5 259.406 1249.41 259.723 1250.06 260.358C1250.71 260.993 1251.03 261.887 1251.03 263.039V263.46C1251.03 263.77 1250.88 263.925 1250.57 263.925H1248.69C1248.38 263.925 1248.22 263.77 1248.22 263.46V263.327C1248.22 262.751 1248.11 262.359 1247.89 262.153C1247.67 261.946 1247.26 261.843 1246.67 261.843H1245.81C1245.2 261.843 1244.79 261.961 1244.57 262.197C1244.36 262.419 1244.26 262.862 1244.26 263.526V263.947C1244.26 264.641 1244.86 265.04 1246.07 265.143C1247.33 265.247 1248.44 265.498 1249.42 265.897C1249.93 266.118 1250.36 266.517 1250.7 267.093C1251.06 267.654 1251.23 268.378 1251.23 269.264V270.017C1251.23 271.169 1250.91 272.063 1250.26 272.698C1249.61 273.333 1248.71 273.65 1247.56 273.65H1245.14C1243.99 273.65 1243.09 273.333 1242.44 272.698C1241.79 272.063 1241.46 271.169 1241.46 270.017ZM1261.87 273.65H1256.97C1255.81 273.65 1254.91 273.34 1254.27 272.72C1253.64 272.099 1253.32 271.206 1253.32 270.039V265.963C1253.32 264.796 1253.64 263.903 1254.27 263.283C1254.91 262.662 1255.81 262.352 1256.97 262.352H1258.72C1259.89 262.352 1260.79 262.662 1261.43 263.283C1262.06 263.903 1262.38 264.796 1262.38 265.963V268.776C1262.38 269.087 1262.22 269.242 1261.91 269.242H1256.35C1256.18 269.242 1256.09 269.323 1256.09 269.485V269.973C1256.09 270.431 1256.18 270.763 1256.37 270.97C1256.58 271.162 1256.92 271.258 1257.39 271.258H1261.87C1262.18 271.258 1262.33 271.42 1262.33 271.745V273.207C1262.33 273.37 1262.3 273.488 1262.22 273.562C1262.16 273.621 1262.05 273.65 1261.87 273.65ZM1256.35 267.359H1259.37C1259.53 267.359 1259.61 267.277 1259.61 267.115V266.052C1259.61 265.579 1259.51 265.247 1259.32 265.055C1259.13 264.863 1258.8 264.767 1258.32 264.767H1257.39C1256.92 264.767 1256.59 264.863 1256.4 265.055C1256.2 265.247 1256.11 265.579 1256.11 266.052V267.115C1256.11 267.277 1256.19 267.359 1256.35 267.359ZM1266.94 273.65H1265.06C1264.75 273.65 1264.6 273.495 1264.6 273.185V258.542C1264.6 258.232 1264.75 258.077 1265.06 258.077H1266.94C1267.26 258.077 1267.41 258.232 1267.41 258.542V273.185C1267.41 273.495 1267.26 273.65 1266.94 273.65ZM1272.42 273.65H1270.54C1270.23 273.65 1270.07 273.495 1270.07 273.185V258.542C1270.07 258.232 1270.23 258.077 1270.54 258.077H1272.42C1272.73 258.077 1272.88 258.232 1272.88 258.542V273.185C1272.88 273.495 1272.73 273.65 1272.42 273.65ZM1284.93 273.65H1283.07C1282.74 273.65 1282.58 273.495 1282.58 273.185V262.086C1282.58 261.924 1282.5 261.843 1282.34 261.843H1279.81C1279.5 261.843 1279.35 261.687 1279.35 261.377V259.871C1279.35 259.561 1279.5 259.406 1279.81 259.406H1288.19C1288.5 259.406 1288.65 259.561 1288.65 259.871V261.377C1288.65 261.687 1288.5 261.843 1288.19 261.843H1285.66C1285.48 261.843 1285.4 261.924 1285.4 262.086V273.185C1285.4 273.495 1285.24 273.65 1284.93 273.65ZM1294.09 273.65H1293.56C1292.39 273.65 1291.49 273.34 1290.85 272.72C1290.22 272.099 1289.9 271.206 1289.9 270.039V265.963C1289.9 264.796 1290.22 263.903 1290.85 263.283C1291.49 262.662 1292.39 262.352 1293.56 262.352H1298.67C1299 262.352 1299.16 262.507 1299.16 262.817V273.185C1299.16 273.495 1299 273.65 1298.67 273.65H1296.81C1296.5 273.65 1296.35 273.495 1296.35 273.185V272.454H1296.26C1296.1 272.853 1295.81 273.155 1295.39 273.362C1294.98 273.554 1294.55 273.65 1294.09 273.65ZM1296.35 269.53V265.033C1296.35 264.87 1296.26 264.789 1296.08 264.789H1294C1293.53 264.789 1293.19 264.892 1293 265.099C1292.81 265.291 1292.71 265.623 1292.71 266.096V269.906C1292.71 270.379 1292.81 270.719 1293 270.925C1293.19 271.117 1293.53 271.213 1294 271.213H1294.82C1295.84 271.213 1296.35 270.652 1296.35 269.53ZM1303.4 273.65H1301.17C1300.78 273.65 1300.68 273.495 1300.86 273.185L1303.65 267.89L1300.86 262.817C1300.71 262.507 1300.8 262.352 1301.12 262.352H1303.38C1303.74 262.352 1303.97 262.507 1304.07 262.817L1305.46 266.185H1305.55L1306.77 262.817C1306.88 262.507 1307.1 262.352 1307.46 262.352H1309.67C1310.06 262.352 1310.15 262.507 1309.96 262.817L1307.3 267.89L1310.16 273.185C1310.24 273.318 1310.24 273.429 1310.18 273.517C1310.14 273.606 1310.04 273.65 1309.9 273.65H1307.61C1307.3 273.65 1307.08 273.495 1306.95 273.185L1305.55 269.796H1305.46L1304.07 273.185C1303.97 273.495 1303.74 273.65 1303.4 273.65ZM1314.28 262.773V265.498C1314.28 265.808 1314.14 265.963 1313.86 265.963H1311.89C1311.59 265.963 1311.44 265.793 1311.44 265.454V262.795C1311.44 262.5 1311.59 262.352 1311.89 262.352H1313.86C1314.14 262.352 1314.28 262.492 1314.28 262.773ZM1314.28 270.46V273.185C1314.28 273.495 1314.14 273.65 1313.86 273.65H1311.89C1311.59 273.65 1311.44 273.488 1311.44 273.163V270.482C1311.44 270.187 1311.59 270.039 1311.89 270.039H1313.86C1314.14 270.039 1314.28 270.18 1314.28 270.46ZM1326.04 266.406H1325C1324.61 266.406 1324.32 266.561 1324.11 266.871C1323.92 267.181 1323.71 267.337 1323.49 267.337H1321.65C1321.34 267.337 1321.19 267.189 1321.19 266.893V259.871C1321.19 259.561 1321.34 259.406 1321.65 259.406H1329.36C1329.67 259.406 1329.83 259.561 1329.83 259.871V261.555C1329.83 261.865 1329.67 262.02 1329.36 262.02H1324V265.276C1324.25 264.538 1324.87 264.169 1325.86 264.169H1326.79C1329.08 264.169 1330.23 265.313 1330.23 267.602V270.039C1330.23 271.191 1329.91 272.085 1329.27 272.72C1328.64 273.34 1327.75 273.65 1326.59 273.65H1324.64C1323.48 273.65 1322.58 273.34 1321.94 272.72C1321.31 272.099 1320.99 271.206 1320.99 270.039V269.596C1320.99 269.271 1321.14 269.109 1321.45 269.109H1323.34C1323.65 269.109 1323.8 269.271 1323.8 269.596V270.017C1323.8 270.475 1323.9 270.807 1324.09 271.014C1324.3 271.206 1324.63 271.302 1325.09 271.302H1326.13C1326.6 271.302 1326.95 271.206 1327.17 271.014C1327.39 270.807 1327.5 270.475 1327.5 270.017V268.023C1327.5 267.403 1327.4 266.982 1327.19 266.761C1326.98 266.524 1326.6 266.406 1326.04 266.406ZM1343.76 268.444H1343.25C1342.92 268.444 1342.7 268.511 1342.58 268.644C1342.47 268.762 1342.41 268.976 1342.41 269.286V271.213C1342.41 271.538 1342.47 271.767 1342.58 271.9C1342.7 272.018 1342.92 272.077 1343.25 272.077H1343.76C1344.07 272.077 1344.28 272.011 1344.4 271.878C1344.53 271.745 1344.6 271.523 1344.6 271.213V269.286C1344.6 268.976 1344.54 268.762 1344.42 268.644C1344.31 268.511 1344.08 268.444 1343.76 268.444ZM1342.83 266.871H1344.14C1344.9 266.871 1345.49 267.071 1345.89 267.469C1346.28 267.868 1346.48 268.444 1346.48 269.197V271.324C1346.48 272.077 1346.28 272.653 1345.89 273.052C1345.49 273.451 1344.9 273.65 1344.14 273.65H1342.83C1342.07 273.65 1341.49 273.451 1341.08 273.052C1340.68 272.653 1340.48 272.077 1340.48 271.324V269.197C1340.48 268.444 1340.68 267.868 1341.08 267.469C1341.49 267.071 1342.07 266.871 1342.83 266.871ZM1335.56 260.956H1335.05C1334.73 260.956 1334.51 261.023 1334.39 261.156C1334.27 261.274 1334.21 261.495 1334.21 261.82V263.748C1334.21 264.058 1334.27 264.279 1334.39 264.412C1334.51 264.53 1334.73 264.59 1335.05 264.59H1335.56C1335.89 264.59 1336.11 264.53 1336.23 264.412C1336.34 264.279 1336.4 264.058 1336.4 263.748V261.82C1336.4 261.51 1336.34 261.289 1336.2 261.156C1336.09 261.023 1335.87 260.956 1335.56 260.956ZM1334.65 259.384H1335.96C1336.73 259.384 1337.31 259.583 1337.71 259.982C1338.11 260.38 1338.31 260.956 1338.31 261.71V263.836C1338.31 264.59 1338.11 265.166 1337.71 265.564C1337.31 265.963 1336.73 266.162 1335.96 266.162H1334.65C1333.9 266.162 1333.32 265.963 1332.9 265.564C1332.5 265.166 1332.31 264.59 1332.31 263.836V261.71C1332.31 260.956 1332.5 260.38 1332.9 259.982C1333.32 259.583 1333.9 259.384 1334.65 259.384ZM1337.2 273.65H1336.05C1335.71 273.65 1335.6 273.495 1335.72 273.185C1336.19 271.974 1337.07 269.759 1338.35 266.539C1339.64 263.305 1340.52 261.082 1340.99 259.871C1341.12 259.561 1341.31 259.406 1341.57 259.406H1342.74C1343.08 259.406 1343.19 259.561 1343.07 259.871L1337.8 273.185C1337.68 273.495 1337.48 273.65 1337.2 273.65Z" fill="#00C4F4"/>
<path d="M909.269 289.562H1027.89L1067.07 262.355H1167.2" stroke="#2A5642" stroke-width="2.1766" stroke-linecap="round"/>
<path d="M1180.72 273.657C1178.23 273.657 1175.72 272.836 1173.62 271.169C1168.74 267.257 1167.94 260.085 1171.86 255.183C1175.77 250.28 1182.94 249.508 1187.82 253.42C1190.19 255.327 1191.68 258.032 1192 261.027C1192.34 264.045 1191.47 267.016 1189.58 269.382C1187.34 272.184 1184.05 273.657 1180.72 273.657ZM1173.74 256.704C1170.65 260.544 1171.28 266.195 1175.14 269.286C1178.98 272.377 1184.63 271.749 1187.72 267.885C1189.22 266.026 1189.9 263.683 1189.63 261.316C1189.37 258.95 1188.21 256.801 1186.32 255.327C1182.46 252.212 1176.83 252.84 1173.74 256.704Z" fill="#CCCCCC" fill-opacity="0.5"/>
<path d="M1186.42 262.283C1186.42 265.422 1183.86 267.982 1180.72 267.982C1177.58 267.982 1175.02 265.422 1175.02 262.283C1175.02 259.143 1177.58 256.584 1180.72 256.584C1183.86 256.584 1186.42 259.143 1186.42 262.283Z" fill="#CCCCCC" fill-opacity="0.5"/>
<path d="M863.059 424.867H955.564L994.743 515.74H1106.84" stroke="#9C00D3" stroke-width="2.1766" stroke-linecap="round"/>
<path d="M549.01 420.535H456.505L417.326 511.408H305.231" stroke="#9C00D3" stroke-width="2.1766" stroke-linecap="round"/>
<path d="M1118.18 527.586C1115.7 527.586 1113.19 526.765 1111.08 525.099C1106.21 521.186 1105.41 514.014 1109.32 509.112C1113.23 504.21 1120.41 503.437 1125.28 507.349C1127.65 509.257 1129.15 511.961 1129.46 514.956C1129.8 517.975 1128.93 520.945 1127.05 523.312C1124.8 526.113 1121.52 527.586 1118.18 527.586ZM1111.21 510.633C1108.11 514.473 1108.74 520.124 1112.61 523.215C1116.45 526.306 1122.1 525.678 1125.19 521.814C1126.69 519.955 1127.36 517.612 1127.1 515.246C1126.83 512.879 1125.67 510.73 1123.79 509.257C1119.92 506.142 1114.3 506.769 1111.21 510.633Z" fill="#CCCCCC" fill-opacity="0.5"/>
<path d="M1123.88 516.212C1123.88 519.351 1121.32 521.911 1118.18 521.911C1115.04 521.911 1112.48 519.351 1112.48 516.212C1112.48 513.073 1115.04 510.513 1118.18 510.513C1121.32 510.513 1123.88 513.073 1123.88 516.212Z" fill="#CCCCCC" fill-opacity="0.5"/>
<path d="M293.884 523.254C296.371 523.254 298.883 522.433 300.984 520.766C305.862 516.854 306.659 509.682 302.747 504.78C298.834 499.877 291.662 499.105 286.784 503.017C284.417 504.924 282.92 507.629 282.606 510.624C282.268 513.642 283.138 516.613 285.021 518.979C287.267 521.781 290.551 523.254 293.884 523.254ZM300.863 506.301C303.954 510.141 303.326 515.792 299.462 518.883C295.623 521.974 289.972 521.346 286.881 517.482C285.383 515.623 284.707 513.28 284.973 510.913C285.239 508.547 286.398 506.398 288.281 504.924C292.145 501.809 297.772 502.437 300.863 506.301Z" fill="#CCCCCC" fill-opacity="0.5"/>
<path d="M288.185 511.88C288.185 515.019 290.745 517.579 293.885 517.579C297.024 517.579 299.584 515.019 299.584 511.88C299.584 508.74 297.024 506.18 293.885 506.18C290.745 506.18 288.185 508.74 288.185 511.88Z" fill="#CCCCCC" fill-opacity="0.5"/>
<rect x="1154.65" y="444.464" width="84.4586" height="23.5376" fill="url(#paint1_linear_49_17436)"/>
<path fill-rule="evenodd" clip-rule="evenodd" d="M1157.71 481.846C1156.02 481.846 1154.65 483.217 1154.65 484.908V526.973C1154.65 528.109 1155.28 529.151 1156.29 529.681L1185.68 545.183C1186.12 545.415 1186.61 545.537 1187.11 545.537H1381.43C1383.12 545.537 1384.49 544.166 1384.49 542.475V503.457C1384.49 502.308 1383.85 501.256 1382.82 500.732L1346.57 482.183C1346.14 481.962 1345.66 481.846 1345.18 481.846H1157.71ZM1159.93 485.385C1158.24 485.385 1156.87 486.755 1156.87 488.446V524.368C1156.87 525.532 1157.53 526.595 1158.58 527.112L1185.63 540.501C1186.05 540.71 1186.52 540.819 1186.99 540.819H1367C1368.69 540.819 1370.06 539.448 1370.06 537.758V504.491C1370.06 503.314 1369.38 502.241 1368.32 501.731L1334.9 485.686C1334.49 485.488 1334.04 485.385 1333.58 485.385H1159.93Z" fill="#9C00D3"/>
<path d="M1182.65 519.846H1180.79C1180.47 519.846 1180.31 519.691 1180.31 519.381V508.282C1180.31 508.12 1180.22 508.039 1180.06 508.039H1177.54C1177.23 508.039 1177.07 507.884 1177.07 507.573V506.067C1177.07 505.757 1177.23 505.602 1177.54 505.602H1185.91C1186.22 505.602 1186.38 505.757 1186.38 506.067V507.573C1186.38 507.884 1186.22 508.039 1185.91 508.039H1183.38C1183.21 508.039 1183.12 508.12 1183.12 508.282V519.381C1183.12 519.691 1182.96 519.846 1182.65 519.846ZM1193.25 519.846H1191.28C1190.11 519.846 1189.21 519.536 1188.58 518.916C1187.94 518.295 1187.62 517.402 1187.62 516.235V512.159C1187.62 510.992 1187.94 510.099 1188.58 509.479C1189.21 508.858 1190.11 508.548 1191.28 508.548H1193.25C1194.4 508.548 1195.3 508.866 1195.93 509.501C1196.58 510.121 1196.91 511.007 1196.91 512.159V516.235C1196.91 517.387 1196.58 518.281 1195.93 518.916C1195.3 519.536 1194.4 519.846 1193.25 519.846ZM1191.7 517.432H1192.83C1193.3 517.432 1193.63 517.336 1193.83 517.144C1194.03 516.952 1194.14 516.619 1194.14 516.147V512.248C1194.14 511.775 1194.03 511.443 1193.83 511.251C1193.63 511.059 1193.3 510.963 1192.83 510.963H1191.7C1191.23 510.963 1190.9 511.059 1190.7 511.251C1190.51 511.443 1190.42 511.775 1190.42 512.248V516.147C1190.42 516.619 1190.51 516.952 1190.7 517.144C1190.9 517.336 1191.23 517.432 1191.7 517.432ZM1205.59 508.548H1207.73C1207.91 508.548 1208.03 508.6 1208.09 508.703C1208.15 508.807 1208.13 508.94 1208.02 509.102L1205.08 513.953V514.042L1208.16 519.292C1208.24 519.44 1208.25 519.573 1208.18 519.691C1208.1 519.795 1207.97 519.846 1207.78 519.846H1205.87C1205.62 519.846 1205.44 519.817 1205.32 519.758C1205.22 519.699 1205.11 519.573 1204.99 519.381L1202.17 514.441C1202.04 514.205 1202.04 513.961 1202.17 513.71L1204.83 508.991C1204.99 508.696 1205.25 508.548 1205.59 508.548ZM1201.47 519.846H1199.58C1199.27 519.846 1199.12 519.691 1199.12 519.381V504.738C1199.12 504.428 1199.27 504.273 1199.58 504.273H1201.47C1201.78 504.273 1201.93 504.428 1201.93 504.738V519.381C1201.93 519.691 1201.78 519.846 1201.47 519.846ZM1217.9 519.846H1213C1211.83 519.846 1210.93 519.536 1210.3 518.916C1209.66 518.295 1209.34 517.402 1209.34 516.235V512.159C1209.34 510.992 1209.66 510.099 1210.3 509.479C1210.93 508.858 1211.83 508.548 1213 508.548H1214.75C1215.92 508.548 1216.82 508.858 1217.45 509.479C1218.09 510.099 1218.41 510.992 1218.41 512.159V514.973C1218.41 515.283 1218.25 515.438 1217.94 515.438H1212.38C1212.2 515.438 1212.11 515.519 1212.11 515.681V516.169C1212.11 516.627 1212.21 516.959 1212.4 517.166C1212.61 517.358 1212.95 517.454 1213.42 517.454H1217.9C1218.21 517.454 1218.36 517.616 1218.36 517.941V519.403C1218.36 519.566 1218.32 519.684 1218.25 519.758C1218.19 519.817 1218.07 519.846 1217.9 519.846ZM1212.38 513.555H1215.39C1215.55 513.555 1215.64 513.473 1215.64 513.311V512.248C1215.64 511.775 1215.54 511.443 1215.35 511.251C1215.16 511.059 1214.82 510.963 1214.35 510.963H1213.42C1212.95 510.963 1212.62 511.059 1212.42 511.251C1212.23 511.443 1212.14 511.775 1212.14 512.248V513.311C1212.14 513.473 1212.22 513.555 1212.38 513.555ZM1222.86 519.846H1220.98C1220.67 519.846 1220.51 519.691 1220.51 519.381V509.013C1220.51 508.703 1220.67 508.548 1220.98 508.548H1222.86C1223.17 508.548 1223.33 508.703 1223.33 509.013V509.744H1223.41C1223.74 508.947 1224.46 508.548 1225.59 508.548H1226.29C1228.61 508.548 1229.77 509.752 1229.77 512.159V519.381C1229.77 519.691 1229.61 519.846 1229.29 519.846H1227.42C1227.11 519.846 1226.96 519.691 1226.96 519.381V512.292C1226.96 511.819 1226.86 511.487 1226.65 511.295C1226.46 511.088 1226.12 510.985 1225.65 510.985H1224.85C1223.84 510.985 1223.33 511.546 1223.33 512.669V519.381C1223.33 519.691 1223.17 519.846 1222.86 519.846ZM1239.5 519.846H1237.66C1237.35 519.846 1237.2 519.691 1237.2 519.381V506.067C1237.2 505.757 1237.35 505.602 1237.66 505.602H1239.32C1239.63 505.602 1239.84 505.705 1239.94 505.912L1244.42 514.308H1244.51V506.067C1244.51 505.757 1244.66 505.602 1244.97 505.602H1246.81C1247.12 505.602 1247.28 505.757 1247.28 506.067V519.381C1247.28 519.691 1247.12 519.846 1246.81 519.846H1245.19C1244.87 519.846 1244.63 519.699 1244.49 519.403L1240.06 511.162H1239.97V519.381C1239.97 519.691 1239.81 519.846 1239.5 519.846ZM1258.26 519.846H1253.37C1252.2 519.846 1251.3 519.536 1250.67 518.916C1250.03 518.295 1249.71 517.402 1249.71 516.235V512.159C1249.71 510.992 1250.03 510.099 1250.67 509.479C1251.3 508.858 1252.2 508.548 1253.37 508.548H1255.12C1256.29 508.548 1257.19 508.858 1257.82 509.479C1258.46 510.099 1258.77 510.992 1258.77 512.159V514.973C1258.77 515.283 1258.62 515.438 1258.31 515.438H1252.75C1252.57 515.438 1252.48 515.519 1252.48 515.681V516.169C1252.48 516.627 1252.58 516.959 1252.77 517.166C1252.98 517.358 1253.32 517.454 1253.79 517.454H1258.26C1258.57 517.454 1258.73 517.616 1258.73 517.941V519.403C1258.73 519.566 1258.69 519.684 1258.62 519.758C1258.56 519.817 1258.44 519.846 1258.26 519.846ZM1252.75 513.555H1255.76C1255.92 513.555 1256 513.473 1256 513.311V512.248C1256 511.775 1255.91 511.443 1255.72 511.251C1255.52 511.059 1255.19 510.963 1254.72 510.963H1253.79C1253.32 510.963 1252.98 511.059 1252.79 511.251C1252.6 511.443 1252.5 511.775 1252.5 512.248V513.311C1252.5 513.473 1252.59 513.555 1252.75 513.555ZM1261.13 510.985H1260.24C1260.06 510.985 1259.94 510.955 1259.86 510.896C1259.8 510.837 1259.77 510.719 1259.77 510.542V509.013C1259.77 508.703 1259.93 508.548 1260.24 508.548H1261.13C1261.29 508.548 1261.37 508.467 1261.37 508.304V506.2C1261.37 505.89 1261.53 505.735 1261.86 505.735H1263.72C1264.03 505.735 1264.18 505.89 1264.18 506.2V508.304C1264.18 508.467 1264.27 508.548 1264.45 508.548H1266.18C1266.49 508.548 1266.64 508.703 1266.64 509.013V510.542C1266.64 510.704 1266.6 510.823 1266.53 510.896C1266.47 510.955 1266.35 510.985 1266.18 510.985H1264.45C1264.27 510.985 1264.18 511.066 1264.18 511.229V516.124C1264.18 516.582 1264.29 516.915 1264.49 517.121C1264.7 517.313 1265.04 517.409 1265.51 517.409H1266.4C1266.71 517.409 1266.86 517.564 1266.86 517.875V519.403C1266.86 519.566 1266.83 519.684 1266.75 519.758C1266.69 519.817 1266.57 519.846 1266.4 519.846H1265.05C1263.88 519.846 1262.97 519.536 1262.32 518.916C1261.69 518.295 1261.37 517.409 1261.37 516.257V511.229C1261.37 511.066 1261.29 510.985 1261.13 510.985ZM1273.21 519.846H1270.69C1270.4 519.846 1270.23 519.691 1270.15 519.381L1267.94 509.013C1267.88 508.703 1267.99 508.548 1268.27 508.548H1270.4C1270.72 508.548 1270.9 508.703 1270.93 509.013L1271.93 516.59H1272.1L1273.68 509.013C1273.72 508.703 1273.89 508.548 1274.19 508.548H1276.13C1276.44 508.548 1276.63 508.703 1276.69 509.013L1278.22 516.59H1278.39L1279.41 509.013C1279.46 508.703 1279.63 508.548 1279.95 508.548H1282.07C1282.37 508.548 1282.48 508.703 1282.4 509.013L1280.19 519.381C1280.13 519.691 1279.95 519.846 1279.66 519.846H1277.13C1276.84 519.846 1276.66 519.691 1276.6 519.381L1275.25 511.893H1275.07L1273.74 519.381C1273.7 519.691 1273.52 519.846 1273.21 519.846ZM1289.52 519.846H1287.55C1286.38 519.846 1285.48 519.536 1284.85 518.916C1284.21 518.295 1283.89 517.402 1283.89 516.235V512.159C1283.89 510.992 1284.21 510.099 1284.85 509.479C1285.48 508.858 1286.38 508.548 1287.55 508.548H1289.52C1290.67 508.548 1291.57 508.866 1292.2 509.501C1292.85 510.121 1293.18 511.007 1293.18 512.159V516.235C1293.18 517.387 1292.85 518.281 1292.2 518.916C1291.57 519.536 1290.67 519.846 1289.52 519.846ZM1287.97 517.432H1289.1C1289.57 517.432 1289.91 517.336 1290.1 517.144C1290.3 516.952 1290.41 516.619 1290.41 516.147V512.248C1290.41 511.775 1290.3 511.443 1290.1 511.251C1289.91 511.059 1289.57 510.963 1289.1 510.963H1287.97C1287.5 510.963 1287.17 511.059 1286.97 511.251C1286.78 511.443 1286.69 511.775 1286.69 512.248V516.147C1286.69 516.619 1286.78 516.952 1286.97 517.144C1287.17 517.336 1287.5 517.432 1287.97 517.432ZM1297.74 519.846H1295.85C1295.54 519.846 1295.39 519.691 1295.39 519.381V509.013C1295.39 508.703 1295.54 508.548 1295.85 508.548H1297.74C1298.05 508.548 1298.2 508.703 1298.2 509.013V509.767H1298.29C1298.45 509.368 1298.74 509.065 1299.15 508.858C1299.57 508.652 1300 508.548 1300.46 508.548H1301.26C1301.55 508.548 1301.7 508.703 1301.7 509.013V510.542C1301.7 510.719 1301.66 510.845 1301.59 510.919C1301.53 510.978 1301.42 511 1301.26 510.985H1299.73C1298.71 510.985 1298.2 511.561 1298.2 512.713V519.381C1298.2 519.691 1298.05 519.846 1297.74 519.846ZM1309.58 508.548H1311.73C1311.91 508.548 1312.02 508.6 1312.08 508.703C1312.14 508.807 1312.12 508.94 1312.02 509.102L1309.07 513.953V514.042L1312.15 519.292C1312.24 519.44 1312.25 519.573 1312.17 519.691C1312.1 519.795 1311.96 519.846 1311.77 519.846H1309.87C1309.62 519.846 1309.43 519.817 1309.31 519.758C1309.21 519.699 1309.1 519.573 1308.98 519.381L1306.17 514.441C1306.03 514.205 1306.03 513.961 1306.17 513.71L1308.83 508.991C1308.99 508.696 1309.24 508.548 1309.58 508.548ZM1305.46 519.846H1303.58C1303.27 519.846 1303.11 519.691 1303.11 519.381V504.738C1303.11 504.428 1303.27 504.273 1303.58 504.273H1305.46C1305.77 504.273 1305.92 504.428 1305.92 504.738V519.381C1305.92 519.691 1305.77 519.846 1305.46 519.846ZM1316.02 508.969V511.694C1316.02 512.004 1315.88 512.159 1315.6 512.159H1313.63C1313.33 512.159 1313.18 511.989 1313.18 511.65V508.991C1313.18 508.696 1313.33 508.548 1313.63 508.548H1315.6C1315.88 508.548 1316.02 508.688 1316.02 508.969ZM1316.02 516.656V519.381C1316.02 519.691 1315.88 519.846 1315.6 519.846H1313.63C1313.33 519.846 1313.18 519.684 1313.18 519.359V516.678C1313.18 516.383 1313.33 516.235 1313.63 516.235H1315.6C1315.88 516.235 1316.02 516.376 1316.02 516.656ZM1330.88 519.846H1323.64C1323.33 519.846 1323.17 519.691 1323.17 519.381V506.067C1323.17 505.757 1323.33 505.602 1323.64 505.602H1330.88C1331.18 505.602 1331.32 505.757 1331.32 506.067V507.573C1331.32 507.884 1331.18 508.039 1330.88 508.039H1326.25C1326.07 508.039 1325.98 508.12 1325.98 508.282V511.162C1325.98 511.325 1326.07 511.406 1326.25 511.406H1330.04C1330.35 511.406 1330.5 511.561 1330.5 511.871V513.377C1330.5 513.688 1330.35 513.843 1330.04 513.843H1326.25C1326.07 513.843 1325.98 513.924 1325.98 514.086V517.166C1325.98 517.328 1326.07 517.409 1326.25 517.409H1330.88C1331.18 517.409 1331.32 517.564 1331.32 517.875V519.381C1331.32 519.691 1331.18 519.846 1330.88 519.846ZM1338.18 519.846H1336.32C1335.99 519.846 1335.83 519.691 1335.83 519.381V508.282C1335.83 508.12 1335.75 508.039 1335.59 508.039H1333.06C1332.75 508.039 1332.6 507.884 1332.6 507.573V506.067C1332.6 505.757 1332.75 505.602 1333.06 505.602H1341.44C1341.75 505.602 1341.9 505.757 1341.9 506.067V507.573C1341.9 507.884 1341.75 508.039 1341.44 508.039H1338.91C1338.73 508.039 1338.64 508.12 1338.64 508.282V519.381C1338.64 519.691 1338.49 519.846 1338.18 519.846ZM1345.94 519.846H1344.06C1343.75 519.846 1343.59 519.691 1343.59 519.381V506.067C1343.59 505.757 1343.75 505.602 1344.06 505.602H1345.94C1346.25 505.602 1346.41 505.757 1346.41 506.067V511.273C1346.41 511.435 1346.49 511.517 1346.67 511.517H1350.42C1350.58 511.517 1350.66 511.435 1350.66 511.273V506.067C1350.66 505.757 1350.81 505.602 1351.12 505.602H1353.01C1353.32 505.602 1353.47 505.757 1353.47 506.067V519.381C1353.47 519.691 1353.32 519.846 1353.01 519.846H1351.12C1350.81 519.846 1350.66 519.691 1350.66 519.381V514.197C1350.66 514.035 1350.58 513.953 1350.42 513.953H1346.67C1346.49 513.953 1346.41 514.035 1346.41 514.197V519.381C1346.41 519.691 1346.25 519.846 1345.94 519.846Z" fill="#00C4F4"/>
<rect x="47.0581" y="9.15527e-05" width="84.4586" height="23.5376" fill="url(#paint2_linear_49_17436)"/>
<path fill-rule="evenodd" clip-rule="evenodd" d="M50.1193 37.3831C48.4287 37.3831 47.0581 38.7536 47.0581 40.4443V82.4883C47.0581 83.6351 47.6991 84.6857 48.7188 85.2103L78.8903 100.734C79.3235 100.957 79.8037 101.073 80.2908 101.073H279.613C281.304 101.073 282.674 99.7027 282.674 98.012V59.015C282.674 57.8548 282.018 56.7943 280.98 56.2761L243.775 37.7054C243.35 37.4934 242.882 37.3831 242.408 37.3831H50.1193ZM52.3959 40.9211C50.7052 40.9211 49.3347 42.2916 49.3347 43.9822V79.8834C49.3347 81.0582 50.007 82.1293 51.0649 82.6401L78.841 96.0505C79.2561 96.2509 79.711 96.355 80.1719 96.355H264.816C266.507 96.355 267.877 94.9845 267.877 93.2938V60.0474C267.877 58.8597 267.19 57.7791 266.114 57.2753L231.815 41.2101C231.408 41.0197 230.965 40.9211 230.516 40.9211H52.3959Z" fill="#541937"/>
<path d="M67.6043 78.285H65.7434C65.4185 78.285 65.256 78.1299 65.256 77.8198V66.7211C65.256 66.5586 65.1748 66.4774 65.0124 66.4774H62.4869C62.1768 66.4774 62.0217 66.3223 62.0217 66.0122V64.5058C62.0217 64.1956 62.1768 64.0406 62.4869 64.0406H70.8608C71.1709 64.0406 71.326 64.1956 71.326 64.5058V66.0122C71.326 66.3223 71.1709 66.4774 70.8608 66.4774H68.3353C68.1581 66.4774 68.0695 66.5586 68.0695 66.7211V77.8198C68.0695 78.1299 67.9144 78.285 67.6043 78.285ZM78.2014 78.285H76.2298C75.063 78.285 74.1622 77.9748 73.5271 77.3545C72.892 76.7343 72.5745 75.8408 72.5745 74.674V70.5979C72.5745 69.4311 72.892 68.5376 73.5271 67.9173C74.1622 67.2971 75.063 66.9869 76.2298 66.9869H78.2014C79.3534 66.9869 80.2469 67.3044 80.8819 67.9395C81.5317 68.5598 81.8566 69.4459 81.8566 70.5979V74.674C81.8566 75.826 81.5317 76.7195 80.8819 77.3545C80.2469 77.9748 79.3534 78.285 78.2014 78.285ZM76.6507 75.8703H77.7805C78.2531 75.8703 78.5854 75.7743 78.7774 75.5823C78.9841 75.3903 79.0875 75.058 79.0875 74.5854V70.6865C79.0875 70.2139 78.9841 69.8816 78.7774 69.6896C78.5854 69.4976 78.2531 69.4016 77.7805 69.4016H76.6507C76.1781 69.4016 75.8458 69.4976 75.6538 69.6896C75.4618 69.8816 75.3658 70.2139 75.3658 70.6865V74.5854C75.3658 75.058 75.4618 75.3903 75.6538 75.5823C75.8458 75.7743 76.1781 75.8703 76.6507 75.8703ZM84.311 69.4237H83.4248C83.2476 69.4237 83.1221 69.3942 83.0482 69.3351C82.9892 69.2761 82.9596 69.1579 82.9596 68.9807V67.4521C82.9596 67.142 83.1147 66.9869 83.4248 66.9869H84.311C84.4734 66.9869 84.5546 66.9057 84.5546 66.7432V64.6387C84.5546 64.3285 84.7171 64.1735 85.042 64.1735H86.9029C87.213 64.1735 87.3681 64.3285 87.3681 64.6387V66.7432C87.3681 66.9057 87.4567 66.9869 87.6339 66.9869H89.3619C89.672 66.9869 89.8271 67.142 89.8271 67.4521V68.9807C89.8271 69.1431 89.7902 69.2613 89.7163 69.3351C89.6572 69.3942 89.5391 69.4237 89.3619 69.4237H87.6339C87.4567 69.4237 87.3681 69.505 87.3681 69.6674V74.5633C87.3681 75.0211 87.4715 75.3534 87.6782 75.5601C87.885 75.7521 88.2247 75.8481 88.6973 75.8481H89.5834C89.8935 75.8481 90.0486 76.0032 90.0486 76.3134V77.8419C90.0486 78.0044 90.0117 78.1225 89.9378 78.1964C89.8788 78.2554 89.7606 78.285 89.5834 78.285H88.2321C87.0653 78.285 86.1571 77.9748 85.5072 77.3545C84.8722 76.7343 84.5546 75.8481 84.5546 74.6962V69.6674C84.5546 69.505 84.4734 69.4237 84.311 69.4237ZM95.8425 78.285H95.3108C94.1441 78.285 93.2432 77.9748 92.6081 77.3545C91.9731 76.7343 91.6556 75.8408 91.6556 74.674V70.5979C91.6556 69.4311 91.9731 68.5376 92.6081 67.9173C93.2432 67.2971 94.1441 66.9869 95.3108 66.9869H100.428C100.753 66.9869 100.916 67.142 100.916 67.4521V77.8198C100.916 78.1299 100.753 78.285 100.428 78.285H98.5673C98.2572 78.285 98.1021 78.1299 98.1021 77.8198V77.0887H98.0135C97.851 77.4875 97.5631 77.7902 97.1495 77.997C96.736 78.189 96.3003 78.285 95.8425 78.285ZM98.1021 74.1645V69.6674C98.1021 69.505 98.0135 69.4237 97.8363 69.4237H95.7539C95.2813 69.4237 94.949 69.5271 94.757 69.7339C94.565 69.9259 94.469 70.2582 94.469 70.7308V74.5411C94.469 75.0137 94.565 75.3534 94.757 75.5601C94.949 75.7521 95.2813 75.8481 95.7539 75.8481H96.5735C97.5926 75.8481 98.1021 75.2869 98.1021 74.1645ZM105.802 78.285H103.919C103.609 78.285 103.454 78.1299 103.454 77.8198V63.1766C103.454 62.8664 103.609 62.7114 103.919 62.7114H105.802C106.112 62.7114 106.267 62.8664 106.267 63.1766V77.8198C106.267 78.1299 106.112 78.285 105.802 78.285ZM113.551 74.6519V74.2088C113.551 73.8987 113.706 73.7436 114.016 73.7436H115.899C116.209 73.7436 116.365 73.8987 116.365 74.2088V74.386C116.365 74.9472 116.475 75.3312 116.697 75.538C116.918 75.7448 117.325 75.8481 117.915 75.8481H118.956C119.532 75.8481 119.931 75.7374 120.153 75.5158C120.389 75.2943 120.507 74.8808 120.507 74.2753V74.0094C120.507 73.5811 120.33 73.2562 119.975 73.0347C119.636 72.7984 119.208 72.6581 118.691 72.6138C118.174 72.5695 117.612 72.4883 117.007 72.3701C116.416 72.2372 115.862 72.0747 115.345 71.8827C114.829 71.676 114.393 71.2846 114.038 70.7086C113.699 70.1179 113.529 69.3647 113.529 68.449V67.6737C113.529 66.5217 113.854 65.6282 114.504 64.9931C115.154 64.3581 116.054 64.0406 117.206 64.0406H119.422C120.588 64.0406 121.497 64.3581 122.146 64.9931C122.796 65.6282 123.121 66.5217 123.121 67.6737V68.0946C123.121 68.4047 122.966 68.5598 122.656 68.5598H120.773C120.463 68.5598 120.308 68.4047 120.308 68.0946V67.9616C120.308 67.3857 120.197 66.9943 119.975 66.7875C119.754 66.5808 119.348 66.4774 118.757 66.4774H117.893C117.288 66.4774 116.874 66.5955 116.653 66.8318C116.446 67.0534 116.342 67.4964 116.342 68.161V68.5819C116.342 69.2761 116.948 69.6748 118.159 69.7782C119.414 69.8816 120.529 70.1326 121.504 70.5314C122.021 70.7529 122.449 71.1517 122.789 71.7277C123.143 72.2889 123.321 73.0125 123.321 73.8987V74.6519C123.321 75.8038 122.996 76.6973 122.346 77.3324C121.696 77.9674 120.795 78.285 119.643 78.285H117.229C116.077 78.285 115.176 77.9674 114.526 77.3324C113.876 76.6973 113.551 75.8038 113.551 74.6519ZM129.702 78.285H128.971C127.834 78.285 126.97 77.9748 126.379 77.3545C125.803 76.7343 125.515 75.8408 125.515 74.674V67.4521C125.515 67.142 125.67 66.9869 125.98 66.9869H127.863C128.174 66.9869 128.329 67.142 128.329 67.4521V74.5411C128.329 75.0137 128.425 75.3534 128.617 75.5601C128.823 75.7521 129.156 75.8481 129.613 75.8481H130.433C131.452 75.8481 131.962 75.2869 131.962 74.1645V67.4521C131.962 67.142 132.117 66.9869 132.427 66.9869H134.288C134.613 66.9869 134.775 67.142 134.775 67.4521V77.8198C134.775 78.1299 134.613 78.285 134.288 78.285H132.427C132.117 78.285 131.962 78.1299 131.962 77.8198V77.0887H131.873C131.711 77.4875 131.423 77.7902 131.009 77.997C130.596 78.189 130.16 78.285 129.702 78.285ZM139.57 81.2978H137.687C137.377 81.2978 137.222 81.1501 137.222 80.8547V67.4521C137.222 67.142 137.377 66.9869 137.687 66.9869H139.57C139.88 66.9869 140.035 67.142 140.035 67.4521V68.1832H140.124C140.286 67.7844 140.574 67.489 140.988 67.2971C141.401 67.0903 141.837 66.9869 142.295 66.9869H143.203C144.34 66.9869 145.197 67.2971 145.773 67.9173C146.363 68.5376 146.659 69.4311 146.659 70.5979V74.674C146.659 75.8408 146.363 76.7343 145.773 77.3545C145.197 77.9748 144.34 78.285 143.203 78.285H142.295C141.837 78.285 141.401 78.189 140.988 77.997C140.574 77.7902 140.286 77.4875 140.124 77.0887H140.035V80.8547C140.035 81.1501 139.88 81.2978 139.57 81.2978ZM141.564 75.8481H142.538C143.011 75.8481 143.343 75.7521 143.535 75.5601C143.742 75.3534 143.845 75.0137 143.845 74.5411V70.7308C143.845 70.2582 143.742 69.9259 143.535 69.7339C143.343 69.5271 143.011 69.4237 142.538 69.4237H141.564C140.545 69.4237 140.035 69.985 140.035 71.1074V74.1645C140.035 75.2869 140.545 75.8481 141.564 75.8481ZM151.231 81.2978H149.348C149.037 81.2978 148.882 81.1501 148.882 80.8547V67.4521C148.882 67.142 149.037 66.9869 149.348 66.9869H151.231C151.541 66.9869 151.696 67.142 151.696 67.4521V68.1832H151.784C151.947 67.7844 152.235 67.489 152.648 67.2971C153.062 67.0903 153.498 66.9869 153.955 66.9869H154.864C156.001 66.9869 156.857 67.2971 157.433 67.9173C158.024 68.5376 158.319 69.4311 158.319 70.5979V74.674C158.319 75.8408 158.024 76.7343 157.433 77.3545C156.857 77.9748 156.001 78.285 154.864 78.285H153.955C153.498 78.285 153.062 78.189 152.648 77.997C152.235 77.7902 151.947 77.4875 151.784 77.0887H151.696V80.8547C151.696 81.1501 151.541 81.2978 151.231 81.2978ZM153.224 75.8481H154.199C154.672 75.8481 155.004 75.7521 155.196 75.5601C155.403 75.3534 155.506 75.0137 155.506 74.5411V70.7308C155.506 70.2582 155.403 69.9259 155.196 69.7339C155.004 69.5271 154.672 69.4237 154.199 69.4237H153.224C152.205 69.4237 151.696 69.985 151.696 71.1074V74.1645C151.696 75.2869 152.205 75.8481 153.224 75.8481ZM163.002 78.285H161.119C160.809 78.285 160.654 78.1299 160.654 77.8198V63.1766C160.654 62.8664 160.809 62.7114 161.119 62.7114H163.002C163.312 62.7114 163.467 62.8664 163.467 63.1766V77.8198C163.467 78.1299 163.312 78.285 163.002 78.285ZM167.855 82.0288H166.437C166.142 82.0288 165.994 81.8664 165.994 81.5415V80.0572C165.994 79.7323 166.142 79.5699 166.437 79.5699H166.902C167.833 79.5699 168.461 79.4369 168.785 79.1711C169.125 78.92 169.384 78.4253 169.561 77.6868H168.387C168.106 77.6868 167.921 77.5318 167.833 77.2216L165.241 67.4521C165.152 67.142 165.263 66.9869 165.573 66.9869H167.545C167.84 66.9869 168.025 67.142 168.099 67.4521L170.004 75.6266H170.092L171.975 67.4521C172.035 67.142 172.219 66.9869 172.529 66.9869H174.39C174.759 66.9869 174.907 67.1494 174.833 67.4743L172.131 78.285C171.806 79.5108 171.303 80.4412 170.624 81.0763C169.945 81.7113 169.022 82.0288 167.855 82.0288ZM178.903 67.4078V70.1326C178.903 70.4428 178.763 70.5979 178.482 70.5979H176.51C176.215 70.5979 176.067 70.428 176.067 70.0883V67.43C176.067 67.1346 176.215 66.9869 176.51 66.9869H178.482C178.763 66.9869 178.903 67.1272 178.903 67.4078ZM178.903 75.0949V77.8198C178.903 78.1299 178.763 78.285 178.482 78.285H176.51C176.215 78.285 176.067 78.1225 176.067 77.7976V75.1171C176.067 74.8217 176.215 74.674 176.51 74.674H178.482C178.763 74.674 178.903 74.8143 178.903 75.0949ZM185.124 68.006V66.1894C185.124 65.9383 185.235 65.7463 185.456 65.6134L187.472 64.3507C187.812 64.1439 188.1 64.0406 188.336 64.0406H190.108C190.419 64.0406 190.574 64.1956 190.574 64.5058V77.8198C190.574 77.997 190.537 78.1225 190.463 78.1964C190.404 78.2554 190.293 78.285 190.131 78.285H188.225C187.915 78.285 187.76 78.1299 187.76 77.8198V67.0312L185.589 68.2718C185.279 68.4047 185.124 68.3161 185.124 68.006ZM207.78 64.0406H211.059C211.369 64.0406 211.524 64.1956 211.524 64.5058V77.8198C211.524 78.1299 211.369 78.285 211.059 78.285H209.242C208.932 78.285 208.777 78.1299 208.777 77.8198V67.3192H208.688L206.429 74.7405C206.34 75.0359 206.156 75.1835 205.875 75.1835H204.014C203.734 75.1835 203.549 75.0359 203.46 74.7405L201.156 67.2971H201.068V77.8198C201.068 77.997 201.038 78.1225 200.979 78.1964C200.92 78.2554 200.795 78.285 200.603 78.285H198.786C198.476 78.285 198.321 78.1299 198.321 77.8198V64.5058C198.321 64.1956 198.476 64.0406 198.786 64.0406H202.087C202.294 64.0406 202.434 64.1439 202.508 64.3507L204.856 72.1707H204.989L207.359 64.3507C207.404 64.1439 207.544 64.0406 207.78 64.0406ZM214.284 65.0817V63.1544C214.284 62.8591 214.432 62.7114 214.727 62.7114H216.654C216.95 62.7114 217.097 62.8517 217.097 63.1323V65.0817C217.097 65.3771 216.95 65.5248 216.654 65.5248H214.727C214.432 65.5248 214.284 65.3771 214.284 65.0817ZM214.284 77.8198V67.4521C214.284 67.142 214.432 66.9869 214.727 66.9869H216.632C216.942 66.9869 217.097 67.142 217.097 67.4521V77.8198C217.097 78.0118 217.061 78.1373 216.987 78.1964C216.928 78.2554 216.817 78.285 216.654 78.285H214.749C214.439 78.285 214.284 78.1299 214.284 77.8198ZM222.106 78.285H220.223C219.912 78.285 219.757 78.1299 219.757 77.8198V63.1766C219.757 62.8664 219.912 62.7114 220.223 62.7114H222.106C222.416 62.7114 222.571 62.8664 222.571 63.1766V77.8198C222.571 78.1299 222.416 78.285 222.106 78.285ZM227.579 78.285H225.696C225.386 78.285 225.231 78.1299 225.231 77.8198V63.1766C225.231 62.8664 225.386 62.7114 225.696 62.7114H227.579C227.889 62.7114 228.044 62.8664 228.044 63.1766V77.8198C228.044 78.1299 227.889 78.285 227.579 78.285ZM230.704 65.0817V63.1544C230.704 62.8591 230.852 62.7114 231.147 62.7114H233.074C233.37 62.7114 233.518 62.8517 233.518 63.1323V65.0817C233.518 65.3771 233.37 65.5248 233.074 65.5248H231.147C230.852 65.5248 230.704 65.3771 230.704 65.0817ZM230.704 77.8198V67.4521C230.704 67.142 230.852 66.9869 231.147 66.9869H233.052C233.362 66.9869 233.518 67.142 233.518 67.4521V77.8198C233.518 78.0118 233.481 78.1373 233.407 78.1964C233.348 78.2554 233.237 78.285 233.074 78.285H231.169C230.859 78.285 230.704 78.1299 230.704 77.8198ZM241.472 78.285H239.5C238.334 78.285 237.433 77.9748 236.798 77.3545C236.163 76.7343 235.845 75.8408 235.845 74.674V70.5979C235.845 69.4311 236.163 68.5376 236.798 67.9173C237.433 67.2971 238.334 66.9869 239.5 66.9869H241.472C242.624 66.9869 243.518 67.3044 244.153 67.9395C244.802 68.5598 245.127 69.4459 245.127 70.5979V74.674C245.127 75.826 244.802 76.7195 244.153 77.3545C243.518 77.9748 242.624 78.285 241.472 78.285ZM239.921 75.8703H241.051C241.524 75.8703 241.856 75.7743 242.048 75.5823C242.255 75.3903 242.358 75.058 242.358 74.5854V70.6865C242.358 70.2139 242.255 69.8816 242.048 69.6896C241.856 69.4976 241.524 69.4016 241.051 69.4016H239.921C239.449 69.4016 239.116 69.4976 238.924 69.6896C238.732 69.8816 238.636 70.2139 238.636 70.6865V74.5854C238.636 75.058 238.732 75.3903 238.924 75.5823C239.116 75.7743 239.449 75.8703 239.921 75.8703ZM249.686 78.285H247.803C247.493 78.285 247.338 78.1299 247.338 77.8198V67.4521C247.338 67.142 247.493 66.9869 247.803 66.9869H249.686C249.996 66.9869 250.151 67.142 250.151 67.4521V68.1832H250.24C250.565 67.3857 251.289 66.9869 252.411 66.9869H253.12C255.439 66.9869 256.598 68.1906 256.598 70.5979V77.8198C256.598 78.1299 256.435 78.285 256.111 78.285H254.25C253.94 78.285 253.784 78.1299 253.784 77.8198V70.7308C253.784 70.2582 253.681 69.9259 253.474 69.7339C253.282 69.5271 252.95 69.4237 252.477 69.4237H251.68C250.661 69.4237 250.151 69.985 250.151 71.1074V77.8198C250.151 78.1299 249.996 78.285 249.686 78.285Z" fill="#00C4F4"/>
<path d="M510.868 289.646H414.554L371.566 246.659H289.399" stroke="#2A5642" stroke-width="2.1766" stroke-linecap="round"/>
<path d="M276.26 257.96C273.773 257.96 271.261 257.139 269.16 255.473C264.282 251.561 263.485 244.388 267.397 239.486C271.309 234.584 278.482 233.811 283.36 237.723C285.726 239.631 287.224 242.336 287.538 245.33C287.876 248.349 287.006 251.319 285.123 253.686C282.877 256.487 279.592 257.96 276.26 257.96ZM269.281 241.007C266.19 244.847 266.818 250.498 270.681 253.589C274.521 256.68 280.172 256.052 283.263 252.188C284.76 250.329 285.437 247.987 285.171 245.62C284.905 243.253 283.746 241.104 281.862 239.631C277.999 236.516 272.372 237.144 269.281 241.007Z" fill="#CCCCCC" fill-opacity="0.5"/>
<path d="M281.959 246.587C281.959 249.726 279.399 252.286 276.26 252.286C273.12 252.286 270.56 249.726 270.56 246.587C270.56 243.447 273.12 240.887 276.26 240.887C279.399 240.887 281.959 243.447 281.959 246.587Z" fill="#CCCCCC" fill-opacity="0.5"/>
<rect x="26.0759" y="167.652" width="84.4586" height="23.5376" fill="url(#paint3_linear_49_17436)"/>
<path fill-rule="evenodd" clip-rule="evenodd" d="M29.1374 205.035C27.4467 205.035 26.0762 206.405 26.0762 208.096V250.14C26.0762 251.287 26.7171 252.337 27.7369 252.862L57.9084 268.386C58.3416 268.609 58.8217 268.725 59.3089 268.725H258.631C260.322 268.725 261.692 267.354 261.692 265.664V226.667C261.692 225.507 261.036 224.446 259.998 223.928L222.793 205.357C222.368 205.145 221.9 205.035 221.426 205.035H29.1374ZM31.4138 208.573C29.7232 208.573 28.3526 209.943 28.3526 211.634V247.535C28.3526 248.71 29.0249 249.781 30.0828 250.292L57.8589 263.702C58.274 263.903 58.729 264.007 59.1899 264.007H243.834C245.524 264.007 246.895 262.636 246.895 260.946V227.699C246.895 226.512 246.208 225.431 245.132 224.927L210.833 208.862C210.426 208.672 209.983 208.573 209.534 208.573H31.4138Z" fill="#2A5642"/>
<path d="M46.6221 245.937H44.7612C44.4363 245.937 44.2739 245.782 44.2739 245.472V234.373C44.2739 234.21 44.1926 234.129 44.0302 234.129H41.5047C41.1946 234.129 41.0395 233.974 41.0395 233.664V232.158C41.0395 231.847 41.1946 231.692 41.5047 231.692H49.8786C50.1887 231.692 50.3438 231.847 50.3438 232.158V233.664C50.3438 233.974 50.1887 234.129 49.8786 234.129H47.3531C47.1759 234.129 47.0873 234.21 47.0873 234.373V245.472C47.0873 245.782 46.9322 245.937 46.6221 245.937ZM51.9246 232.734V230.806C51.9246 230.511 52.0723 230.363 52.3677 230.363H54.295C54.5904 230.363 54.7381 230.504 54.7381 230.784V232.734C54.7381 233.029 54.5904 233.177 54.295 233.177H52.3677C52.0723 233.177 51.9246 233.029 51.9246 232.734ZM51.9246 245.472V235.104C51.9246 234.794 52.0723 234.639 52.3677 234.639H54.2729C54.583 234.639 54.7381 234.794 54.7381 235.104V245.472C54.7381 245.664 54.7011 245.789 54.6273 245.848C54.5682 245.907 54.4575 245.937 54.295 245.937H52.3898C52.0797 245.937 51.9246 245.782 51.9246 245.472ZM64.487 243.965V245.494C64.487 245.656 64.4501 245.774 64.3762 245.848C64.3171 245.907 64.199 245.937 64.0218 245.937H60.721C59.5542 245.937 58.6533 245.627 58.0183 245.006C57.3832 244.386 57.0657 243.493 57.0657 242.326V238.25C57.0657 237.083 57.3832 236.189 58.0183 235.569C58.6533 234.949 59.5542 234.639 60.721 234.639H64.0218C64.3319 234.639 64.487 234.794 64.487 235.104V236.633C64.487 236.795 64.4501 236.913 64.3762 236.987C64.3171 237.046 64.199 237.076 64.0218 237.076H61.164C60.7062 237.076 60.3739 237.179 60.1671 237.386C59.9751 237.578 59.8791 237.91 59.8791 238.383V242.193C59.8791 242.666 59.9751 243.005 60.1671 243.212C60.3739 243.404 60.7062 243.5 61.164 243.5H64.0218C64.3319 243.5 64.487 243.655 64.487 243.965ZM72.8638 234.639H75.0126C75.1898 234.639 75.308 234.69 75.3671 234.794C75.4261 234.897 75.404 235.03 75.3006 235.193L72.3543 240.044V240.133L75.4335 245.383C75.5221 245.531 75.5295 245.664 75.4557 245.782C75.3818 245.885 75.2489 245.937 75.0569 245.937H73.1518C72.9007 245.937 72.7161 245.907 72.5979 245.848C72.4946 245.789 72.3838 245.664 72.2656 245.472L69.4522 240.531C69.3193 240.295 69.3193 240.051 69.4522 239.8L72.1106 235.082C72.273 234.786 72.5241 234.639 72.8638 234.639ZM68.7433 245.937H66.8603C66.5502 245.937 66.3951 245.782 66.3951 245.472V230.828C66.3951 230.518 66.5502 230.363 66.8603 230.363H68.7433C69.0534 230.363 69.2085 230.518 69.2085 230.828V245.472C69.2085 245.782 69.0534 245.937 68.7433 245.937ZM85.1738 245.937H80.278C79.1112 245.937 78.2103 245.627 77.5753 245.006C76.9402 244.386 76.6227 243.493 76.6227 242.326V238.25C76.6227 237.083 76.9402 236.189 77.5753 235.569C78.2103 234.949 79.1112 234.639 80.278 234.639H82.028C83.1948 234.639 84.0957 234.949 84.7307 235.569C85.3658 236.189 85.6833 237.083 85.6833 238.25V241.063C85.6833 241.373 85.5282 241.528 85.2181 241.528H79.6577C79.4804 241.528 79.3918 241.61 79.3918 241.772V242.259C79.3918 242.717 79.4878 243.05 79.6798 243.256C79.8866 243.448 80.2263 243.544 80.6989 243.544H85.1738C85.4839 243.544 85.639 243.707 85.639 244.032V245.494C85.639 245.656 85.6021 245.774 85.5282 245.848C85.4692 245.907 85.351 245.937 85.1738 245.937ZM79.6577 239.645H82.6705C82.8329 239.645 82.9142 239.564 82.9142 239.402V238.338C82.9142 237.866 82.8182 237.533 82.6262 237.341C82.4342 237.149 82.1019 237.053 81.6293 237.053H80.6989C80.2263 237.053 79.894 237.149 79.702 237.341C79.51 237.533 79.414 237.866 79.414 238.338V239.402C79.414 239.564 79.4952 239.645 79.6577 239.645ZM90.1392 245.937H88.2562C87.946 245.937 87.791 245.782 87.791 245.472V235.104C87.791 234.794 87.946 234.639 88.2562 234.639H90.1392C90.4493 234.639 90.6044 234.794 90.6044 235.104V235.857H90.693C90.8555 235.458 91.1435 235.156 91.557 234.949C91.9705 234.742 92.4062 234.639 92.864 234.639H93.6615C93.9569 234.639 94.1046 234.794 94.1046 235.104V236.633C94.1046 236.81 94.0677 236.935 93.9938 237.009C93.9347 237.068 93.824 237.09 93.6615 237.076H92.133C91.1139 237.076 90.6044 237.652 90.6044 238.804V245.472C90.6044 245.782 90.4493 245.937 90.1392 245.937ZM97.9732 235.06V237.785C97.9732 238.095 97.8329 238.25 97.5523 238.25H95.5807C95.2853 238.25 95.1376 238.08 95.1376 237.74V235.082C95.1376 234.786 95.2853 234.639 95.5807 234.639H97.5523C97.8329 234.639 97.9732 234.779 97.9732 235.06ZM97.9732 242.747V245.472C97.9732 245.782 97.8329 245.937 97.5523 245.937H95.5807C95.2853 245.937 95.1376 245.774 95.1376 245.449V242.769C95.1376 242.474 95.2853 242.326 95.5807 242.326H97.5523C97.8329 242.326 97.9732 242.466 97.9732 242.747ZM107.473 245.937H105.59C105.28 245.937 105.125 245.782 105.125 245.472V232.158C105.125 231.847 105.28 231.692 105.59 231.692H107.473C107.783 231.692 107.938 231.847 107.938 232.158V237.364C107.938 237.526 108.027 237.607 108.204 237.607H111.948C112.11 237.607 112.192 237.526 112.192 237.364V232.158C112.192 231.847 112.347 231.692 112.657 231.692H114.54C114.85 231.692 115.005 231.847 115.005 232.158V245.472C115.005 245.782 114.85 245.937 114.54 245.937H112.657C112.347 245.937 112.192 245.782 112.192 245.472V240.288C112.192 240.125 112.11 240.044 111.948 240.044H108.204C108.027 240.044 107.938 240.125 107.938 240.288V245.472C107.938 245.782 107.783 245.937 107.473 245.937ZM119.373 245.937H117.246C116.981 245.937 116.892 245.782 116.981 245.472L120.481 232.158C120.584 231.847 120.806 231.692 121.145 231.692H124.092C124.461 231.692 124.682 231.847 124.756 232.158L128.256 245.472C128.345 245.782 128.256 245.937 127.991 245.937H125.864C125.701 245.937 125.591 245.907 125.532 245.848C125.473 245.774 125.428 245.649 125.399 245.472L124.778 243.035H120.459L119.838 245.472C119.809 245.649 119.757 245.774 119.683 245.848C119.624 245.907 119.521 245.937 119.373 245.937ZM122.585 234.373L120.99 240.775H124.269L122.674 234.373H122.585ZM133.144 232.158V245.472C133.144 245.782 132.989 245.937 132.679 245.937H130.796C130.486 245.937 130.331 245.782 130.331 245.472V232.158C130.331 231.847 130.486 231.692 130.796 231.692H132.679C132.989 231.692 133.144 231.847 133.144 232.158Z" fill="#00C4F4"/>
<rect x="11.4058" y="437.333" width="84.4586" height="23.5376" fill="url(#paint4_linear_49_17436)"/>
<path fill-rule="evenodd" clip-rule="evenodd" d="M14.4672 474.716C12.7766 474.716 11.406 476.087 11.406 477.777V519.77C11.406 520.944 12.0768 522.014 13.1329 522.525L45.2922 538.1C45.7082 538.301 46.1643 538.406 46.6265 538.406H258.659C260.349 538.406 261.72 537.036 261.72 535.345V496.399C261.72 495.212 261.034 494.133 259.96 493.628L220.326 475.007C219.919 474.815 219.475 474.716 219.025 474.716H14.4672ZM16.8858 478.254C15.1951 478.254 13.8246 479.625 13.8246 481.315V517.167C13.8246 518.367 14.5263 519.457 15.6193 519.954L45.238 533.414C45.6357 533.595 46.0676 533.688 46.5045 533.688H242.938C244.629 533.688 246 532.318 246 530.627V497.43C246 496.217 245.283 495.118 244.173 494.629L207.622 478.514C207.233 478.343 206.813 478.254 206.387 478.254H16.8858Z" fill="#9C00D3"/>
<path d="M33.4599 515.645H26.1715C25.8614 515.645 25.7063 515.49 25.7063 515.18V501.866C25.7063 501.555 25.8614 501.4 26.1715 501.4H28.0545C28.3647 501.4 28.5197 501.555 28.5197 501.866V512.942C28.5197 513.105 28.6084 513.186 28.7856 513.186H33.4599C33.7553 513.186 33.9029 513.348 33.9029 513.673V515.18C33.9029 515.49 33.7553 515.645 33.4599 515.645ZM40.8417 515.645H38.8701C37.7033 515.645 36.8025 515.335 36.1674 514.714C35.5323 514.094 35.2148 513.201 35.2148 512.034V507.958C35.2148 506.791 35.5323 505.897 36.1674 505.277C36.8025 504.657 37.7033 504.347 38.8701 504.347H40.8417C41.9937 504.347 42.8872 504.664 43.5222 505.299C44.172 505.92 44.4969 506.806 44.4969 507.958V512.034C44.4969 513.186 44.172 514.079 43.5222 514.714C42.8872 515.335 41.9937 515.645 40.8417 515.645ZM39.291 513.23H40.4208C40.8934 513.23 41.2257 513.134 41.4177 512.942C41.6244 512.75 41.7278 512.418 41.7278 511.945V508.046C41.7278 507.574 41.6244 507.241 41.4177 507.049C41.2257 506.857 40.8934 506.761 40.4208 506.761H39.291C38.8184 506.761 38.4861 506.857 38.2941 507.049C38.1021 507.241 38.0061 507.574 38.0061 508.046V511.945C38.0061 512.418 38.1021 512.75 38.2941 512.942C38.4861 513.134 38.8184 513.23 39.291 513.23ZM53.9073 513.673V515.202C53.9073 515.364 53.8704 515.482 53.7966 515.556C53.7375 515.615 53.6193 515.645 53.4421 515.645H50.1413C48.9746 515.645 48.0737 515.335 47.4386 514.714C46.8036 514.094 46.4861 513.201 46.4861 512.034V507.958C46.4861 506.791 46.8036 505.897 47.4386 505.277C48.0737 504.657 48.9746 504.347 50.1413 504.347H53.4421C53.7523 504.347 53.9073 504.502 53.9073 504.812V506.34C53.9073 506.503 53.8704 506.621 53.7966 506.695C53.7375 506.754 53.6193 506.784 53.4421 506.784H50.5844C50.1265 506.784 49.7942 506.887 49.5875 507.094C49.3955 507.286 49.2995 507.618 49.2995 508.091V511.901C49.2995 512.374 49.3955 512.713 49.5875 512.92C49.7942 513.112 50.1265 513.208 50.5844 513.208H53.4421C53.7523 513.208 53.9073 513.363 53.9073 513.673ZM62.2841 504.347H64.433C64.6102 504.347 64.7283 504.398 64.7874 504.502C64.8465 504.605 64.8243 504.738 64.721 504.901L61.7746 509.752V509.841L64.8539 515.091C64.9425 515.239 64.9499 515.372 64.876 515.49C64.8022 515.593 64.6693 515.645 64.4773 515.645H62.5721C62.321 515.645 62.1364 515.615 62.0183 515.556C61.9149 515.497 61.8041 515.372 61.686 515.18L58.8726 510.239C58.7396 510.003 58.7396 509.759 58.8726 509.508L61.5309 504.79C61.6934 504.494 61.9444 504.347 62.2841 504.347ZM58.1637 515.645H56.2806C55.9705 515.645 55.8154 515.49 55.8154 515.18V500.536C55.8154 500.226 55.9705 500.071 56.2806 500.071H58.1637C58.4738 500.071 58.6289 500.226 58.6289 500.536V515.18C58.6289 515.49 58.4738 515.645 58.1637 515.645ZM79.1073 515.645H71.8189C71.5088 515.645 71.3537 515.49 71.3537 515.18V501.866C71.3537 501.555 71.5088 501.4 71.8189 501.4H73.702C74.0121 501.4 74.1672 501.555 74.1672 501.866V512.942C74.1672 513.105 74.2558 513.186 74.433 513.186H79.1073C79.4027 513.186 79.5504 513.348 79.5504 513.673V515.18C79.5504 515.49 79.4027 515.645 79.1073 515.645ZM81.1945 502.442V500.514C81.1945 500.219 81.3422 500.071 81.6376 500.071H83.5649C83.8603 500.071 84.008 500.211 84.008 500.492V502.442C84.008 502.737 83.8603 502.885 83.5649 502.885H81.6376C81.3422 502.885 81.1945 502.737 81.1945 502.442ZM81.1945 515.18V504.812C81.1945 504.502 81.3422 504.347 81.6376 504.347H83.5428C83.8529 504.347 84.008 504.502 84.008 504.812V515.18C84.008 515.372 83.971 515.497 83.8972 515.556C83.8381 515.615 83.7274 515.645 83.5649 515.645H81.6597C81.3496 515.645 81.1945 515.49 81.1945 515.18ZM92.7821 511.502V507.027C92.7821 506.865 92.6935 506.784 92.5163 506.784H90.4339C89.9613 506.784 89.629 506.887 89.437 507.094C89.245 507.286 89.149 507.618 89.149 508.091V511.901C89.149 512.374 89.245 512.713 89.437 512.92C89.629 513.112 89.9613 513.208 90.4339 513.208H91.2314C92.2652 513.208 92.7821 512.639 92.7821 511.502ZM90.5004 515.645H89.9909C88.8241 515.645 87.9232 515.335 87.2882 514.714C86.6531 514.094 86.3356 513.201 86.3356 512.034V507.958C86.3356 506.791 86.6531 505.897 87.2882 505.277C87.9232 504.657 88.8241 504.347 89.9909 504.347H95.1082C95.4331 504.347 95.5956 504.502 95.5956 504.812V518.215C95.5956 518.51 95.4331 518.658 95.1082 518.658H93.2474C92.9372 518.658 92.7821 518.51 92.7821 518.215V514.426H92.6935C92.3391 515.239 91.608 515.645 90.5004 515.645ZM102.099 515.645H101.368C100.231 515.645 99.367 515.335 98.7763 514.714C98.2003 514.094 97.9123 513.201 97.9123 512.034V504.812C97.9123 504.502 98.0674 504.347 98.3775 504.347H100.261C100.571 504.347 100.726 504.502 100.726 504.812V511.901C100.726 512.374 100.822 512.713 101.014 512.92C101.22 513.112 101.553 513.208 102.011 513.208H102.83C103.849 513.208 104.359 512.647 104.359 511.524V504.812C104.359 504.502 104.514 504.347 104.824 504.347H106.685C107.01 504.347 107.172 504.502 107.172 504.812V515.18C107.172 515.49 107.01 515.645 106.685 515.645H104.824C104.514 515.645 104.359 515.49 104.359 515.18V514.449H104.27C104.108 514.847 103.82 515.15 103.406 515.357C102.993 515.549 102.557 515.645 102.099 515.645ZM109.73 502.442V500.514C109.73 500.219 109.877 500.071 110.173 500.071H112.1C112.395 500.071 112.543 500.211 112.543 500.492V502.442C112.543 502.737 112.395 502.885 112.1 502.885H110.173C109.877 502.885 109.73 502.737 109.73 502.442ZM109.73 515.18V504.812C109.73 504.502 109.877 504.347 110.173 504.347H112.078C112.388 504.347 112.543 504.502 112.543 504.812V515.18C112.543 515.372 112.506 515.497 112.432 515.556C112.373 515.615 112.262 515.645 112.1 515.645H110.195C109.885 515.645 109.73 515.49 109.73 515.18ZM119.235 515.645H118.327C117.189 515.645 116.325 515.335 115.735 514.714C115.159 514.094 114.871 513.201 114.871 512.034V507.958C114.871 506.791 115.159 505.897 115.735 505.277C116.325 504.657 117.189 504.347 118.327 504.347H119.235C119.693 504.347 120.128 504.45 120.542 504.657C120.955 504.849 121.243 505.144 121.406 505.543H121.494V500.536C121.494 500.226 121.649 500.071 121.96 500.071H123.843C124.153 500.071 124.308 500.226 124.308 500.536V515.18C124.308 515.49 124.153 515.645 123.843 515.645H121.96C121.649 515.645 121.494 515.49 121.494 515.18V514.449H121.406C121.243 514.847 120.955 515.15 120.542 515.357C120.128 515.549 119.693 515.645 119.235 515.645ZM121.494 511.524V508.467C121.494 507.345 120.985 506.784 119.966 506.784H118.969C118.496 506.784 118.164 506.887 117.972 507.094C117.78 507.286 117.684 507.618 117.684 508.091V511.901C117.684 512.374 117.78 512.713 117.972 512.92C118.164 513.112 118.496 513.208 118.969 513.208H119.966C120.985 513.208 121.494 512.647 121.494 511.524ZM126.864 502.442V500.514C126.864 500.219 127.011 500.071 127.307 500.071H129.234C129.529 500.071 129.677 500.211 129.677 500.492V502.442C129.677 502.737 129.529 502.885 129.234 502.885H127.307C127.011 502.885 126.864 502.737 126.864 502.442ZM126.864 515.18V504.812C126.864 504.502 127.011 504.347 127.307 504.347H129.212C129.522 504.347 129.677 504.502 129.677 504.812V515.18C129.677 515.372 129.64 515.497 129.566 515.556C129.507 515.615 129.396 515.645 129.234 515.645H127.329C127.019 515.645 126.864 515.49 126.864 515.18ZM132.47 506.784H131.584C131.407 506.784 131.281 506.754 131.207 506.695C131.148 506.636 131.119 506.518 131.119 506.34V504.812C131.119 504.502 131.274 504.347 131.584 504.347H132.47C132.632 504.347 132.714 504.265 132.714 504.103V501.998C132.714 501.688 132.876 501.533 133.201 501.533H135.062C135.372 501.533 135.527 501.688 135.527 501.998V504.103C135.527 504.265 135.616 504.347 135.793 504.347H137.521C137.831 504.347 137.986 504.502 137.986 504.812V506.34C137.986 506.503 137.949 506.621 137.875 506.695C137.816 506.754 137.698 506.784 137.521 506.784H135.793C135.616 506.784 135.527 506.865 135.527 507.027V511.923C135.527 512.381 135.63 512.713 135.837 512.92C136.044 513.112 136.384 513.208 136.856 513.208H137.742C138.052 513.208 138.208 513.363 138.208 513.673V515.202C138.208 515.364 138.171 515.482 138.097 515.556C138.038 515.615 137.92 515.645 137.742 515.645H136.391C135.224 515.645 134.316 515.335 133.666 514.714C133.031 514.094 132.714 513.208 132.714 512.056V507.027C132.714 506.865 132.632 506.784 132.47 506.784ZM141.875 519.389H140.457C140.162 519.389 140.014 519.226 140.014 518.901V517.417C140.014 517.092 140.162 516.93 140.457 516.93H140.922C141.853 516.93 142.48 516.797 142.805 516.531C143.145 516.28 143.403 515.785 143.58 515.047H142.406C142.126 515.047 141.941 514.892 141.853 514.581L139.261 504.812C139.172 504.502 139.283 504.347 139.593 504.347H141.565C141.86 504.347 142.045 504.502 142.118 504.812L144.024 512.986H144.112L145.995 504.812C146.054 504.502 146.239 504.347 146.549 504.347H148.41C148.779 504.347 148.927 504.509 148.853 504.834L146.15 515.645C145.825 516.871 145.323 517.801 144.644 518.436C143.964 519.071 143.041 519.389 141.875 519.389ZM152.923 504.768V507.492C152.923 507.803 152.782 507.958 152.502 507.958H150.53C150.235 507.958 150.087 507.788 150.087 507.448V504.79C150.087 504.494 150.235 504.347 150.53 504.347H152.502C152.782 504.347 152.923 504.487 152.923 504.768ZM152.923 512.455V515.18C152.923 515.49 152.782 515.645 152.502 515.645H150.53C150.235 515.645 150.087 515.482 150.087 515.157V512.477C150.087 512.182 150.235 512.034 150.53 512.034H152.502C152.782 512.034 152.923 512.174 152.923 512.455ZM163.486 507.36H164.616C165.103 507.36 165.45 507.264 165.657 507.072C165.878 506.865 165.989 506.532 165.989 506.075V505.033C165.989 504.576 165.878 504.251 165.657 504.059C165.45 503.852 165.103 503.749 164.616 503.749H163.552C163.08 503.749 162.747 503.852 162.555 504.059C162.363 504.251 162.267 504.576 162.267 505.033V505.587C162.267 505.897 162.112 506.052 161.802 506.052H159.919C159.609 506.052 159.454 505.897 159.454 505.587V504.989C159.454 503.837 159.771 502.951 160.406 502.331C161.041 501.71 161.942 501.4 163.109 501.4H165.081C166.247 501.4 167.148 501.71 167.783 502.331C168.418 502.951 168.736 503.837 168.736 504.989V506.097C168.736 507.337 168.153 508.142 166.986 508.511C168.153 508.763 168.736 509.567 168.736 510.926V512.056C168.736 513.208 168.418 514.094 167.783 514.714C167.148 515.335 166.247 515.645 165.081 515.645H163.109C161.942 515.645 161.041 515.335 160.406 514.714C159.771 514.094 159.454 513.208 159.454 512.056V511.436C159.454 511.111 159.609 510.948 159.919 510.948H161.802C162.112 510.948 162.267 511.111 162.267 511.436V512.012C162.267 512.484 162.363 512.817 162.555 513.009C162.747 513.201 163.08 513.297 163.552 513.297H164.616C165.103 513.297 165.45 513.201 165.657 513.009C165.878 512.802 165.989 512.47 165.989 512.012V510.926C165.989 510.468 165.878 510.143 165.657 509.951C165.45 509.745 165.103 509.641 164.616 509.641H163.486C163.176 509.641 163.02 509.486 163.02 509.176V507.847C163.02 507.522 163.176 507.36 163.486 507.36ZM185.672 501.4H188.951C189.261 501.4 189.416 501.555 189.416 501.866V515.18C189.416 515.49 189.261 515.645 188.951 515.645H187.134C186.824 515.645 186.669 515.49 186.669 515.18V504.679H186.581L184.321 512.1C184.232 512.396 184.048 512.543 183.767 512.543H181.906C181.626 512.543 181.441 512.396 181.353 512.1L179.049 504.657H178.96V515.18C178.96 515.357 178.93 515.482 178.871 515.556C178.812 515.615 178.687 515.645 178.495 515.645H176.678C176.368 515.645 176.213 515.49 176.213 515.18V501.866C176.213 501.555 176.368 501.4 176.678 501.4H179.979C180.186 501.4 180.326 501.504 180.4 501.71L182.748 509.531H182.881L185.251 501.71C185.296 501.504 185.436 501.4 185.672 501.4ZM197.471 515.645H195.499C194.332 515.645 193.432 515.335 192.796 514.714C192.161 514.094 191.844 513.201 191.844 512.034V507.958C191.844 506.791 192.161 505.897 192.796 505.277C193.432 504.657 194.332 504.347 195.499 504.347H197.471C198.623 504.347 199.516 504.664 200.151 505.299C200.801 505.92 201.126 506.806 201.126 507.958V512.034C201.126 513.186 200.801 514.079 200.151 514.714C199.516 515.335 198.623 515.645 197.471 515.645ZM195.92 513.23H197.05C197.522 513.23 197.855 513.134 198.047 512.942C198.254 512.75 198.357 512.418 198.357 511.945V508.046C198.357 507.574 198.254 507.241 198.047 507.049C197.855 506.857 197.522 506.761 197.05 506.761H195.92C195.447 506.761 195.115 506.857 194.923 507.049C194.731 507.241 194.635 507.574 194.635 508.046V511.945C194.635 512.418 194.731 512.75 194.923 512.942C195.115 513.134 195.447 513.23 195.92 513.23ZM205.685 515.645H203.802C203.492 515.645 203.337 515.49 203.337 515.18V504.812C203.337 504.502 203.492 504.347 203.802 504.347H205.685C205.995 504.347 206.15 504.502 206.15 504.812V505.543H206.239C206.564 504.745 207.287 504.347 208.41 504.347H209.119C211.437 504.347 212.597 505.55 212.597 507.958V515.18C212.597 515.49 212.434 515.645 212.109 515.645H210.248C209.938 515.645 209.783 515.49 209.783 515.18V508.091C209.783 507.618 209.68 507.286 209.473 507.094C209.281 506.887 208.949 506.784 208.476 506.784H207.679C206.66 506.784 206.15 507.345 206.15 508.467V515.18C206.15 515.49 205.995 515.645 205.685 515.645ZM215.176 506.784H214.29C214.113 506.784 213.987 506.754 213.913 506.695C213.854 506.636 213.825 506.518 213.825 506.34V504.812C213.825 504.502 213.98 504.347 214.29 504.347H215.176C215.339 504.347 215.42 504.265 215.42 504.103V501.998C215.42 501.688 215.582 501.533 215.907 501.533H217.768C218.078 501.533 218.233 501.688 218.233 501.998V504.103C218.233 504.265 218.322 504.347 218.499 504.347H220.227C220.537 504.347 220.692 504.502 220.692 504.812V506.34C220.692 506.503 220.655 506.621 220.581 506.695C220.522 506.754 220.404 506.784 220.227 506.784H218.499C218.322 506.784 218.233 506.865 218.233 507.027V511.923C218.233 512.381 218.337 512.713 218.543 512.92C218.75 513.112 219.09 513.208 219.562 513.208H220.449C220.759 513.208 220.914 513.363 220.914 513.673V515.202C220.914 515.364 220.877 515.482 220.803 515.556C220.744 515.615 220.626 515.645 220.449 515.645H219.097C217.93 515.645 217.022 515.335 216.372 514.714C215.737 514.094 215.42 513.208 215.42 512.056V507.027C215.42 506.865 215.339 506.784 215.176 506.784ZM225.09 515.645H223.207C222.897 515.645 222.742 515.49 222.742 515.18V500.536C222.742 500.226 222.897 500.071 223.207 500.071H225.09C225.401 500.071 225.556 500.226 225.556 500.536V505.543H225.644C225.969 504.745 226.693 504.347 227.815 504.347H228.524C230.843 504.347 232.002 505.55 232.002 507.958V515.18C232.002 515.49 231.84 515.645 231.515 515.645H229.654C229.344 515.645 229.189 515.49 229.189 515.18V508.091C229.189 507.618 229.085 507.286 228.879 507.094C228.687 506.887 228.354 506.784 227.882 506.784H227.084C226.065 506.784 225.556 507.345 225.556 508.467V515.18C225.556 515.49 225.401 515.645 225.09 515.645ZM238.613 515.645H234.404C234.109 515.645 233.961 515.49 233.961 515.18V513.762C233.961 513.599 233.991 513.489 234.05 513.429C234.109 513.356 234.227 513.319 234.404 513.319H238.104C238.828 513.319 239.189 513.097 239.189 512.654V512.543C239.189 512.189 238.887 511.849 238.281 511.524L236.088 510.306C235.335 509.922 234.781 509.508 234.427 509.065C234.072 508.622 233.895 508.054 233.895 507.36C233.895 506.326 234.168 505.565 234.715 505.078C235.261 504.59 236.118 504.347 237.284 504.347H240.984C241.279 504.347 241.427 504.502 241.427 504.812V506.252C241.427 506.414 241.397 506.532 241.338 506.606C241.279 506.665 241.161 506.695 240.984 506.695H237.905C237.181 506.695 236.819 506.88 236.819 507.249V507.36C236.819 507.684 237.137 508.017 237.772 508.356L240.009 509.686C240.777 510.099 241.316 510.527 241.626 510.97C241.936 511.399 242.092 511.967 242.092 512.676C242.092 514.655 240.932 515.645 238.613 515.645Z" fill="#00C4F4"/>
<path d="M311.213 90.9061C313.701 90.9061 316.212 90.085 318.313 88.4187C323.191 84.5066 323.988 77.3343 320.076 72.432C316.164 67.5297 308.992 66.757 304.113 70.6691C301.747 72.5769 300.25 75.2816 299.936 78.2761C299.598 81.2947 300.467 84.2651 302.351 86.6317C304.596 89.433 307.881 90.9061 311.213 90.9061ZM318.192 73.9534C321.283 77.7931 320.656 83.444 316.792 86.5351C312.952 89.6262 307.301 88.9983 304.21 85.1345C302.713 83.275 302.037 80.9325 302.302 78.5659C302.568 76.1993 303.727 74.05 305.611 72.5769C309.475 69.4617 315.101 70.0895 318.192 73.9534Z" fill="#8B8B8B"/>
<path d="M305.514 79.5321C305.514 82.6715 308.074 85.2313 311.213 85.2313C314.353 85.2313 316.913 82.6715 316.913 79.5321C316.913 76.3928 314.353 73.8329 311.213 73.8329C308.074 73.8329 305.514 76.3928 305.514 79.5321Z" fill="#8B8B8B"/>
<path d="M558.721 173.742L498.865 123.136H373.711L322.56 86.1338" stroke="#541937" stroke-width="2.1766" stroke-linecap="round"/>
<path d="M1119.23 100.199C1116.74 100.199 1114.23 99.3776 1112.13 97.7113C1107.25 93.7992 1106.46 86.6269 1110.37 81.7246C1114.28 76.8223 1121.45 76.0496 1126.33 79.9617C1128.7 81.8695 1130.19 84.5742 1130.51 87.5687C1130.85 90.5874 1129.98 93.5577 1128.09 95.9243C1125.85 98.7256 1122.56 100.199 1119.23 100.199ZM1112.25 83.246C1109.16 87.0857 1109.79 92.7366 1113.65 95.8277C1117.49 98.9188 1123.14 98.2909 1126.23 94.4271C1127.73 92.5676 1128.41 90.2251 1128.14 87.8585C1127.88 85.4919 1126.72 83.3426 1124.83 81.8695C1120.97 78.7543 1115.34 79.3821 1112.25 83.246Z" fill="#8B8B8B"/>
<path d="M1124.93 88.8247C1124.93 91.9641 1122.37 94.5239 1119.23 94.5239C1116.09 94.5239 1113.53 91.9641 1113.53 88.8247C1113.53 85.6853 1116.09 83.1255 1119.23 83.1255C1122.37 83.1255 1124.93 85.6853 1124.93 88.8247Z" fill="#8B8B8B"/>
<path d="M871.722 183.034L931.578 132.429H1056.73L1107.88 95.4264" stroke="#541937" stroke-width="2.1766" stroke-linecap="round"/>
<rect x="1154.65" y="23.7682" width="84.4586" height="23.5376" fill="url(#paint5_linear_49_17436)"/>
<path fill-rule="evenodd" clip-rule="evenodd" d="M1157.71 59.7666C1156.02 59.7666 1154.65 61.1372 1154.65 62.8278V105.063C1154.65 106.107 1155.18 107.08 1156.07 107.642L1180.06 122.975C1180.55 123.29 1181.12 123.457 1181.7 123.457H1341.28C1342.97 123.457 1344.34 122.086 1344.34 120.396V81.2091C1344.34 80.1497 1343.79 79.1656 1342.89 78.6074L1313.24 60.2261C1312.76 59.9258 1312.2 59.7666 1311.63 59.7666H1157.71ZM1159.55 63.3052C1157.86 63.3052 1156.49 64.6757 1156.49 66.3663V102.455C1156.49 103.531 1157.05 104.527 1157.97 105.08L1180.02 118.303C1180.5 118.588 1181.04 118.739 1181.59 118.739H1329.36C1331.05 118.739 1332.43 117.369 1332.43 115.678V82.2456C1332.43 81.1556 1331.85 80.1478 1330.9 79.5997L1303.61 63.7204C1303.14 63.4484 1302.61 63.3052 1302.07 63.3052H1159.55Z" fill="#541937"/>
<path d="M1190.5 95.4179H1192.98C1193.47 95.4179 1193.81 95.3219 1194.02 95.1299C1194.24 94.9231 1194.35 94.5908 1194.35 94.133V92.8481C1194.35 92.3903 1194.24 92.0654 1194.02 91.8734C1193.8 91.6814 1193.44 91.5854 1192.93 91.5854H1190.5C1190.33 91.5854 1190.25 91.6666 1190.25 91.8291V95.1742C1190.25 95.3366 1190.33 95.4179 1190.5 95.4179ZM1190.5 89.3036H1192.76C1193.23 89.3036 1193.58 89.2076 1193.8 89.0156C1194.02 88.8089 1194.13 88.4766 1194.13 88.0187V87.1548C1194.13 86.6969 1194.02 86.372 1193.8 86.18C1193.59 85.9733 1193.25 85.8699 1192.78 85.8699H1190.5C1190.33 85.8699 1190.25 85.9511 1190.25 86.1136V89.0599C1190.25 89.2224 1190.33 89.3036 1190.5 89.3036ZM1187.44 97.3009V83.9869C1187.44 83.6767 1187.6 83.5217 1187.91 83.5217H1193.22C1194.39 83.5217 1195.29 83.8318 1195.92 84.4521C1196.56 85.0724 1196.88 85.9585 1196.88 87.1105V88.0187C1196.88 89.2741 1196.29 90.0864 1195.13 90.4556C1195.72 90.5442 1196.19 90.7879 1196.54 91.1866C1196.9 91.5706 1197.08 92.1244 1197.08 92.8481V94.1773C1197.08 95.3292 1196.76 96.2154 1196.12 96.8357C1195.49 97.4559 1194.6 97.7661 1193.44 97.7661H1187.91C1187.6 97.7661 1187.44 97.611 1187.44 97.3009ZM1203.58 97.7661H1202.85C1201.71 97.7661 1200.85 97.4559 1200.26 96.8357C1199.68 96.2154 1199.4 95.3219 1199.4 94.1551V86.9332C1199.4 86.6231 1199.55 86.468 1199.86 86.468H1201.74C1202.05 86.468 1202.21 86.6231 1202.21 86.9332V94.0222C1202.21 94.4948 1202.31 94.8345 1202.5 95.0413C1202.7 95.2332 1203.04 95.3292 1203.49 95.3292H1204.31C1205.33 95.3292 1205.84 94.768 1205.84 93.6456V86.9332C1205.84 86.6231 1206 86.468 1206.31 86.468H1208.17C1208.49 86.468 1208.66 86.6231 1208.66 86.9332V97.3009C1208.66 97.611 1208.49 97.7661 1208.17 97.7661H1206.31C1206 97.7661 1205.84 97.611 1205.84 97.3009V96.5698H1205.75C1205.59 96.9686 1205.3 97.2713 1204.89 97.4781C1204.48 97.6701 1204.04 97.7661 1203.58 97.7661ZM1212.94 101.51H1211.52C1211.23 101.51 1211.08 101.347 1211.08 101.023V99.5383C1211.08 99.2134 1211.23 99.051 1211.52 99.051H1211.99C1212.92 99.051 1213.55 98.918 1213.87 98.6522C1214.21 98.4011 1214.47 97.9064 1214.65 97.168H1213.47C1213.19 97.168 1213.01 97.0129 1212.92 96.7027L1210.33 86.9332C1210.24 86.6231 1210.35 86.468 1210.66 86.468H1212.63C1212.93 86.468 1213.11 86.6231 1213.18 86.9332L1215.09 95.1077H1215.18L1217.06 86.9332C1217.12 86.6231 1217.31 86.468 1217.62 86.468H1219.48C1219.85 86.468 1219.99 86.6305 1219.92 86.9554L1217.22 97.7661C1216.89 98.9919 1216.39 99.9223 1215.71 100.557C1215.03 101.192 1214.11 101.51 1212.94 101.51ZM1231.03 97.7661H1229.17C1228.84 97.7661 1228.68 97.611 1228.68 97.3009V86.2022C1228.68 86.0397 1228.6 85.9585 1228.44 85.9585H1225.91C1225.6 85.9585 1225.44 85.8034 1225.44 85.4933V83.9869C1225.44 83.6767 1225.6 83.5217 1225.91 83.5217H1234.28C1234.59 83.5217 1234.75 83.6767 1234.75 83.9869V85.4933C1234.75 85.8034 1234.59 85.9585 1234.28 85.9585H1231.76C1231.58 85.9585 1231.49 86.0397 1231.49 86.2022V97.3009C1231.49 97.611 1231.34 97.7661 1231.03 97.7661ZM1240.18 97.7661H1239.65C1238.49 97.7661 1237.59 97.4559 1236.95 96.8357C1236.32 96.2154 1236 95.3219 1236 94.1551V90.079C1236 88.9122 1236.32 88.0187 1236.95 87.3984C1237.59 86.7782 1238.49 86.468 1239.65 86.468H1244.77C1245.1 86.468 1245.26 86.6231 1245.26 86.9332V97.3009C1245.26 97.611 1245.1 97.7661 1244.77 97.7661H1242.91C1242.6 97.7661 1242.44 97.611 1242.44 97.3009V96.5698H1242.36C1242.19 96.9686 1241.91 97.2713 1241.49 97.4781C1241.08 97.6701 1240.64 97.7661 1240.18 97.7661ZM1242.44 93.6456V89.1485C1242.44 88.9861 1242.36 88.9049 1242.18 88.9049H1240.1C1239.62 88.9049 1239.29 89.0082 1239.1 89.215C1238.91 89.407 1238.81 89.7393 1238.81 90.2119V94.0222C1238.81 94.4948 1238.91 94.8345 1239.1 95.0413C1239.29 95.2332 1239.62 95.3292 1240.1 95.3292H1240.92C1241.93 95.3292 1242.44 94.768 1242.44 93.6456ZM1249.5 97.7661H1247.26C1246.88 97.7661 1246.78 97.611 1246.95 97.3009L1249.75 92.0063L1246.95 86.9332C1246.81 86.6231 1246.89 86.468 1247.22 86.468H1249.48C1249.83 86.468 1250.06 86.6231 1250.17 86.9332L1251.56 90.3005H1251.65L1252.87 86.9332C1252.97 86.6231 1253.2 86.468 1253.56 86.468H1255.77C1256.15 86.468 1256.25 86.6231 1256.06 86.9332L1253.4 92.0063L1256.26 97.3009C1256.33 97.4338 1256.34 97.5446 1256.28 97.6332C1256.24 97.7218 1256.14 97.7661 1255.99 97.7661H1253.71C1253.4 97.7661 1253.18 97.611 1253.05 97.3009L1251.65 93.9114H1251.56L1250.17 97.3009C1250.06 97.611 1249.84 97.7661 1249.5 97.7661ZM1260.38 86.8889V89.6138C1260.38 89.9239 1260.24 90.079 1259.96 90.079H1257.98C1257.69 90.079 1257.54 89.9091 1257.54 89.5695V86.9111C1257.54 86.6157 1257.69 86.468 1257.98 86.468H1259.96C1260.24 86.468 1260.38 86.6083 1260.38 86.8889ZM1260.38 94.576V97.3009C1260.38 97.611 1260.24 97.7661 1259.96 97.7661H1257.98C1257.69 97.7661 1257.54 97.6036 1257.54 97.2787V94.5982C1257.54 94.3028 1257.69 94.1551 1257.98 94.1551H1259.96C1260.24 94.1551 1260.38 94.2954 1260.38 94.576ZM1272.14 90.522H1271.1C1270.71 90.522 1270.42 90.6771 1270.21 90.9872C1270.02 91.2974 1269.81 91.4525 1269.59 91.4525H1267.75C1267.44 91.4525 1267.28 91.3048 1267.28 91.0094V83.9869C1267.28 83.6767 1267.44 83.5217 1267.75 83.5217H1275.46C1275.77 83.5217 1275.92 83.6767 1275.92 83.9869V85.6705C1275.92 85.9807 1275.77 86.1357 1275.46 86.1357H1270.1V89.3922C1270.35 88.6538 1270.97 88.2846 1271.96 88.2846H1272.89C1275.18 88.2846 1276.32 89.4291 1276.32 91.7183V94.1551C1276.32 95.3071 1276.01 96.2006 1275.37 96.8357C1274.74 97.4559 1273.84 97.7661 1272.69 97.7661H1270.74C1269.57 97.7661 1268.67 97.4559 1268.04 96.8357C1267.4 96.2154 1267.09 95.3219 1267.09 94.1551V93.7121C1267.09 93.3872 1267.24 93.2247 1267.55 93.2247H1269.43C1269.74 93.2247 1269.9 93.3872 1269.9 93.7121V94.133C1269.9 94.5908 1269.99 94.9231 1270.19 95.1299C1270.39 95.3219 1270.73 95.4179 1271.18 95.4179H1272.22C1272.7 95.4179 1273.04 95.3219 1273.27 95.1299C1273.49 94.9231 1273.6 94.5908 1273.6 94.133V92.1392C1273.6 91.5189 1273.5 91.098 1273.29 90.8765C1273.08 90.6402 1272.7 90.522 1272.14 90.522ZM1289.86 92.5601H1289.35C1289.02 92.5601 1288.8 92.6266 1288.68 92.7595C1288.56 92.8776 1288.5 93.0918 1288.5 93.4019V95.3292C1288.5 95.6542 1288.56 95.8831 1288.68 96.016C1288.8 96.1341 1289.02 96.1932 1289.35 96.1932H1289.86C1290.17 96.1932 1290.38 96.1268 1290.5 95.9938C1290.63 95.8609 1290.7 95.6394 1290.7 95.3292V93.4019C1290.7 93.0918 1290.64 92.8776 1290.52 92.7595C1290.4 92.6266 1290.18 92.5601 1289.86 92.5601ZM1288.93 90.9872H1290.23C1291 90.9872 1291.58 91.1866 1291.98 91.5854C1292.38 91.9841 1292.58 92.5601 1292.58 93.3133V95.44C1292.58 96.1932 1292.38 96.7692 1291.98 97.168C1291.58 97.5667 1291 97.7661 1290.23 97.7661H1288.93C1288.17 97.7661 1287.59 97.5667 1287.18 97.168C1286.78 96.7692 1286.58 96.1932 1286.58 95.44V93.3133C1286.58 92.5601 1286.78 91.9841 1287.18 91.5854C1287.59 91.1866 1288.17 90.9872 1288.93 90.9872ZM1281.66 85.0724H1281.15C1280.82 85.0724 1280.6 85.1388 1280.48 85.2718C1280.37 85.3899 1280.31 85.6114 1280.31 85.9363V87.8637C1280.31 88.1738 1280.37 88.3953 1280.48 88.5283C1280.6 88.6464 1280.82 88.7055 1281.15 88.7055H1281.66C1281.98 88.7055 1282.21 88.6464 1282.32 88.5283C1282.44 88.3953 1282.5 88.1738 1282.5 87.8637V85.9363C1282.5 85.6262 1282.43 85.4047 1282.3 85.2718C1282.18 85.1388 1281.97 85.0724 1281.66 85.0724ZM1280.75 83.4995H1282.06C1282.83 83.4995 1283.41 83.6989 1283.81 84.0976C1284.21 84.4964 1284.41 85.0724 1284.41 85.8256V87.9523C1284.41 88.7055 1284.21 89.2815 1283.81 89.6802C1283.41 90.079 1282.83 90.2783 1282.06 90.2783H1280.75C1280 90.2783 1279.41 90.079 1279 89.6802C1278.6 89.2815 1278.4 88.7055 1278.4 87.9523V85.8256C1278.4 85.0724 1278.6 84.4964 1279 84.0976C1279.41 83.6989 1280 83.4995 1280.75 83.4995ZM1283.3 97.7661H1282.15C1281.81 97.7661 1281.7 97.611 1281.81 97.3009C1282.29 96.0898 1283.17 93.8745 1284.45 90.6549C1285.74 87.4206 1286.61 85.1979 1287.09 83.9869C1287.22 83.6767 1287.41 83.5217 1287.66 83.5217H1288.84C1289.18 83.5217 1289.29 83.6767 1289.17 83.9869L1283.9 97.3009C1283.78 97.611 1283.58 97.7661 1283.3 97.7661Z" fill="#00C4F4"/>
<rect x="513.893" y="500.532" width="393.228" height="393.228" rx="196.614" transform="rotate(-89.9348 513.893 500.532)" stroke="#1E9CA5" stroke-width="4.33227"/>
<path fill-rule="evenodd" clip-rule="evenodd" d="M711.483 159.246L725.151 184.169L665.389 292.731L697.388 309.628L746.934 222.609L846.455 407.63H815.274L653.297 314.697L602.139 407.63H573.522L711.483 159.246ZM745.653 271.61L720.026 318.499L795.2 362.853L745.653 271.61Z" fill="url(#paint6_radial_49_17436)"/>
<path d="M677.313 349.336L698.669 362.431L673.469 407.207H646.133L677.313 349.336Z" fill="url(#paint7_radial_49_17436)"/>
<defs>
<linearGradient id="paint0_linear_49_17436" x1="1247.3" y1="219.036" x2="1261.47" y2="242.719" gradientUnits="userSpaceOnUse">
<stop stop-color="#2A5642"/>
<stop offset="1" stop-color="#2A5642" stop-opacity="0"/>
</linearGradient>
<linearGradient id="paint1_linear_49_17436" x1="1187.88" y1="463.848" x2="1202.05" y2="487.531" gradientUnits="userSpaceOnUse">
<stop stop-color="#9C00D3"/>
<stop offset="1" stop-color="#9C00D3" stop-opacity="0"/>
</linearGradient>
<linearGradient id="paint2_linear_49_17436" x1="80.2877" y1="19.384" x2="94.4582" y2="43.067" gradientUnits="userSpaceOnUse">
<stop stop-color="#541937"/>
<stop offset="1" stop-color="#541937" stop-opacity="0"/>
</linearGradient>
<linearGradient id="paint3_linear_49_17436" x1="59.3055" y1="187.036" x2="73.476" y2="210.719" gradientUnits="userSpaceOnUse">
<stop stop-color="#2A5642"/>
<stop offset="1" stop-color="#2A5642" stop-opacity="0"/>
</linearGradient>
<linearGradient id="paint4_linear_49_17436" x1="44.6354" y1="456.717" x2="58.8059" y2="480.4" gradientUnits="userSpaceOnUse">
<stop stop-color="#9C00D3"/>
<stop offset="1" stop-color="#9C00D3" stop-opacity="0"/>
</linearGradient>
<linearGradient id="paint5_linear_49_17436" x1="1187.88" y1="43.1522" x2="1202.05" y2="66.8351" gradientUnits="userSpaceOnUse">
<stop stop-color="#541937"/>
<stop offset="1" stop-color="#541937" stop-opacity="0"/>
</linearGradient>
<radialGradient id="paint6_radial_49_17436" cx="0" cy="0" r="1" gradientUnits="userSpaceOnUse" gradientTransform="translate(709.988 283.438) rotate(90) scale(124.192 136.466)">
<stop offset="0.46" stop-color="#2FF5FD" stop-opacity="0.62"/>
<stop offset="1" stop-color="#00A1A7" stop-opacity="0.29"/>
</radialGradient>
<radialGradient id="paint7_radial_49_17436" cx="0" cy="0" r="1" gradientUnits="userSpaceOnUse" gradientTransform="translate(709.988 283.438) rotate(90) scale(124.192 136.466)">
<stop offset="0.46" stop-color="#2FF5FD" stop-opacity="0.62"/>
<stop offset="1" stop-color="#00A1A7" stop-opacity="0.29"/>
</radialGradient>
</defs>
</svg>
