<svg width="263" height="185" viewBox="0 0 263 185" fill="none" xmlns="http://www.w3.org/2000/svg">
<g clip-path="url(#clip0_47_3)">
<rect x="0.500569" y="128.079" width="95.3517" height="95.3517" rx="47.6758" transform="rotate(-89.9348 0.500569 128.079)" stroke="#1E9CA5"/>
<path fill-rule="evenodd" clip-rule="evenodd" d="M50.3589 47.0001L53.7142 53.0205L39.0437 79.245L46.8988 83.3267L59.0616 62.3062L83.4919 107H75.8378L36.0754 84.5511L23.517 107H16.4919L50.3589 47.0001ZM58.747 74.143L52.4559 85.4695L70.9098 96.1838L58.747 74.143Z" fill="url(#paint0_radial_47_3)"/>
<path d="M41.9708 92.9185L47.2134 96.0818L41.0272 106.898H34.3167L41.9708 92.9185Z" fill="url(#paint1_radial_47_3)"/>
<rect x="75.3182" y="0.00756836" width="22.0798" height="6.15339" fill="url(#paint2_linear_47_3)"/>
<path fill-rule="evenodd" clip-rule="evenodd" d="M76.1185 9.77991C75.6766 9.77991 75.3183 10.1382 75.3183 10.5802V21.5717C75.3183 21.8714 75.4858 22.1461 75.7524 22.2833L83.6401 26.3416C83.7533 26.3999 83.8789 26.4303 84.0062 26.4303H136.115C136.556 26.4303 136.915 26.072 136.915 25.63V15.4351C136.915 15.1318 136.743 14.8545 136.472 14.7191L126.745 9.86415C126.634 9.80875 126.512 9.77991 126.388 9.77991H76.1185ZM76.7136 10.7043C76.2716 10.7043 75.9133 11.0626 75.9133 11.5046V20.8902C75.9133 21.1973 76.0891 21.4773 76.3657 21.6108L83.6271 25.1167C83.7356 25.1691 83.8545 25.1963 83.975 25.1963H132.246C132.688 25.1963 133.046 24.838 133.046 24.396V15.7045C133.046 15.394 132.867 15.1115 132.586 14.9798L123.619 10.7799C123.512 10.7301 123.397 10.7043 123.279 10.7043H76.7136Z" fill="#541937"/>
<path d="M80.6893 20.2444H80.2029C80.1179 20.2444 80.0754 20.2038 80.0754 20.1228V17.2213C80.0754 17.1788 80.0542 17.1576 80.0117 17.1576H79.3515C79.2704 17.1576 79.2299 17.117 79.2299 17.0359V16.6421C79.2299 16.561 79.2704 16.5205 79.3515 16.5205H81.5407C81.6218 16.5205 81.6623 16.561 81.6623 16.6421V17.0359C81.6623 17.117 81.6218 17.1576 81.5407 17.1576H80.8805C80.8341 17.1576 80.811 17.1788 80.811 17.2213V20.1228C80.811 20.2038 80.7704 20.2444 80.6893 20.2444ZM83.4597 20.2444H82.9443C82.6393 20.2444 82.4037 20.1633 82.2377 20.0011C82.0717 19.839 81.9887 19.6054 81.9887 19.3004V18.2348C81.9887 17.9297 82.0717 17.6962 82.2377 17.534C82.4037 17.3718 82.6393 17.2908 82.9443 17.2908H83.4597C83.7609 17.2908 83.9945 17.3738 84.1605 17.5398C84.3304 17.7019 84.4153 17.9336 84.4153 18.2348V19.3004C84.4153 19.6015 84.3304 19.8351 84.1605 20.0011C83.9945 20.1633 83.7609 20.2444 83.4597 20.2444ZM83.0543 19.6131H83.3497C83.4732 19.6131 83.5601 19.588 83.6103 19.5378C83.6643 19.4876 83.6914 19.4008 83.6914 19.2772V18.2579C83.6914 18.1344 83.6643 18.0475 83.6103 17.9973C83.5601 17.9471 83.4732 17.922 83.3497 17.922H83.0543C82.9308 17.922 82.8439 17.9471 82.7937 17.9973C82.7435 18.0475 82.7184 18.1344 82.7184 18.2579V19.2772C82.7184 19.4008 82.7435 19.4876 82.7937 19.5378C82.8439 19.588 82.9308 19.6131 83.0543 19.6131ZM85.0569 17.9278H84.8253C84.7789 17.9278 84.7461 17.9201 84.7268 17.9046C84.7114 17.8892 84.7037 17.8583 84.7037 17.812V17.4124C84.7037 17.3313 84.7442 17.2908 84.8253 17.2908H85.0569C85.0994 17.2908 85.1206 17.2695 85.1206 17.2271V16.6769C85.1206 16.5958 85.1631 16.5552 85.248 16.5552H85.7345C85.8156 16.5552 85.8561 16.5958 85.8561 16.6769V17.2271C85.8561 17.2695 85.8793 17.2908 85.9256 17.2908H86.3774C86.4585 17.2908 86.499 17.3313 86.499 17.4124V17.812C86.499 17.8545 86.4893 17.8853 86.47 17.9046C86.4546 17.9201 86.4237 17.9278 86.3774 17.9278H85.9256C85.8793 17.9278 85.8561 17.9491 85.8561 17.9915V19.2714C85.8561 19.3911 85.8832 19.478 85.9372 19.532C85.9913 19.5822 86.0801 19.6073 86.2036 19.6073H86.4353C86.5164 19.6073 86.5569 19.6479 86.5569 19.7289V20.1286C86.5569 20.171 86.5473 20.2019 86.528 20.2212C86.5125 20.2367 86.4816 20.2444 86.4353 20.2444H86.082C85.777 20.2444 85.5395 20.1633 85.3697 20.0011C85.2036 19.839 85.1206 19.6073 85.1206 19.3062V17.9915C85.1206 17.9491 85.0994 17.9278 85.0569 17.9278ZM88.0716 20.2444H87.9326C87.6276 20.2444 87.3921 20.1633 87.226 20.0011C87.06 19.839 86.977 19.6054 86.977 19.3004V18.2348C86.977 17.9297 87.06 17.6962 87.226 17.534C87.3921 17.3718 87.6276 17.2908 87.9326 17.2908H89.2704C89.3554 17.2908 89.3978 17.3313 89.3978 17.4124V20.1228C89.3978 20.2038 89.3554 20.2444 89.2704 20.2444H88.7839C88.7029 20.2444 88.6623 20.2038 88.6623 20.1228V19.9316H88.6392C88.5967 20.0359 88.5214 20.115 88.4133 20.1691C88.3052 20.2193 88.1913 20.2444 88.0716 20.2444ZM88.6623 19.1672V17.9915C88.6623 17.9491 88.6392 17.9278 88.5928 17.9278H88.0484C87.9249 17.9278 87.838 17.9548 87.7878 18.0089C87.7376 18.0591 87.7125 18.146 87.7125 18.2695V19.2656C87.7125 19.3892 87.7376 19.478 87.7878 19.532C87.838 19.5822 87.9249 19.6073 88.0484 19.6073H88.2627C88.5291 19.6073 88.6623 19.4606 88.6623 19.1672ZM90.6753 20.2444H90.183C90.1019 20.2444 90.0614 20.2038 90.0614 20.1228V16.2946C90.0614 16.2136 90.1019 16.173 90.183 16.173H90.6753C90.7564 16.173 90.7969 16.2136 90.7969 16.2946V20.1228C90.7969 20.2038 90.7564 20.2444 90.6753 20.2444ZM92.7011 19.2946V19.1788C92.7011 19.0977 92.7416 19.0571 92.8227 19.0571H93.315C93.3961 19.0571 93.4366 19.0977 93.4366 19.1788V19.2251C93.4366 19.3718 93.4656 19.4722 93.5235 19.5262C93.5814 19.5803 93.6876 19.6073 93.842 19.6073H94.1142C94.2648 19.6073 94.369 19.5784 94.427 19.5205C94.4887 19.4625 94.5196 19.3544 94.5196 19.1961V19.1266C94.5196 19.0147 94.4733 18.9297 94.3806 18.8718C94.2918 18.81 94.1799 18.7734 94.0447 18.7618C93.9096 18.7502 93.7629 18.729 93.6046 18.6981C93.4501 18.6633 93.3053 18.6209 93.1702 18.5707C93.0351 18.5166 92.9212 18.4143 92.8285 18.2637C92.7397 18.1093 92.6953 17.9124 92.6953 17.673V17.4703C92.6953 17.1691 92.7803 16.9356 92.9501 16.7695C93.12 16.6035 93.3555 16.5205 93.6567 16.5205H94.2358C94.5409 16.5205 94.7783 16.6035 94.9482 16.7695C95.1181 16.9356 95.203 17.1691 95.203 17.4703V17.5803C95.203 17.6614 95.1625 17.7019 95.0814 17.7019H94.5891C94.508 17.7019 94.4675 17.6614 94.4675 17.5803V17.5456C94.4675 17.395 94.4385 17.2927 94.3806 17.2386C94.3227 17.1846 94.2165 17.1576 94.0621 17.1576H93.8362C93.6779 17.1576 93.5698 17.1884 93.5119 17.2502C93.4579 17.3081 93.4308 17.424 93.4308 17.5977V17.7077C93.4308 17.8892 93.5891 17.9935 93.9057 18.0205C94.2339 18.0475 94.5254 18.1131 94.7802 18.2174C94.9154 18.2753 95.0273 18.3795 95.1161 18.5301C95.2088 18.6768 95.2551 18.866 95.2551 19.0977V19.2946C95.2551 19.5957 95.1702 19.8293 95.0003 19.9954C94.8304 20.1614 94.5949 20.2444 94.2938 20.2444H93.6625C93.3613 20.2444 93.1258 20.1614 92.9559 19.9954C92.7861 19.8293 92.7011 19.5957 92.7011 19.2946ZM96.9234 20.2444H96.7323C96.435 20.2444 96.2091 20.1633 96.0547 20.0011C95.9041 19.839 95.8288 19.6054 95.8288 19.3004V17.4124C95.8288 17.3313 95.8694 17.2908 95.9505 17.2908H96.4427C96.5238 17.2908 96.5644 17.3313 96.5644 17.4124V19.2656C96.5644 19.3892 96.5894 19.478 96.6396 19.532C96.6937 19.5822 96.7806 19.6073 96.9003 19.6073H97.1145C97.3809 19.6073 97.5141 19.4606 97.5141 19.1672V17.4124C97.5141 17.3313 97.5547 17.2908 97.6358 17.2908H98.1222C98.2072 17.2908 98.2497 17.3313 98.2497 17.4124V20.1228C98.2497 20.2038 98.2072 20.2444 98.1222 20.2444H97.6358C97.5547 20.2444 97.5141 20.2038 97.5141 20.1228V19.9316H97.491C97.4485 20.0359 97.3732 20.115 97.2651 20.1691C97.157 20.2193 97.0431 20.2444 96.9234 20.2444ZM99.5031 21.032H99.0109C98.9298 21.032 98.8892 20.9934 98.8892 20.9162V17.4124C98.8892 17.3313 98.9298 17.2908 99.0109 17.2908H99.5031C99.5842 17.2908 99.6248 17.3313 99.6248 17.4124V17.6035H99.6479C99.6904 17.4993 99.7657 17.422 99.8738 17.3718C99.9819 17.3178 100.096 17.2908 100.215 17.2908H100.453C100.75 17.2908 100.974 17.3718 101.125 17.534C101.279 17.6962 101.356 17.9297 101.356 18.2348V19.3004C101.356 19.6054 101.279 19.839 101.125 20.0011C100.974 20.1633 100.75 20.2444 100.453 20.2444H100.215C100.096 20.2444 99.9819 20.2193 99.8738 20.1691C99.7657 20.115 99.6904 20.0359 99.6479 19.9316H99.6248V20.9162C99.6248 20.9934 99.5842 21.032 99.5031 21.032ZM100.024 19.6073H100.279C100.403 19.6073 100.49 19.5822 100.54 19.532C100.594 19.478 100.621 19.3892 100.621 19.2656V18.2695C100.621 18.146 100.594 18.0591 100.54 18.0089C100.49 17.9548 100.403 17.9278 100.279 17.9278H100.024C99.758 17.9278 99.6248 18.0745 99.6248 18.368V19.1672C99.6248 19.4606 99.758 19.6073 100.024 19.6073ZM102.552 21.032H102.059C101.978 21.032 101.938 20.9934 101.938 20.9162V17.4124C101.938 17.3313 101.978 17.2908 102.059 17.2908H102.552C102.633 17.2908 102.673 17.3313 102.673 17.4124V17.6035H102.696C102.739 17.4993 102.814 17.422 102.922 17.3718C103.03 17.3178 103.144 17.2908 103.264 17.2908H103.501C103.799 17.2908 104.023 17.3718 104.173 17.534C104.328 17.6962 104.405 17.9297 104.405 18.2348V19.3004C104.405 19.6054 104.328 19.839 104.173 20.0011C104.023 20.1633 103.799 20.2444 103.501 20.2444H103.264C103.144 20.2444 103.03 20.2193 102.922 20.1691C102.814 20.115 102.739 20.0359 102.696 19.9316H102.673V20.9162C102.673 20.9934 102.633 21.032 102.552 21.032ZM103.073 19.6073H103.328C103.451 19.6073 103.538 19.5822 103.588 19.532C103.642 19.478 103.669 19.3892 103.669 19.2656V18.2695C103.669 18.146 103.642 18.0591 103.588 18.0089C103.538 17.9548 103.451 17.9278 103.328 17.9278H103.073C102.806 17.9278 102.673 18.0745 102.673 18.368V19.1672C102.673 19.4606 102.806 19.6073 103.073 19.6073ZM105.629 20.2444H105.137C105.056 20.2444 105.015 20.2038 105.015 20.1228V16.2946C105.015 16.2136 105.056 16.173 105.137 16.173H105.629C105.71 16.173 105.751 16.2136 105.751 16.2946V20.1228C105.751 20.2038 105.71 20.2444 105.629 20.2444ZM106.898 21.2231H106.527C106.45 21.2231 106.411 21.1807 106.411 21.0957V20.7077C106.411 20.6228 106.45 20.5803 106.527 20.5803H106.649C106.892 20.5803 107.056 20.5455 107.141 20.476C107.23 20.4104 107.297 20.2811 107.344 20.088H107.037C106.963 20.088 106.915 20.0475 106.892 19.9664L106.214 17.4124C106.191 17.3313 106.22 17.2908 106.301 17.2908H106.817C106.894 17.2908 106.942 17.3313 106.961 17.4124L107.459 19.5494H107.483L107.975 17.4124C107.99 17.3313 108.039 17.2908 108.12 17.2908H108.606C108.703 17.2908 108.741 17.3332 108.722 17.4182L108.015 20.2444C107.93 20.5648 107.799 20.8081 107.622 20.9741C107.444 21.1401 107.203 21.2231 106.898 21.2231ZM109.786 17.4008V18.1131C109.786 18.1942 109.749 18.2348 109.676 18.2348H109.16C109.083 18.2348 109.045 18.1904 109.045 18.1016V17.4066C109.045 17.3294 109.083 17.2908 109.16 17.2908H109.676C109.749 17.2908 109.786 17.3274 109.786 17.4008ZM109.786 19.4104V20.1228C109.786 20.2038 109.749 20.2444 109.676 20.2444H109.16C109.083 20.2444 109.045 20.2019 109.045 20.117V19.4162C109.045 19.339 109.083 19.3004 109.16 19.3004H109.676C109.749 19.3004 109.786 19.3371 109.786 19.4104ZM111.412 17.5572V17.0823C111.412 17.0166 111.441 16.9664 111.499 16.9317L112.026 16.6016C112.115 16.5475 112.19 16.5205 112.252 16.5205H112.715C112.796 16.5205 112.837 16.561 112.837 16.6421V20.1228C112.837 20.1691 112.827 20.2019 112.808 20.2212C112.793 20.2367 112.764 20.2444 112.721 20.2444H112.223C112.142 20.2444 112.101 20.2038 112.101 20.1228V17.3023L111.534 17.6267C111.453 17.6614 111.412 17.6382 111.412 17.5572ZM117.335 16.5205H118.192C118.273 16.5205 118.314 16.561 118.314 16.6421V20.1228C118.314 20.2038 118.273 20.2444 118.192 20.2444H117.717C117.636 20.2444 117.596 20.2038 117.596 20.1228V17.3776H117.573L116.982 19.3178C116.959 19.395 116.91 19.4336 116.837 19.4336H116.351C116.277 19.4336 116.229 19.395 116.206 19.3178L115.604 17.3718H115.58V20.1228C115.58 20.1691 115.573 20.2019 115.557 20.2212C115.542 20.2367 115.509 20.2444 115.459 20.2444H114.984C114.903 20.2444 114.862 20.2038 114.862 20.1228V16.6421C114.862 16.561 114.903 16.5205 114.984 16.5205H115.847C115.901 16.5205 115.938 16.5475 115.957 16.6016L116.571 18.646H116.605L117.225 16.6016C117.237 16.5475 117.273 16.5205 117.335 16.5205ZM119.035 16.7927V16.2888C119.035 16.2116 119.074 16.173 119.151 16.173H119.655C119.732 16.173 119.771 16.2097 119.771 16.2831V16.7927C119.771 16.8699 119.732 16.9085 119.655 16.9085H119.151C119.074 16.9085 119.035 16.8699 119.035 16.7927ZM119.035 20.1228V17.4124C119.035 17.3313 119.074 17.2908 119.151 17.2908H119.649C119.73 17.2908 119.771 17.3313 119.771 17.4124V20.1228C119.771 20.173 119.761 20.2058 119.742 20.2212C119.727 20.2367 119.698 20.2444 119.655 20.2444H119.157C119.076 20.2444 119.035 20.2038 119.035 20.1228ZM121.08 20.2444H120.588C120.507 20.2444 120.466 20.2038 120.466 20.1228V16.2946C120.466 16.2136 120.507 16.173 120.588 16.173H121.08C121.161 16.173 121.202 16.2136 121.202 16.2946V20.1228C121.202 20.2038 121.161 20.2444 121.08 20.2444ZM122.511 20.2444H122.019C121.938 20.2444 121.897 20.2038 121.897 20.1228V16.2946C121.897 16.2136 121.938 16.173 122.019 16.173H122.511C122.592 16.173 122.633 16.2136 122.633 16.2946V20.1228C122.633 20.2038 122.592 20.2444 122.511 20.2444ZM123.328 16.7927V16.2888C123.328 16.2116 123.367 16.173 123.444 16.173H123.948C124.025 16.173 124.064 16.2097 124.064 16.2831V16.7927C124.064 16.8699 124.025 16.9085 123.948 16.9085H123.444C123.367 16.9085 123.328 16.8699 123.328 16.7927ZM123.328 20.1228V17.4124C123.328 17.3313 123.367 17.2908 123.444 17.2908H123.942C124.023 17.2908 124.064 17.3313 124.064 17.4124V20.1228C124.064 20.173 124.054 20.2058 124.035 20.2212C124.019 20.2367 123.99 20.2444 123.948 20.2444H123.45C123.369 20.2444 123.328 20.2038 123.328 20.1228ZM126.143 20.2444H125.628C125.323 20.2444 125.087 20.1633 124.921 20.0011C124.755 19.839 124.672 19.6054 124.672 19.3004V18.2348C124.672 17.9297 124.755 17.6962 124.921 17.534C125.087 17.3718 125.323 17.2908 125.628 17.2908H126.143C126.444 17.2908 126.678 17.3738 126.844 17.5398C127.014 17.7019 127.099 17.9336 127.099 18.2348V19.3004C127.099 19.6015 127.014 19.8351 126.844 20.0011C126.678 20.1633 126.444 20.2444 126.143 20.2444ZM125.738 19.6131H126.033C126.157 19.6131 126.244 19.588 126.294 19.5378C126.348 19.4876 126.375 19.4008 126.375 19.2772V18.2579C126.375 18.1344 126.348 18.0475 126.294 17.9973C126.244 17.9471 126.157 17.922 126.033 17.922H125.738C125.614 17.922 125.527 17.9471 125.477 17.9973C125.427 18.0475 125.402 18.1344 125.402 18.2579V19.2772C125.402 19.4008 125.427 19.4876 125.477 19.5378C125.527 19.588 125.614 19.6131 125.738 19.6131ZM128.291 20.2444H127.798C127.717 20.2444 127.677 20.2038 127.677 20.1228V17.4124C127.677 17.3313 127.717 17.2908 127.798 17.2908H128.291C128.372 17.2908 128.412 17.3313 128.412 17.4124V17.6035H128.435C128.52 17.395 128.709 17.2908 129.003 17.2908H129.188C129.794 17.2908 130.098 17.6054 130.098 18.2348V20.1228C130.098 20.2038 130.055 20.2444 129.97 20.2444H129.484C129.403 20.2444 129.362 20.2038 129.362 20.1228V18.2695C129.362 18.146 129.335 18.0591 129.281 18.0089C129.231 17.9548 129.144 17.9278 129.02 17.9278H128.812C128.545 17.9278 128.412 18.0745 128.412 18.368V20.1228C128.412 20.2038 128.372 20.2444 128.291 20.2444Z" fill="#00C4F4"/>
<rect x="172.119" y="26.0693" width="22.0798" height="6.15339" fill="url(#paint3_linear_47_3)"/>
<path fill-rule="evenodd" clip-rule="evenodd" d="M172.919 35.4802C172.477 35.4802 172.119 35.8385 172.119 36.2805V47.3219C172.119 47.595 172.258 47.8492 172.488 47.9962L178.76 52.0046C178.889 52.0869 179.039 52.1306 179.191 52.1306H220.908C221.35 52.1306 221.708 51.7723 221.708 51.3303V41.0859C221.708 40.8089 221.565 40.5517 221.33 40.4057L213.579 35.6003C213.452 35.5218 213.306 35.4802 213.157 35.4802H172.919ZM173.399 36.4052C172.957 36.4052 172.599 36.7635 172.599 37.2055V46.6402C172.599 46.9213 172.746 47.1819 172.987 47.3265L178.751 50.7833C178.876 50.8578 179.018 50.8972 179.163 50.8972H217.794C218.236 50.8972 218.594 50.5389 218.594 50.0969V41.3568C218.594 41.0718 218.443 40.8084 218.196 40.6651L211.061 36.5138C210.939 36.4427 210.8 36.4052 210.659 36.4052H173.399Z" fill="#541937"/>
<path d="M181.176 44.572H181.824C181.952 44.572 182.042 44.5469 182.096 44.4967C182.154 44.4427 182.183 44.3558 182.183 44.2361V43.9002C182.183 43.7805 182.154 43.6956 182.096 43.6454C182.039 43.5952 181.944 43.5701 181.813 43.5701H181.176C181.133 43.5701 181.112 43.5913 181.112 43.6338V44.5083C181.112 44.5508 181.133 44.572 181.176 44.572ZM181.176 42.9736H181.766C181.89 42.9736 181.981 42.9485 182.039 42.8983C182.096 42.8442 182.125 42.7574 182.125 42.6377V42.4118C182.125 42.2921 182.096 42.2072 182.039 42.157C181.985 42.1029 181.896 42.0759 181.772 42.0759H181.176C181.133 42.0759 181.112 42.0972 181.112 42.1396V42.9099C181.112 42.9524 181.133 42.9736 181.176 42.9736ZM180.376 45.0643V41.5836C180.376 41.5026 180.417 41.462 180.498 41.462H181.888C182.193 41.462 182.429 41.5431 182.595 41.7053C182.761 41.8674 182.844 42.0991 182.844 42.4002V42.6377C182.844 42.9659 182.691 43.1782 182.386 43.2747C182.541 43.2979 182.664 43.3616 182.757 43.4659C182.849 43.5662 182.896 43.711 182.896 43.9002V44.2477C182.896 44.5489 182.813 44.7805 182.647 44.9427C182.481 45.1048 182.247 45.1859 181.946 45.1859H180.498C180.417 45.1859 180.376 45.1454 180.376 45.0643ZM184.597 45.1859H184.405C184.108 45.1859 183.882 45.1048 183.728 44.9427C183.577 44.7805 183.502 44.5469 183.502 44.2419V42.3539C183.502 42.2728 183.543 42.2323 183.624 42.2323H184.116C184.197 42.2323 184.238 42.2728 184.238 42.3539V44.2072C184.238 44.3307 184.263 44.4195 184.313 44.4736C184.367 44.5238 184.454 44.5489 184.573 44.5489H184.788C185.054 44.5489 185.187 44.4021 185.187 44.1087V42.3539C185.187 42.2728 185.228 42.2323 185.309 42.2323H185.795C185.88 42.2323 185.923 42.2728 185.923 42.3539V45.0643C185.923 45.1454 185.88 45.1859 185.795 45.1859H185.309C185.228 45.1859 185.187 45.1454 185.187 45.0643V44.8732H185.164C185.122 44.9774 185.046 45.0566 184.938 45.1106C184.83 45.1608 184.716 45.1859 184.597 45.1859ZM187.043 46.1647H186.672C186.595 46.1647 186.557 46.1222 186.557 46.0373V45.6492C186.557 45.5643 186.595 45.5218 186.672 45.5218H186.794C187.037 45.5218 187.201 45.4871 187.286 45.4176C187.375 45.3519 187.443 45.2226 187.489 45.0295H187.182C187.109 45.0295 187.06 44.989 187.037 44.9079L186.36 42.3539C186.337 42.2728 186.365 42.2323 186.447 42.2323H186.962C187.039 42.2323 187.087 42.2728 187.107 42.3539L187.605 44.4909H187.628L188.12 42.3539C188.136 42.2728 188.184 42.2323 188.265 42.2323H188.752C188.848 42.2323 188.887 42.2748 188.867 42.3597L188.161 45.1859C188.076 45.5064 187.945 45.7496 187.767 45.9156C187.589 46.0817 187.348 46.1647 187.043 46.1647ZM191.771 45.1859H191.285C191.2 45.1859 191.157 45.1454 191.157 45.0643V42.1628C191.157 42.1203 191.136 42.0991 191.094 42.0991H190.434C190.352 42.0991 190.312 42.0585 190.312 41.9775V41.5836C190.312 41.5026 190.352 41.462 190.434 41.462H192.623C192.704 41.462 192.744 41.5026 192.744 41.5836V41.9775C192.744 42.0585 192.704 42.0991 192.623 42.0991H191.963C191.916 42.0991 191.893 42.1203 191.893 42.1628V45.0643C191.893 45.1454 191.852 45.1859 191.771 45.1859ZM194.165 45.1859H194.026C193.721 45.1859 193.486 45.1048 193.32 44.9427C193.154 44.7805 193.071 44.5469 193.071 44.2419V43.1763C193.071 42.8713 193.154 42.6377 193.32 42.4755C193.486 42.3134 193.721 42.2323 194.026 42.2323H195.364C195.449 42.2323 195.492 42.2728 195.492 42.3539V45.0643C195.492 45.1454 195.449 45.1859 195.364 45.1859H194.878C194.797 45.1859 194.756 45.1454 194.756 45.0643V44.8732H194.733C194.69 44.9774 194.615 45.0566 194.507 45.1106C194.399 45.1608 194.285 45.1859 194.165 45.1859ZM194.756 44.1087V42.933C194.756 42.8906 194.733 42.8693 194.687 42.8693H194.142C194.019 42.8693 193.932 42.8964 193.882 42.9504C193.831 43.0006 193.806 43.0875 193.806 43.211V44.2072C193.806 44.3307 193.831 44.4195 193.882 44.4736C193.932 44.5238 194.019 44.5489 194.142 44.5489H194.356C194.623 44.5489 194.756 44.4021 194.756 44.1087ZM196.601 45.1859H196.016C195.916 45.1859 195.889 45.1454 195.935 45.0643L196.665 43.6801L195.935 42.3539C195.896 42.2728 195.92 42.2323 196.005 42.2323H196.595C196.688 42.2323 196.748 42.2728 196.775 42.3539L197.14 43.2342H197.163L197.481 42.3539C197.508 42.2728 197.568 42.2323 197.661 42.2323H198.24C198.34 42.2323 198.366 42.2728 198.315 42.3539L197.62 43.6801L198.367 45.0643C198.387 45.099 198.389 45.128 198.373 45.1512C198.362 45.1743 198.337 45.1859 198.298 45.1859H197.701C197.62 45.1859 197.562 45.1454 197.528 45.0643L197.163 44.1782H197.14L196.775 45.0643C196.748 45.1454 196.69 45.1859 196.601 45.1859ZM199.444 42.3423V43.0547C199.444 43.1357 199.407 43.1763 199.334 43.1763H198.819C198.741 43.1763 198.703 43.1319 198.703 43.0431V42.3481C198.703 42.2709 198.741 42.2323 198.819 42.2323H199.334C199.407 42.2323 199.444 42.269 199.444 42.3423ZM199.444 44.3519V45.0643C199.444 45.1454 199.407 45.1859 199.334 45.1859H198.819C198.741 45.1859 198.703 45.1434 198.703 45.0585V44.3577C198.703 44.2805 198.741 44.2419 198.819 44.2419H199.334C199.407 44.2419 199.444 44.2786 199.444 44.3519ZM202.518 43.2921H202.246C202.146 43.2921 202.069 43.3327 202.015 43.4137C201.964 43.4948 201.91 43.5354 201.852 43.5354H201.372C201.291 43.5354 201.25 43.4967 201.25 43.4195V41.5836C201.25 41.5026 201.291 41.462 201.372 41.462H203.387C203.468 41.462 203.509 41.5026 203.509 41.5836V42.0238C203.509 42.1049 203.468 42.1454 203.387 42.1454H201.986V42.9968C202.051 42.8037 202.213 42.7072 202.472 42.7072H202.715C203.314 42.7072 203.613 43.0064 203.613 43.6049V44.2419C203.613 44.5431 203.53 44.7767 203.364 44.9427C203.198 45.1048 202.964 45.1859 202.663 45.1859H202.154C201.849 45.1859 201.613 45.1048 201.447 44.9427C201.281 44.7805 201.198 44.5469 201.198 44.2419V44.1261C201.198 44.0411 201.239 43.9987 201.32 43.9987H201.812C201.893 43.9987 201.933 44.0411 201.933 44.1261V44.2361C201.933 44.3558 201.959 44.4427 202.009 44.4967C202.063 44.5469 202.15 44.572 202.269 44.572H202.542C202.665 44.572 202.756 44.5469 202.814 44.4967C202.872 44.4427 202.901 44.3558 202.901 44.2361V43.7149C202.901 43.5527 202.874 43.4427 202.82 43.3848C202.766 43.323 202.665 43.2921 202.518 43.2921ZM207.151 43.8249H207.018C206.933 43.8249 206.875 43.8423 206.844 43.8771C206.813 43.9079 206.797 43.9639 206.797 44.045V44.5489C206.797 44.6338 206.813 44.6936 206.844 44.7284C206.875 44.7593 206.933 44.7747 207.018 44.7747H207.151C207.232 44.7747 207.288 44.7573 207.319 44.7226C207.353 44.6879 207.371 44.6299 207.371 44.5489V44.045C207.371 43.9639 207.355 43.9079 207.324 43.8771C207.294 43.8423 207.236 43.8249 207.151 43.8249ZM206.907 43.4137H207.249C207.45 43.4137 207.602 43.4659 207.707 43.5701C207.811 43.6744 207.863 43.8249 207.863 44.0218V44.5778C207.863 44.7747 207.811 44.9253 207.707 45.0295C207.602 45.1338 207.45 45.1859 207.249 45.1859H206.907C206.711 45.1859 206.558 45.1338 206.45 45.0295C206.346 44.9253 206.294 44.7747 206.294 44.5778V44.0218C206.294 43.8249 206.346 43.6744 206.45 43.5701C206.558 43.4659 206.711 43.4137 206.907 43.4137ZM205.008 41.8674H204.875C204.79 41.8674 204.732 41.8848 204.701 41.9196C204.67 41.9504 204.655 42.0084 204.655 42.0933V42.5971C204.655 42.6782 204.67 42.7361 204.701 42.7709C204.732 42.8018 204.79 42.8172 204.875 42.8172H205.008C205.093 42.8172 205.151 42.8018 205.182 42.7709C205.213 42.7361 205.228 42.6782 205.228 42.5971V42.0933C205.228 42.0122 205.211 41.9543 205.176 41.9196C205.145 41.8848 205.089 41.8674 205.008 41.8674ZM204.77 41.4562H205.112C205.313 41.4562 205.465 41.5084 205.57 41.6126C205.674 41.7169 205.726 41.8674 205.726 42.0643V42.6203C205.726 42.8172 205.674 42.9678 205.57 43.072C205.465 43.1763 205.313 43.2284 205.112 43.2284H204.77C204.574 43.2284 204.421 43.1763 204.313 43.072C204.209 42.9678 204.157 42.8172 204.157 42.6203V42.0643C204.157 41.8674 204.209 41.7169 204.313 41.6126C204.421 41.5084 204.574 41.4562 204.77 41.4562ZM205.436 45.1859H205.135C205.047 45.1859 205.018 45.1454 205.048 45.0643C205.172 44.7477 205.402 44.1686 205.738 43.3269C206.074 42.4813 206.303 41.9002 206.427 41.5836C206.462 41.5026 206.512 41.462 206.577 41.462H206.884C206.973 41.462 207.002 41.5026 206.971 41.5836L205.593 45.0643C205.562 45.1454 205.51 45.1859 205.436 45.1859Z" fill="#00C4F4"/>
<rect x="110.067" y="59.5774" width="22.0798" height="6.15339" fill="url(#paint4_linear_47_3)"/>
<path fill-rule="evenodd" clip-rule="evenodd" d="M110.867 69.3501C110.425 69.3501 110.067 69.7084 110.067 70.1504V81.1918C110.067 81.4648 110.206 81.7191 110.436 81.8661L116.708 85.8745C116.837 85.9567 116.987 86.0004 117.139 86.0004H158.856C159.298 86.0004 159.656 85.6421 159.656 85.2002V74.9557C159.656 74.6788 159.513 74.4215 159.278 74.2756L151.527 69.4702C151.4 69.3917 151.254 69.3501 151.105 69.3501H110.867ZM111.347 70.2751C110.905 70.2751 110.546 70.6334 110.546 71.0754V80.51C110.546 80.7912 110.694 81.0517 110.935 81.1963L116.699 84.6531C116.823 84.7277 116.966 84.7671 117.111 84.7671H155.742C156.184 84.7671 156.542 84.4088 156.542 83.9668V75.2267C156.542 74.9417 156.391 74.6783 156.144 74.535L149.009 70.3837C148.887 70.3126 148.748 70.2751 148.606 70.2751H111.347Z" fill="#2A5642"/>
<path d="M118.284 79.0502V78.9344C118.284 78.8533 118.324 78.8128 118.405 78.8128H118.898C118.979 78.8128 119.019 78.8533 119.019 78.9344V78.9807C119.019 79.1274 119.048 79.2278 119.106 79.2819C119.164 79.3359 119.27 79.3629 119.425 79.3629H119.697C119.847 79.3629 119.952 79.334 120.01 79.2761C120.071 79.2182 120.102 79.1101 120.102 78.9518V78.8823C120.102 78.7703 120.056 78.6853 119.963 78.6274C119.874 78.5657 119.763 78.529 119.627 78.5174C119.492 78.5058 119.346 78.4846 119.187 78.4537C119.033 78.4189 118.888 78.3765 118.753 78.3263C118.618 78.2722 118.504 78.1699 118.411 78.0193C118.322 77.8649 118.278 77.668 118.278 77.4286V77.2259C118.278 76.9248 118.363 76.6912 118.533 76.5251C118.703 76.3591 118.938 76.2761 119.239 76.2761H119.819C120.124 76.2761 120.361 76.3591 120.531 76.5251C120.701 76.6912 120.786 76.9248 120.786 77.2259V77.3359C120.786 77.417 120.745 77.4576 120.664 77.4576H120.172C120.091 77.4576 120.05 77.417 120.05 77.3359V77.3012C120.05 77.1506 120.021 77.0483 119.963 76.9943C119.905 76.9402 119.799 76.9132 119.645 76.9132H119.419C119.261 76.9132 119.152 76.9441 119.095 77.0058C119.041 77.0637 119.013 77.1796 119.013 77.3533V77.4634C119.013 77.6448 119.172 77.7491 119.488 77.7761C119.817 77.8031 120.108 77.8688 120.363 77.973C120.498 78.0309 120.61 78.1352 120.699 78.2857C120.791 78.4325 120.838 78.6216 120.838 78.8533V79.0502C120.838 79.3514 120.753 79.5849 120.583 79.751C120.413 79.917 120.178 80 119.876 80H119.245C118.944 80 118.708 79.917 118.539 79.751C118.369 79.5849 118.284 79.3514 118.284 79.0502ZM123.618 80H122.338C122.033 80 121.798 79.9189 121.632 79.7568C121.466 79.5946 121.383 79.361 121.383 79.056V77.9904C121.383 77.6854 121.466 77.4518 121.632 77.2896C121.798 77.1275 122.033 77.0464 122.338 77.0464H122.796C123.101 77.0464 123.336 77.1275 123.502 77.2896C123.668 77.4518 123.751 77.6854 123.751 77.9904V78.7259C123.751 78.807 123.711 78.8475 123.63 78.8475H122.176C122.13 78.8475 122.106 78.8687 122.106 78.9112V79.0386C122.106 79.1583 122.132 79.2452 122.182 79.2992C122.236 79.3494 122.325 79.3745 122.448 79.3745H123.618C123.699 79.3745 123.74 79.417 123.74 79.5019V79.8842C123.74 79.9266 123.73 79.9575 123.711 79.9768C123.695 79.9923 123.664 80 123.618 80ZM122.176 78.3552H122.964C123.006 78.3552 123.027 78.334 123.027 78.2915V78.0135C123.027 77.89 123.002 77.8031 122.952 77.7529C122.902 77.7027 122.815 77.6776 122.691 77.6776H122.448C122.325 77.6776 122.238 77.7027 122.188 77.7529C122.137 77.8031 122.112 77.89 122.112 78.0135V78.2915C122.112 78.334 122.134 78.3552 122.176 78.3552ZM124.945 80H124.453C124.372 80 124.331 79.9595 124.331 79.8784V76.0502C124.331 75.9692 124.372 75.9286 124.453 75.9286H124.945C125.026 75.9286 125.067 75.9692 125.067 76.0502V79.8784C125.067 79.9595 125.026 80 124.945 80ZM126.376 80H125.884C125.803 80 125.762 79.9595 125.762 79.8784V76.0502C125.762 75.9692 125.803 75.9286 125.884 75.9286H126.376C126.457 75.9286 126.498 75.9692 126.498 76.0502V79.8784C126.498 79.9595 126.457 80 126.376 80ZM129.647 80H129.16C129.076 80 129.033 79.9595 129.033 79.8784V76.9769C129.033 76.9344 129.012 76.9132 128.969 76.9132H128.309C128.228 76.9132 128.188 76.8726 128.188 76.7916V76.3977C128.188 76.3167 128.228 76.2761 128.309 76.2761H130.498C130.579 76.2761 130.62 76.3167 130.62 76.3977V76.7916C130.62 76.8726 130.579 76.9132 130.498 76.9132H129.838C129.792 76.9132 129.769 76.9344 129.769 76.9769V79.8784C129.769 79.9595 129.728 80 129.647 80ZM132.041 80H131.902C131.597 80 131.361 79.9189 131.195 79.7568C131.029 79.5946 130.946 79.361 130.946 79.056V77.9904C130.946 77.6854 131.029 77.4518 131.195 77.2896C131.361 77.1275 131.597 77.0464 131.902 77.0464H133.24C133.325 77.0464 133.367 77.0869 133.367 77.168V79.8784C133.367 79.9595 133.325 80 133.24 80H132.753C132.672 80 132.632 79.9595 132.632 79.8784V79.6873H132.608C132.566 79.7915 132.491 79.8707 132.383 79.9247C132.274 79.9749 132.161 80 132.041 80ZM132.632 78.9228V77.7471C132.632 77.7047 132.608 77.6834 132.562 77.6834H132.018C131.894 77.6834 131.807 77.7105 131.757 77.7645C131.707 77.8147 131.682 77.9016 131.682 78.0251V79.0212C131.682 79.1448 131.707 79.2336 131.757 79.2877C131.807 79.3378 131.894 79.3629 132.018 79.3629H132.232C132.498 79.3629 132.632 79.2162 132.632 78.9228ZM134.477 80H133.892C133.791 80 133.764 79.9595 133.811 79.8784L134.54 78.4942L133.811 77.168C133.772 77.0869 133.795 77.0464 133.88 77.0464H134.471C134.564 77.0464 134.623 77.0869 134.65 77.168L135.015 78.0483H135.038L135.357 77.168C135.384 77.0869 135.444 77.0464 135.536 77.0464H136.116C136.216 77.0464 136.241 77.0869 136.191 77.168L135.496 78.4942L136.243 79.8784C136.262 79.9131 136.264 79.9421 136.249 79.9653C136.237 79.9884 136.212 80 136.174 80H135.577C135.496 80 135.438 79.9595 135.403 79.8784L135.038 78.9923H135.015L134.65 79.8784C134.623 79.9595 134.565 80 134.477 80ZM137.32 77.1564V77.8688C137.32 77.9498 137.283 77.9904 137.21 77.9904H136.694C136.617 77.9904 136.578 77.946 136.578 77.8572V77.1622C136.578 77.085 136.617 77.0464 136.694 77.0464H137.21C137.283 77.0464 137.32 77.0831 137.32 77.1564ZM137.32 79.166V79.8784C137.32 79.9595 137.283 80 137.21 80H136.694C136.617 80 136.578 79.9575 136.578 79.8726V79.1718C136.578 79.0946 136.617 79.056 136.694 79.056H137.21C137.283 79.056 137.32 79.0927 137.32 79.166ZM140.394 78.1062H140.122C140.021 78.1062 139.944 78.1467 139.89 78.2278C139.84 78.3089 139.786 78.3494 139.728 78.3494H139.247C139.166 78.3494 139.126 78.3108 139.126 78.2336V76.3977C139.126 76.3167 139.166 76.2761 139.247 76.2761H141.263C141.344 76.2761 141.384 76.3167 141.384 76.3977V76.8379C141.384 76.919 141.344 76.9595 141.263 76.9595H139.861V77.8108C139.927 77.6178 140.089 77.5213 140.348 77.5213H140.591C141.189 77.5213 141.489 77.8205 141.489 78.4189V79.056C141.489 79.3572 141.406 79.5907 141.24 79.7568C141.074 79.9189 140.84 80 140.539 80H140.029C139.724 80 139.489 79.9189 139.323 79.7568C139.157 79.5946 139.074 79.361 139.074 79.056V78.9402C139.074 78.8552 139.114 78.8128 139.195 78.8128H139.687C139.769 78.8128 139.809 78.8552 139.809 78.9402V79.0502C139.809 79.1699 139.834 79.2568 139.884 79.3108C139.938 79.361 140.025 79.3861 140.145 79.3861H140.417C140.541 79.3861 140.631 79.361 140.689 79.3108C140.747 79.2568 140.776 79.1699 140.776 79.0502V78.529C140.776 78.3668 140.749 78.2568 140.695 78.1989C140.641 78.1371 140.541 78.1062 140.394 78.1062ZM145.026 78.639H144.893C144.808 78.639 144.75 78.6564 144.719 78.6911C144.688 78.722 144.673 78.778 144.673 78.8591V79.3629C144.673 79.4479 144.688 79.5077 144.719 79.5425C144.75 79.5734 144.808 79.5888 144.893 79.5888H145.026C145.107 79.5888 145.163 79.5714 145.194 79.5367C145.229 79.5019 145.246 79.444 145.246 79.3629V78.8591C145.246 78.778 145.231 78.722 145.2 78.6911C145.169 78.6564 145.111 78.639 145.026 78.639ZM144.783 78.2278H145.125C145.326 78.2278 145.478 78.2799 145.582 78.3842C145.687 78.4884 145.739 78.639 145.739 78.8359V79.3919C145.739 79.5888 145.687 79.7394 145.582 79.8436C145.478 79.9479 145.326 80 145.125 80H144.783C144.586 80 144.434 79.9479 144.326 79.8436C144.221 79.7394 144.169 79.5888 144.169 79.3919V78.8359C144.169 78.639 144.221 78.4884 144.326 78.3842C144.434 78.2799 144.586 78.2278 144.783 78.2278ZM142.883 76.6815H142.75C142.665 76.6815 142.607 76.6989 142.577 76.7336C142.546 76.7645 142.53 76.8224 142.53 76.9074V77.4112C142.53 77.4923 142.546 77.5502 142.577 77.585C142.607 77.6159 142.665 77.6313 142.75 77.6313H142.883C142.968 77.6313 143.026 77.6159 143.057 77.585C143.088 77.5502 143.104 77.4923 143.104 77.4112V76.9074C143.104 76.8263 143.086 76.7684 143.051 76.7336C143.021 76.6989 142.965 76.6815 142.883 76.6815ZM142.646 76.2703H142.988C143.188 76.2703 143.341 76.3224 143.445 76.4267C143.549 76.5309 143.602 76.6815 143.602 76.8784V77.4344C143.602 77.6313 143.549 77.7819 143.445 77.8861C143.341 77.9904 143.188 78.0425 142.988 78.0425H142.646C142.449 78.0425 142.297 77.9904 142.189 77.8861C142.084 77.7819 142.032 77.6313 142.032 77.4344V76.8784C142.032 76.6815 142.084 76.5309 142.189 76.4267C142.297 76.3224 142.449 76.2703 142.646 76.2703ZM143.312 80H143.011C142.922 80 142.893 79.9595 142.924 79.8784C143.048 79.5618 143.277 78.9826 143.613 78.141C143.949 77.2954 144.179 76.7143 144.302 76.3977C144.337 76.3167 144.387 76.2761 144.453 76.2761H144.76C144.849 76.2761 144.878 76.3167 144.847 76.3977L143.468 79.8784C143.438 79.9595 143.385 80 143.312 80Z" fill="#00C4F4"/>
<rect x="165.914" y="103.014" width="22.0798" height="6.15339" fill="url(#paint5_linear_47_3)"/>
<path fill-rule="evenodd" clip-rule="evenodd" d="M166.714 112.787C166.272 112.787 165.914 113.145 165.914 113.587V124.584C165.914 124.881 166.078 125.153 166.341 125.292L174.025 129.345C174.14 129.405 174.268 129.437 174.398 129.437H225.2C225.642 129.437 226 129.079 226 128.637V118.436C226 118.136 225.832 117.861 225.564 117.724L216.087 112.874C215.974 112.817 215.849 112.787 215.723 112.787H166.714ZM167.295 113.711C166.853 113.711 166.495 114.07 166.495 114.512V123.903C166.495 124.207 166.667 124.485 166.94 124.62L174.012 128.12C174.123 128.175 174.244 128.203 174.367 128.203H221.426C221.868 128.203 222.226 127.845 222.226 127.403V118.706C222.226 118.398 222.05 118.118 221.773 117.985L213.037 113.79C212.929 113.738 212.81 113.711 212.69 113.711H167.295Z" fill="#9C00D3"/>
<path d="M173.234 122.493H172.748C172.663 122.493 172.62 122.452 172.62 122.371V119.469C172.62 119.427 172.599 119.406 172.557 119.406H171.896C171.815 119.406 171.775 119.365 171.775 119.284V118.89C171.775 118.809 171.815 118.769 171.896 118.769H174.085C174.167 118.769 174.207 118.809 174.207 118.89V119.284C174.207 119.365 174.167 119.406 174.085 119.406H173.425C173.379 119.406 173.356 119.427 173.356 119.469V122.371C173.356 122.452 173.315 122.493 173.234 122.493ZM176.005 122.493H175.489C175.184 122.493 174.949 122.411 174.783 122.249C174.617 122.087 174.533 121.854 174.533 121.549V120.483C174.533 120.178 174.617 119.944 174.783 119.782C174.949 119.62 175.184 119.539 175.489 119.539H176.005C176.306 119.539 176.539 119.622 176.705 119.788C176.875 119.95 176.96 120.182 176.96 120.483V121.549C176.96 121.85 176.875 122.083 176.705 122.249C176.539 122.411 176.306 122.493 176.005 122.493ZM175.599 121.861H175.894C176.018 121.861 176.105 121.836 176.155 121.786C176.209 121.736 176.236 121.649 176.236 121.525V120.506C176.236 120.383 176.209 120.296 176.155 120.245C176.105 120.195 176.018 120.17 175.894 120.17H175.599C175.476 120.17 175.389 120.195 175.339 120.245C175.288 120.296 175.263 120.383 175.263 120.506V121.525C175.263 121.649 175.288 121.736 175.339 121.786C175.389 121.836 175.476 121.861 175.599 121.861ZM179.229 119.539H179.791C179.837 119.539 179.868 119.552 179.884 119.579C179.899 119.606 179.893 119.641 179.866 119.684L179.096 120.952V120.975L179.901 122.348C179.924 122.386 179.926 122.421 179.907 122.452C179.887 122.479 179.853 122.493 179.802 122.493H179.304C179.239 122.493 179.191 122.485 179.16 122.469C179.133 122.454 179.104 122.421 179.073 122.371L178.337 121.079C178.302 121.018 178.302 120.954 178.337 120.888L179.032 119.655C179.075 119.578 179.14 119.539 179.229 119.539ZM178.152 122.493H177.66C177.579 122.493 177.538 122.452 177.538 122.371V118.543C177.538 118.462 177.579 118.421 177.66 118.421H178.152C178.233 118.421 178.274 118.462 178.274 118.543V122.371C178.274 122.452 178.233 122.493 178.152 122.493ZM182.447 122.493H181.167C180.862 122.493 180.627 122.411 180.461 122.249C180.295 122.087 180.212 121.854 180.212 121.549V120.483C180.212 120.178 180.295 119.944 180.461 119.782C180.627 119.62 180.862 119.539 181.167 119.539H181.625C181.93 119.539 182.165 119.62 182.331 119.782C182.497 119.944 182.58 120.178 182.58 120.483V121.218C182.58 121.3 182.54 121.34 182.459 121.34H181.005C180.959 121.34 180.936 121.361 180.936 121.404V121.531C180.936 121.651 180.961 121.738 181.011 121.792C181.065 121.842 181.154 121.867 181.277 121.867H182.447C182.528 121.867 182.569 121.91 182.569 121.994V122.377C182.569 122.419 182.559 122.45 182.54 122.469C182.525 122.485 182.494 122.493 182.447 122.493ZM181.005 120.848H181.793C181.835 120.848 181.857 120.827 181.857 120.784V120.506C181.857 120.383 181.831 120.296 181.781 120.245C181.731 120.195 181.644 120.17 181.521 120.17H181.277C181.154 120.17 181.067 120.195 181.017 120.245C180.967 120.296 180.942 120.383 180.942 120.506V120.784C180.942 120.827 180.963 120.848 181.005 120.848ZM183.745 122.493H183.253C183.172 122.493 183.131 122.452 183.131 122.371V119.661C183.131 119.579 183.172 119.539 183.253 119.539H183.745C183.826 119.539 183.867 119.579 183.867 119.661V119.852H183.89C183.975 119.643 184.164 119.539 184.458 119.539H184.643C185.249 119.539 185.552 119.854 185.552 120.483V122.371C185.552 122.452 185.51 122.493 185.425 122.493H184.938C184.857 122.493 184.817 122.452 184.817 122.371V120.518C184.817 120.394 184.79 120.307 184.736 120.257C184.686 120.203 184.599 120.176 184.475 120.176H184.267C184 120.176 183.867 120.323 183.867 120.616V122.371C183.867 122.452 183.826 122.493 183.745 122.493ZM188.096 122.493H187.615C187.534 122.493 187.493 122.452 187.493 122.371V118.89C187.493 118.809 187.534 118.769 187.615 118.769H188.049C188.13 118.769 188.184 118.796 188.212 118.85L189.381 121.045H189.405V118.89C189.405 118.809 189.445 118.769 189.526 118.769H190.007C190.088 118.769 190.128 118.809 190.128 118.89V122.371C190.128 122.452 190.088 122.493 190.007 122.493H189.584C189.499 122.493 189.437 122.454 189.399 122.377L188.24 120.222H188.217V122.371C188.217 122.452 188.177 122.493 188.096 122.493ZM193.001 122.493H191.721C191.416 122.493 191.18 122.411 191.014 122.249C190.848 122.087 190.765 121.854 190.765 121.549V120.483C190.765 120.178 190.848 119.944 191.014 119.782C191.18 119.62 191.416 119.539 191.721 119.539H192.178C192.483 119.539 192.719 119.62 192.885 119.782C193.051 119.944 193.134 120.178 193.134 120.483V121.218C193.134 121.3 193.093 121.34 193.012 121.34H191.559C191.512 121.34 191.489 121.361 191.489 121.404V121.531C191.489 121.651 191.514 121.738 191.565 121.792C191.619 121.842 191.707 121.867 191.831 121.867H193.001C193.082 121.867 193.122 121.91 193.122 121.994V122.377C193.122 122.419 193.113 122.45 193.093 122.469C193.078 122.485 193.047 122.493 193.001 122.493ZM191.559 120.848H192.346C192.389 120.848 192.41 120.827 192.41 120.784V120.506C192.41 120.383 192.385 120.296 192.335 120.245C192.285 120.195 192.198 120.17 192.074 120.17H191.831C191.707 120.17 191.621 120.195 191.57 120.245C191.52 120.296 191.495 120.383 191.495 120.506V120.784C191.495 120.827 191.516 120.848 191.559 120.848ZM193.749 120.176H193.517C193.471 120.176 193.438 120.168 193.419 120.153C193.403 120.137 193.395 120.106 193.395 120.06V119.661C193.395 119.579 193.436 119.539 193.517 119.539H193.749C193.791 119.539 193.812 119.518 193.812 119.475V118.925C193.812 118.844 193.855 118.803 193.94 118.803H194.426C194.507 118.803 194.548 118.844 194.548 118.925V119.475C194.548 119.518 194.571 119.539 194.617 119.539H195.069C195.15 119.539 195.191 119.579 195.191 119.661V120.06C195.191 120.103 195.181 120.134 195.162 120.153C195.146 120.168 195.115 120.176 195.069 120.176H194.617C194.571 120.176 194.548 120.197 194.548 120.24V121.52C194.548 121.639 194.575 121.726 194.629 121.78C194.683 121.83 194.772 121.855 194.895 121.855H195.127C195.208 121.855 195.249 121.896 195.249 121.977V122.377C195.249 122.419 195.239 122.45 195.22 122.469C195.204 122.485 195.173 122.493 195.127 122.493H194.774C194.469 122.493 194.231 122.411 194.061 122.249C193.895 122.087 193.812 121.855 193.812 121.554V120.24C193.812 120.197 193.791 120.176 193.749 120.176ZM196.908 122.493H196.248C196.175 122.493 196.128 122.452 196.109 122.371L195.53 119.661C195.514 119.579 195.543 119.539 195.617 119.539H196.173C196.258 119.539 196.304 119.579 196.312 119.661L196.572 121.641H196.619L197.03 119.661C197.041 119.579 197.086 119.539 197.163 119.539H197.673C197.754 119.539 197.802 119.579 197.817 119.661L198.217 121.641H198.263L198.53 119.661C198.541 119.579 198.588 119.539 198.669 119.539H199.225C199.302 119.539 199.331 119.579 199.312 119.661L198.732 122.371C198.717 122.452 198.671 122.493 198.593 122.493H197.933C197.856 122.493 197.81 122.452 197.794 122.371L197.441 120.413H197.395L197.047 122.371C197.036 122.452 196.989 122.493 196.908 122.493ZM201.172 122.493H200.657C200.352 122.493 200.116 122.411 199.95 122.249C199.784 122.087 199.701 121.854 199.701 121.549V120.483C199.701 120.178 199.784 119.944 199.95 119.782C200.116 119.62 200.352 119.539 200.657 119.539H201.172C201.473 119.539 201.707 119.622 201.873 119.788C202.043 119.95 202.128 120.182 202.128 120.483V121.549C202.128 121.85 202.043 122.083 201.873 122.249C201.707 122.411 201.473 122.493 201.172 122.493ZM200.767 121.861H201.062C201.186 121.861 201.273 121.836 201.323 121.786C201.377 121.736 201.404 121.649 201.404 121.525V120.506C201.404 120.383 201.377 120.296 201.323 120.245C201.273 120.195 201.186 120.17 201.062 120.17H200.767C200.643 120.17 200.557 120.195 200.506 120.245C200.456 120.296 200.431 120.383 200.431 120.506V121.525C200.431 121.649 200.456 121.736 200.506 121.786C200.557 121.836 200.643 121.861 200.767 121.861ZM203.32 122.493H202.827C202.746 122.493 202.706 122.452 202.706 122.371V119.661C202.706 119.579 202.746 119.539 202.827 119.539H203.32C203.401 119.539 203.441 119.579 203.441 119.661V119.857H203.465C203.507 119.753 203.582 119.674 203.69 119.62C203.798 119.566 203.912 119.539 204.032 119.539H204.241C204.318 119.539 204.356 119.579 204.356 119.661V120.06C204.356 120.106 204.347 120.139 204.327 120.159C204.312 120.174 204.283 120.18 204.241 120.176H203.841C203.575 120.176 203.441 120.327 203.441 120.628V122.371C203.441 122.452 203.401 122.493 203.32 122.493ZM206.416 119.539H206.978C207.024 119.539 207.055 119.552 207.07 119.579C207.086 119.606 207.08 119.641 207.053 119.684L206.283 120.952V120.975L207.088 122.348C207.111 122.386 207.113 122.421 207.094 122.452C207.074 122.479 207.04 122.493 206.989 122.493H206.491C206.426 122.493 206.377 122.485 206.347 122.469C206.319 122.454 206.291 122.421 206.26 122.371L205.524 121.079C205.489 121.018 205.489 120.954 205.524 120.888L206.219 119.655C206.262 119.578 206.327 119.539 206.416 119.539ZM205.339 122.493H204.847C204.765 122.493 204.725 122.452 204.725 122.371V118.543C204.725 118.462 204.765 118.421 204.847 118.421H205.339C205.42 118.421 205.46 118.462 205.46 118.543V122.371C205.46 122.452 205.42 122.493 205.339 122.493ZM208.099 119.649V120.361C208.099 120.442 208.063 120.483 207.989 120.483H207.474C207.397 120.483 207.358 120.439 207.358 120.35V119.655C207.358 119.578 207.397 119.539 207.474 119.539H207.989C208.063 119.539 208.099 119.576 208.099 119.649ZM208.099 121.659V122.371C208.099 122.452 208.063 122.493 207.989 122.493H207.474C207.397 122.493 207.358 122.45 207.358 122.365V121.664C207.358 121.587 207.397 121.549 207.474 121.549H207.989C208.063 121.549 208.099 121.585 208.099 121.659ZM211.985 122.493H210.091C210.01 122.493 209.969 122.452 209.969 122.371V118.89C209.969 118.809 210.01 118.769 210.091 118.769H211.985C212.062 118.769 212.1 118.809 212.1 118.89V119.284C212.1 119.365 212.062 119.406 211.985 119.406H210.774C210.728 119.406 210.705 119.427 210.705 119.469V120.222C210.705 120.265 210.728 120.286 210.774 120.286H211.764C211.846 120.286 211.886 120.327 211.886 120.408V120.801C211.886 120.883 211.846 120.923 211.764 120.923H210.774C210.728 120.923 210.705 120.944 210.705 120.987V121.792C210.705 121.834 210.728 121.855 210.774 121.855H211.985C212.062 121.855 212.1 121.896 212.1 121.977V122.371C212.1 122.452 212.062 122.493 211.985 122.493ZM213.893 122.493H213.406C213.321 122.493 213.279 122.452 213.279 122.371V119.469C213.279 119.427 213.258 119.406 213.215 119.406H212.555C212.474 119.406 212.433 119.365 212.433 119.284V118.89C212.433 118.809 212.474 118.769 212.555 118.769H214.744C214.825 118.769 214.866 118.809 214.866 118.89V119.284C214.866 119.365 214.825 119.406 214.744 119.406H214.084C214.038 119.406 214.014 119.427 214.014 119.469V122.371C214.014 122.452 213.974 122.493 213.893 122.493ZM215.922 122.493H215.43C215.349 122.493 215.308 122.452 215.308 122.371V118.89C215.308 118.809 215.349 118.769 215.43 118.769H215.922C216.003 118.769 216.044 118.809 216.044 118.89V120.251C216.044 120.294 216.067 120.315 216.113 120.315H217.092C217.134 120.315 217.156 120.294 217.156 120.251V118.89C217.156 118.809 217.196 118.769 217.277 118.769H217.769C217.85 118.769 217.891 118.809 217.891 118.89V122.371C217.891 122.452 217.85 122.493 217.769 122.493H217.277C217.196 122.493 217.156 122.452 217.156 122.371V121.016C217.156 120.973 217.134 120.952 217.092 120.952H216.113C216.067 120.952 216.044 120.973 216.044 121.016V122.371C216.044 122.452 216.003 122.493 215.922 122.493Z" fill="#00C4F4"/>
<rect x="74.0771" y="125.352" width="22.0798" height="6.15339" fill="url(#paint6_linear_47_3)"/>
<path fill-rule="evenodd" clip-rule="evenodd" d="M74.8778 135.126C74.4358 135.126 74.0775 135.484 74.0775 135.926V146.917C74.0775 147.217 74.2451 147.492 74.5117 147.629L82.3994 151.687C82.5126 151.746 82.6381 151.776 82.7655 151.776H134.874C135.316 151.776 135.674 151.418 135.674 150.976V140.781C135.674 140.477 135.503 140.2 135.231 140.065L125.505 135.21C125.394 135.154 125.271 135.126 125.147 135.126H74.8778ZM75.4729 136.051C75.0309 136.051 74.6726 136.409 74.6726 136.851V146.236C74.6726 146.544 74.8484 146.824 75.1249 146.957L82.3864 150.463C82.4949 150.515 82.6138 150.543 82.7343 150.543H131.005C131.447 150.543 131.806 150.184 131.806 149.742V141.051C131.806 140.74 131.626 140.458 131.345 140.326L122.378 136.126C122.272 136.076 122.156 136.051 122.038 136.051H75.4729Z" fill="#2A5642"/>
<path d="M79.4487 145.589H78.9623C78.8773 145.589 78.8348 145.549 78.8348 145.468V142.566C78.8348 142.524 78.8136 142.503 78.7711 142.503H78.1109C78.0298 142.503 77.9893 142.462 77.9893 142.381V141.987C77.9893 141.906 78.0298 141.865 78.1109 141.865H80.3001C80.3812 141.865 80.4217 141.906 80.4217 141.987V142.381C80.4217 142.462 80.3812 142.503 80.3001 142.503H79.6399C79.5935 142.503 79.5704 142.524 79.5704 142.566V145.468C79.5704 145.549 79.5298 145.589 79.4487 145.589ZM80.835 142.138V141.634C80.835 141.557 80.8736 141.518 80.9508 141.518H81.4546C81.5319 141.518 81.5705 141.555 81.5705 141.628V142.138C81.5705 142.215 81.5319 142.253 81.4546 142.253H80.9508C80.8736 142.253 80.835 142.215 80.835 142.138ZM80.835 145.468V142.757C80.835 142.676 80.8736 142.636 80.9508 142.636H81.4489C81.5299 142.636 81.5705 142.676 81.5705 142.757V145.468C81.5705 145.518 81.5608 145.551 81.5415 145.566C81.5261 145.582 81.4971 145.589 81.4546 145.589H80.9566C80.8755 145.589 80.835 145.549 80.835 145.468ZM84.1191 145.074V145.474C84.1191 145.516 84.1095 145.547 84.0902 145.566C84.0747 145.582 84.0438 145.589 83.9975 145.589H83.1346C82.8296 145.589 82.594 145.508 82.428 145.346C82.262 145.184 82.179 144.95 82.179 144.645V143.58C82.179 143.275 82.262 143.041 82.428 142.879C82.594 142.717 82.8296 142.636 83.1346 142.636H83.9975C84.0786 142.636 84.1191 142.676 84.1191 142.757V143.157C84.1191 143.199 84.1095 143.23 84.0902 143.25C84.0747 143.265 84.0438 143.273 83.9975 143.273H83.2504C83.1307 143.273 83.0438 143.3 82.9898 143.354C82.9396 143.404 82.9145 143.491 82.9145 143.614V144.611C82.9145 144.734 82.9396 144.823 82.9898 144.877C83.0438 144.927 83.1307 144.952 83.2504 144.952H83.9975C84.0786 144.952 84.1191 144.993 84.1191 145.074ZM86.309 142.636H86.8708C86.9171 142.636 86.948 142.649 86.9635 142.676C86.9789 142.703 86.9731 142.738 86.9461 142.781L86.1758 144.049V144.072L86.9808 145.445C87.004 145.483 87.0059 145.518 86.9866 145.549C86.9673 145.576 86.9326 145.589 86.8824 145.589H86.3843C86.3187 145.589 86.2704 145.582 86.2395 145.566C86.2125 145.551 86.1836 145.518 86.1527 145.468L85.4172 144.176C85.3824 144.114 85.3824 144.051 85.4172 143.985L86.1121 142.752C86.1546 142.674 86.2202 142.636 86.309 142.636ZM85.2318 145.589H84.7396C84.6585 145.589 84.6179 145.549 84.6179 145.468V141.64C84.6179 141.559 84.6585 141.518 84.7396 141.518H85.2318C85.3129 141.518 85.3535 141.559 85.3535 141.64V145.468C85.3535 145.549 85.3129 145.589 85.2318 145.589ZM89.5272 145.589H88.2473C87.9423 145.589 87.7068 145.508 87.5408 145.346C87.3747 145.184 87.2917 144.95 87.2917 144.645V143.58C87.2917 143.275 87.3747 143.041 87.5408 142.879C87.7068 142.717 87.9423 142.636 88.2473 142.636H88.7048C89.0098 142.636 89.2454 142.717 89.4114 142.879C89.5774 143.041 89.6604 143.275 89.6604 143.58V144.315C89.6604 144.396 89.6199 144.437 89.5388 144.437H88.0852C88.0388 144.437 88.0157 144.458 88.0157 144.501V144.628C88.0157 144.748 88.0407 144.835 88.0909 144.889C88.145 144.939 88.2338 144.964 88.3573 144.964H89.5272C89.6083 144.964 89.6488 145.006 89.6488 145.091V145.474C89.6488 145.516 89.6392 145.547 89.6199 145.566C89.6044 145.582 89.5735 145.589 89.5272 145.589ZM88.0852 143.945H88.8728C88.9153 143.945 88.9365 143.923 88.9365 143.881V143.603C88.9365 143.479 88.9114 143.392 88.8612 143.342C88.811 143.292 88.7241 143.267 88.6006 143.267H88.3573C88.2338 143.267 88.1469 143.292 88.0967 143.342C88.0465 143.392 88.0214 143.479 88.0214 143.603V143.881C88.0214 143.923 88.0427 143.945 88.0852 143.945ZM90.8253 145.589H90.333C90.252 145.589 90.2114 145.549 90.2114 145.468V142.757C90.2114 142.676 90.252 142.636 90.333 142.636H90.8253C90.9064 142.636 90.9469 142.676 90.9469 142.757V142.954H90.9701C91.0126 142.85 91.0879 142.771 91.196 142.717C91.3041 142.663 91.418 142.636 91.5377 142.636H91.7461C91.8234 142.636 91.862 142.676 91.862 142.757V143.157C91.862 143.203 91.8523 143.236 91.833 143.255C91.8176 143.271 91.7886 143.277 91.7461 143.273H91.3465C91.0801 143.273 90.9469 143.423 90.9469 143.725V145.468C90.9469 145.549 90.9064 145.589 90.8253 145.589ZM92.8733 142.746V143.458C92.8733 143.539 92.8367 143.58 92.7633 143.58H92.2479C92.1707 143.58 92.132 143.535 92.132 143.447V142.752C92.132 142.674 92.1707 142.636 92.2479 142.636H92.7633C92.8367 142.636 92.8733 142.672 92.8733 142.746ZM92.8733 144.755V145.468C92.8733 145.549 92.8367 145.589 92.7633 145.589H92.2479C92.1707 145.589 92.132 145.547 92.132 145.462V144.761C92.132 144.684 92.1707 144.645 92.2479 144.645H92.7633C92.8367 144.645 92.8733 144.682 92.8733 144.755ZM95.3569 145.589H94.8646C94.7835 145.589 94.743 145.549 94.743 145.468V141.987C94.743 141.906 94.7835 141.865 94.8646 141.865H95.3569C95.438 141.865 95.4785 141.906 95.4785 141.987V143.348C95.4785 143.391 95.5017 143.412 95.548 143.412H96.5267C96.5692 143.412 96.5904 143.391 96.5904 143.348V141.987C96.5904 141.906 96.631 141.865 96.7121 141.865H97.2043C97.2854 141.865 97.326 141.906 97.326 141.987V145.468C97.326 145.549 97.2854 145.589 97.2043 145.589H96.7121C96.631 145.589 96.5904 145.549 96.5904 145.468V144.113C96.5904 144.07 96.5692 144.049 96.5267 144.049H95.548C95.5017 144.049 95.4785 144.07 95.4785 144.113V145.468C95.4785 145.549 95.438 145.589 95.3569 145.589ZM98.4679 145.589H97.9119C97.8424 145.589 97.8192 145.549 97.8424 145.468L98.7574 141.987C98.7845 141.906 98.8424 141.865 98.9312 141.865H99.7014C99.798 141.865 99.8559 141.906 99.8752 141.987L100.79 145.468C100.813 145.549 100.79 145.589 100.721 145.589H100.165C100.122 145.589 100.093 145.582 100.078 145.566C100.062 145.547 100.051 145.514 100.043 145.468L99.881 144.831H98.7516L98.5895 145.468C98.5818 145.514 98.5682 145.547 98.5489 145.566C98.5335 145.582 98.5065 145.589 98.4679 145.589ZM99.3076 142.566L98.8906 144.24H99.7478L99.3308 142.566H99.3076ZM102.068 141.987V145.468C102.068 145.549 102.028 145.589 101.946 145.589H101.454C101.373 145.589 101.333 145.549 101.333 145.468V141.987C101.333 141.906 101.373 141.865 101.454 141.865H101.946C102.028 141.865 102.068 141.906 102.068 141.987Z" fill="#00C4F4"/>
<rect x="29.3999" y="158.86" width="22.0798" height="6.15339" fill="url(#paint7_linear_47_3)"/>
<path fill-rule="evenodd" clip-rule="evenodd" d="M30.2002 168.633C29.7582 168.633 29.4 168.992 29.4 169.434V180.412C29.4 180.718 29.5753 180.998 29.8514 181.132L38.2587 185.204C38.3675 185.256 38.4867 185.284 38.6076 185.284H94.0386C94.4806 185.284 94.8389 184.925 94.8389 184.483V174.302C94.8389 173.992 94.6596 173.709 94.3789 173.577L84.0175 168.709C83.911 168.659 83.7948 168.633 83.6772 168.633H30.2002ZM30.8326 169.558C30.3906 169.558 30.0323 169.917 30.0323 170.359V179.731C30.0323 180.045 30.2157 180.33 30.5015 180.46L38.2446 183.979C38.3486 184.026 38.4615 184.05 38.5757 184.05H89.929C90.3709 184.05 90.7292 183.692 90.7292 183.25V174.571C90.7292 174.254 90.542 173.967 90.2518 173.839L80.6963 169.626C80.5946 169.581 80.4846 169.558 80.3735 169.558H30.8326Z" fill="#9C00D3"/>
<path d="M35.1653 179.104H33.2599C33.1788 179.104 33.1383 179.064 33.1383 178.983V175.502C33.1383 175.421 33.1788 175.38 33.2599 175.38H33.7522C33.8333 175.38 33.8738 175.421 33.8738 175.502V178.398C33.8738 178.44 33.897 178.462 33.9433 178.462H35.1653C35.2425 178.462 35.2811 178.504 35.2811 178.589V178.983C35.2811 179.064 35.2425 179.104 35.1653 179.104ZM37.0951 179.104H36.5797C36.2746 179.104 36.0391 179.023 35.8731 178.861C35.7071 178.699 35.6241 178.465 35.6241 178.16V177.095C35.6241 176.79 35.7071 176.556 35.8731 176.394C36.0391 176.232 36.2746 176.151 36.5797 176.151H37.0951C37.3962 176.151 37.6298 176.234 37.7959 176.4C37.9657 176.562 38.0507 176.794 38.0507 177.095V178.16C38.0507 178.462 37.9657 178.695 37.7959 178.861C37.6298 179.023 37.3962 179.104 37.0951 179.104ZM36.6897 178.473H36.9851C37.1086 178.473 37.1955 178.448 37.2457 178.398C37.2997 178.348 37.3267 178.261 37.3267 178.137V177.118C37.3267 176.994 37.2997 176.907 37.2457 176.857C37.1955 176.807 37.1086 176.782 36.9851 176.782H36.6897C36.5661 176.782 36.4793 176.807 36.4291 176.857C36.3789 176.907 36.3538 176.994 36.3538 177.118V178.137C36.3538 178.261 36.3789 178.348 36.4291 178.398C36.4793 178.448 36.5661 178.473 36.6897 178.473ZM40.5108 178.589V178.989C40.5108 179.031 40.5012 179.062 40.4819 179.081C40.4664 179.097 40.4355 179.104 40.3892 179.104H39.5263C39.2213 179.104 38.9857 179.023 38.8197 178.861C38.6537 178.699 38.5707 178.465 38.5707 178.16V177.095C38.5707 176.79 38.6537 176.556 38.8197 176.394C38.9857 176.232 39.2213 176.151 39.5263 176.151H40.3892C40.4703 176.151 40.5108 176.191 40.5108 176.272V176.672C40.5108 176.714 40.5012 176.745 40.4819 176.765C40.4664 176.78 40.4355 176.788 40.3892 176.788H39.6421C39.5224 176.788 39.4355 176.815 39.3815 176.869C39.3313 176.919 39.3062 177.006 39.3062 177.129V178.126C39.3062 178.249 39.3313 178.338 39.3815 178.392C39.4355 178.442 39.5224 178.467 39.6421 178.467H40.3892C40.4703 178.467 40.5108 178.508 40.5108 178.589ZM42.7007 176.151H43.2625C43.3088 176.151 43.3397 176.164 43.3552 176.191C43.3706 176.218 43.3648 176.253 43.3378 176.296L42.5675 177.564V177.587L43.3725 178.96C43.3957 178.998 43.3976 179.033 43.3783 179.064C43.359 179.091 43.3243 179.104 43.2741 179.104H42.776C42.7104 179.104 42.6621 179.097 42.6312 179.081C42.6042 179.066 42.5753 179.033 42.5444 178.983L41.8089 177.691C41.7741 177.629 41.7741 177.566 41.8089 177.5L42.5038 176.267C42.5463 176.189 42.6119 176.151 42.7007 176.151ZM41.6235 179.104H41.1313C41.0502 179.104 41.0096 179.064 41.0096 178.983V175.155C41.0096 175.074 41.0502 175.033 41.1313 175.033H41.6235C41.7046 175.033 41.7452 175.074 41.7452 175.155V178.983C41.7452 179.064 41.7046 179.104 41.6235 179.104ZM47.0988 179.104H45.1934C45.1123 179.104 45.0718 179.064 45.0718 178.983V175.502C45.0718 175.421 45.1123 175.38 45.1934 175.38H45.6857C45.7668 175.38 45.8073 175.421 45.8073 175.502V178.398C45.8073 178.44 45.8305 178.462 45.8768 178.462H47.0988C47.176 178.462 47.2146 178.504 47.2146 178.589V178.983C47.2146 179.064 47.176 179.104 47.0988 179.104ZM47.6444 175.653V175.149C47.6444 175.072 47.6831 175.033 47.7603 175.033H48.2641C48.3413 175.033 48.38 175.07 48.38 175.143V175.653C48.38 175.73 48.3413 175.769 48.2641 175.769H47.7603C47.6831 175.769 47.6444 175.73 47.6444 175.653ZM47.6444 178.983V176.272C47.6444 176.191 47.6831 176.151 47.7603 176.151H48.2583C48.3394 176.151 48.38 176.191 48.38 176.272V178.983C48.38 179.033 48.3703 179.066 48.351 179.081C48.3356 179.097 48.3066 179.104 48.2641 179.104H47.7661C47.685 179.104 47.6444 179.064 47.6444 178.983ZM50.6738 178.021V176.852C50.6738 176.809 50.6506 176.788 50.6043 176.788H50.0599C49.9363 176.788 49.8494 176.815 49.7993 176.869C49.7491 176.919 49.724 177.006 49.724 177.129V178.126C49.724 178.249 49.7491 178.338 49.7993 178.392C49.8494 178.442 49.9363 178.467 50.0599 178.467H50.2684C50.5386 178.467 50.6738 178.319 50.6738 178.021ZM50.0772 179.104H49.944C49.639 179.104 49.4035 179.023 49.2375 178.861C49.0715 178.699 48.9885 178.465 48.9885 178.16V177.095C48.9885 176.79 49.0715 176.556 49.2375 176.394C49.4035 176.232 49.639 176.151 49.944 176.151H51.2819C51.3668 176.151 51.4093 176.191 51.4093 176.272V179.776C51.4093 179.853 51.3668 179.892 51.2819 179.892H50.7954C50.7143 179.892 50.6738 179.853 50.6738 179.776V178.786H50.6506C50.5579 178.998 50.3668 179.104 50.0772 179.104ZM53.1095 179.104H52.9184C52.6211 179.104 52.3952 179.023 52.2408 178.861C52.0902 178.699 52.0149 178.465 52.0149 178.16V176.272C52.0149 176.191 52.0555 176.151 52.1366 176.151H52.6288C52.7099 176.151 52.7504 176.191 52.7504 176.272V178.126C52.7504 178.249 52.7755 178.338 52.8257 178.392C52.8798 178.442 52.9667 178.467 53.0863 178.467H53.3006C53.567 178.467 53.7002 178.321 53.7002 178.027V176.272C53.7002 176.191 53.7408 176.151 53.8219 176.151H54.3083C54.3933 176.151 54.4357 176.191 54.4357 176.272V178.983C54.4357 179.064 54.3933 179.104 54.3083 179.104H53.8219C53.7408 179.104 53.7002 179.064 53.7002 178.983V178.792H53.6771C53.6346 178.896 53.5593 178.975 53.4512 179.029C53.3431 179.079 53.2292 179.104 53.1095 179.104ZM55.1043 175.653V175.149C55.1043 175.072 55.1429 175.033 55.2201 175.033H55.724C55.8012 175.033 55.8398 175.07 55.8398 175.143V175.653C55.8398 175.73 55.8012 175.769 55.724 175.769H55.2201C55.1429 175.769 55.1043 175.73 55.1043 175.653ZM55.1043 178.983V176.272C55.1043 176.191 55.1429 176.151 55.2201 176.151H55.7182C55.7993 176.151 55.8398 176.191 55.8398 176.272V178.983C55.8398 179.033 55.8302 179.066 55.8108 179.081C55.7954 179.097 55.7664 179.104 55.724 179.104H55.2259C55.1448 179.104 55.1043 179.064 55.1043 178.983ZM57.5892 179.104H57.3518C57.0545 179.104 56.8286 179.023 56.6742 178.861C56.5236 178.699 56.4483 178.465 56.4483 178.16V177.095C56.4483 176.79 56.5236 176.556 56.6742 176.394C56.8286 176.232 57.0545 176.151 57.3518 176.151H57.5892C57.7089 176.151 57.8228 176.178 57.9309 176.232C58.039 176.282 58.1143 176.359 58.1568 176.463H58.1799V175.155C58.1799 175.074 58.2205 175.033 58.3016 175.033H58.7938C58.8749 175.033 58.9155 175.074 58.9155 175.155V178.983C58.9155 179.064 58.8749 179.104 58.7938 179.104H58.3016C58.2205 179.104 58.1799 179.064 58.1799 178.983V178.792H58.1568C58.1143 178.896 58.039 178.975 57.9309 179.029C57.8228 179.079 57.7089 179.104 57.5892 179.104ZM58.1799 178.027V177.228C58.1799 176.935 58.0467 176.788 57.7803 176.788H57.5197C57.3962 176.788 57.3093 176.815 57.2591 176.869C57.2089 176.919 57.1838 177.006 57.1838 177.129V178.126C57.1838 178.249 57.2089 178.338 57.2591 178.392C57.3093 178.442 57.3962 178.467 57.5197 178.467H57.7803C58.0467 178.467 58.1799 178.321 58.1799 178.027ZM59.5836 175.653V175.149C59.5836 175.072 59.6222 175.033 59.6994 175.033H60.2033C60.2805 175.033 60.3191 175.07 60.3191 175.143V175.653C60.3191 175.73 60.2805 175.769 60.2033 175.769H59.6994C59.6222 175.769 59.5836 175.73 59.5836 175.653ZM59.5836 178.983V176.272C59.5836 176.191 59.6222 176.151 59.6994 176.151H60.1975C60.2786 176.151 60.3191 176.191 60.3191 176.272V178.983C60.3191 179.033 60.3095 179.066 60.2901 179.081C60.2747 179.097 60.2457 179.104 60.2033 179.104H59.7052C59.6241 179.104 59.5836 179.064 59.5836 178.983ZM61.0492 176.788H60.8176C60.7712 176.788 60.7384 176.78 60.7191 176.765C60.7037 176.749 60.696 176.718 60.696 176.672V176.272C60.696 176.191 60.7365 176.151 60.8176 176.151H61.0492C61.0917 176.151 61.1129 176.13 61.1129 176.087V175.537C61.1129 175.456 61.1554 175.415 61.2404 175.415H61.7268C61.8079 175.415 61.8485 175.456 61.8485 175.537V176.087C61.8485 176.13 61.8716 176.151 61.9179 176.151H62.3697C62.4508 176.151 62.4913 176.191 62.4913 176.272V176.672C62.4913 176.714 62.4816 176.745 62.4623 176.765C62.4469 176.78 62.416 176.788 62.3697 176.788H61.9179C61.8716 176.788 61.8485 176.809 61.8485 176.852V178.131C61.8485 178.251 61.8755 178.338 61.9295 178.392C61.9836 178.442 62.0724 178.467 62.1959 178.467H62.4276C62.5087 178.467 62.5492 178.508 62.5492 178.589V178.989C62.5492 179.031 62.5396 179.062 62.5203 179.081C62.5048 179.097 62.4739 179.104 62.4276 179.104H62.0743C61.7693 179.104 61.5319 179.023 61.362 178.861C61.1959 178.699 61.1129 178.467 61.1129 178.166V176.852C61.1129 176.809 61.0917 176.788 61.0492 176.788ZM63.5079 180.083H63.1373C63.06 180.083 63.0214 180.041 63.0214 179.956V179.568C63.0214 179.483 63.06 179.44 63.1373 179.44H63.2589C63.5021 179.44 63.6662 179.406 63.7512 179.336C63.84 179.27 63.9075 179.141 63.9539 178.948H63.6469C63.5736 178.948 63.5253 178.907 63.5021 178.826L62.8245 176.272C62.8014 176.191 62.8303 176.151 62.9114 176.151H63.4268C63.5041 176.151 63.5523 176.191 63.5716 176.272L64.0697 178.409H64.0929L64.5851 176.272C64.6006 176.191 64.6488 176.151 64.7299 176.151H65.2164C65.3129 176.151 65.3515 176.193 65.3322 176.278L64.6257 179.104C64.5407 179.425 64.4095 179.668 64.2318 179.834C64.0542 180 63.8129 180.083 63.5079 180.083ZM66.3961 176.261V176.973C66.3961 177.054 66.3594 177.095 66.2861 177.095H65.7706C65.6934 177.095 65.6548 177.05 65.6548 176.962V176.267C65.6548 176.189 65.6934 176.151 65.7706 176.151H66.2861C66.3594 176.151 66.3961 176.187 66.3961 176.261ZM66.3961 178.27V178.983C66.3961 179.064 66.3594 179.104 66.2861 179.104H65.7706C65.6934 179.104 65.6548 179.062 65.6548 178.977V178.276C65.6548 178.199 65.6934 178.16 65.7706 178.16H66.2861C66.3594 178.16 66.3961 178.197 66.3961 178.27ZM69.1576 176.938H69.453C69.5804 176.938 69.6711 176.913 69.7252 176.863C69.7831 176.809 69.8121 176.722 69.8121 176.602V176.33C69.8121 176.211 69.7831 176.126 69.7252 176.075C69.6711 176.021 69.5804 175.994 69.453 175.994H69.175C69.0515 175.994 68.9646 176.021 68.9144 176.075C68.8642 176.126 68.8391 176.211 68.8391 176.33V176.475C68.8391 176.556 68.7986 176.597 68.7175 176.597H68.2252C68.1441 176.597 68.1036 176.556 68.1036 176.475V176.319C68.1036 176.018 68.1866 175.786 68.3526 175.624C68.5186 175.462 68.7542 175.38 69.0592 175.38H69.5746C69.8796 175.38 70.1151 175.462 70.2812 175.624C70.4472 175.786 70.5302 176.018 70.5302 176.319V176.608C70.5302 176.933 70.3777 177.143 70.0727 177.24C70.3777 177.305 70.5302 177.516 70.5302 177.871V178.166C70.5302 178.467 70.4472 178.699 70.2812 178.861C70.1151 179.023 69.8796 179.104 69.5746 179.104H69.0592C68.7542 179.104 68.5186 179.023 68.3526 178.861C68.1866 178.699 68.1036 178.467 68.1036 178.166V178.004C68.1036 177.919 68.1441 177.877 68.2252 177.877H68.7175C68.7986 177.877 68.8391 177.919 68.8391 178.004V178.155C68.8391 178.278 68.8642 178.365 68.9144 178.415C68.9646 178.465 69.0515 178.49 69.175 178.49H69.453C69.5804 178.49 69.6711 178.465 69.7252 178.415C69.7831 178.361 69.8121 178.274 69.8121 178.155V177.871C69.8121 177.751 69.7831 177.666 69.7252 177.616C69.6711 177.562 69.5804 177.535 69.453 177.535H69.1576C69.0766 177.535 69.036 177.494 69.036 177.413V177.066C69.036 176.981 69.0766 176.938 69.1576 176.938ZM74.9578 175.38H75.815C75.896 175.38 75.9366 175.421 75.9366 175.502V178.983C75.9366 179.064 75.896 179.104 75.815 179.104H75.3401C75.259 179.104 75.2184 179.064 75.2184 178.983V176.238H75.1953L74.6046 178.178C74.5814 178.255 74.5331 178.294 74.4598 178.294H73.9733C73.8999 178.294 73.8517 178.255 73.8285 178.178L73.2262 176.232H73.203V178.983C73.203 179.029 73.1953 179.062 73.1799 179.081C73.1644 179.097 73.1316 179.104 73.0814 179.104H72.6065C72.5254 179.104 72.4849 179.064 72.4849 178.983V175.502C72.4849 175.421 72.5254 175.38 72.6065 175.38H73.4694C73.5235 175.38 73.5602 175.408 73.5795 175.462L74.1934 177.506H74.2281L74.8478 175.462C74.8594 175.408 74.8961 175.38 74.9578 175.38ZM78.0423 179.104H77.5268C77.2218 179.104 76.9863 179.023 76.8203 178.861C76.6543 178.699 76.5712 178.465 76.5712 178.16V177.095C76.5712 176.79 76.6543 176.556 76.8203 176.394C76.9863 176.232 77.2218 176.151 77.5268 176.151H78.0423C78.3434 176.151 78.577 176.234 78.743 176.4C78.9129 176.562 78.9979 176.794 78.9979 177.095V178.16C78.9979 178.462 78.9129 178.695 78.743 178.861C78.577 179.023 78.3434 179.104 78.0423 179.104ZM77.6369 178.473H77.9322C78.0558 178.473 78.1427 178.448 78.1928 178.398C78.2469 178.348 78.2739 178.261 78.2739 178.137V177.118C78.2739 176.994 78.2469 176.907 78.1928 176.857C78.1427 176.807 78.0558 176.782 77.9322 176.782H77.6369C77.5133 176.782 77.4264 176.807 77.3763 176.857C77.3261 176.907 77.301 176.994 77.301 177.118V178.137C77.301 178.261 77.3261 178.348 77.3763 178.398C77.4264 178.448 77.5133 178.473 77.6369 178.473ZM80.1897 179.104H79.6974C79.6163 179.104 79.5758 179.064 79.5758 178.983V176.272C79.5758 176.191 79.6163 176.151 79.6974 176.151H80.1897C80.2707 176.151 80.3113 176.191 80.3113 176.272V176.463H80.3344C80.4194 176.255 80.6086 176.151 80.902 176.151H81.0873C81.6935 176.151 81.9966 176.465 81.9966 177.095V178.983C81.9966 179.064 81.9541 179.104 81.8692 179.104H81.3827C81.3016 179.104 81.2611 179.064 81.2611 178.983V177.129C81.2611 177.006 81.234 176.919 81.18 176.869C81.1298 176.815 81.0429 176.788 80.9194 176.788H80.7109C80.4445 176.788 80.3113 176.935 80.3113 177.228V178.983C80.3113 179.064 80.2707 179.104 80.1897 179.104ZM82.6709 176.788H82.4393C82.3929 176.788 82.3601 176.78 82.3408 176.765C82.3254 176.749 82.3176 176.718 82.3176 176.672V176.272C82.3176 176.191 82.3582 176.151 82.4393 176.151H82.6709C82.7134 176.151 82.7346 176.13 82.7346 176.087V175.537C82.7346 175.456 82.7771 175.415 82.862 175.415H83.3485C83.4296 175.415 83.4701 175.456 83.4701 175.537V176.087C83.4701 176.13 83.4933 176.151 83.5396 176.151H83.9914C84.0724 176.151 84.113 176.191 84.113 176.272V176.672C84.113 176.714 84.1033 176.745 84.084 176.765C84.0686 176.78 84.0377 176.788 83.9914 176.788H83.5396C83.4933 176.788 83.4701 176.809 83.4701 176.852V178.131C83.4701 178.251 83.4972 178.338 83.5512 178.392C83.6053 178.442 83.6941 178.467 83.8176 178.467H84.0493C84.1304 178.467 84.1709 178.508 84.1709 178.589V178.989C84.1709 179.031 84.1612 179.062 84.1419 179.081C84.1265 179.097 84.0956 179.104 84.0493 179.104H83.696C83.391 179.104 83.1535 179.023 82.9837 178.861C82.8176 178.699 82.7346 178.467 82.7346 178.166V176.852C82.7346 176.809 82.7134 176.788 82.6709 176.788ZM85.2628 179.104H84.7705C84.6895 179.104 84.6489 179.064 84.6489 178.983V175.155C84.6489 175.074 84.6895 175.033 84.7705 175.033H85.2628C85.3439 175.033 85.3844 175.074 85.3844 175.155V176.463H85.4076C85.4925 176.255 85.6817 176.151 85.9752 176.151H86.1605C86.7667 176.151 87.0697 176.465 87.0697 177.095V178.983C87.0697 179.064 87.0273 179.104 86.9423 179.104H86.4558C86.3748 179.104 86.3342 179.064 86.3342 178.983V177.129C86.3342 177.006 86.3072 176.919 86.2531 176.869C86.203 176.815 86.1161 176.788 85.9925 176.788H85.784C85.5176 176.788 85.3844 176.935 85.3844 177.228V178.983C85.3844 179.064 85.3439 179.104 85.2628 179.104ZM88.7981 179.104H87.6977C87.6205 179.104 87.5819 179.064 87.5819 178.983V178.612C87.5819 178.57 87.5896 178.541 87.6051 178.525C87.6205 178.506 87.6514 178.496 87.6977 178.496H88.6649C88.8541 178.496 88.9487 178.438 88.9487 178.323V178.294C88.9487 178.201 88.8695 178.112 88.7112 178.027L88.1379 177.709C87.941 177.608 87.7962 177.5 87.7035 177.384C87.6109 177.268 87.5645 177.12 87.5645 176.938C87.5645 176.668 87.636 176.469 87.7788 176.342C87.9217 176.214 88.1456 176.151 88.4506 176.151H89.4178C89.495 176.151 89.5336 176.191 89.5336 176.272V176.649C89.5336 176.691 89.5259 176.722 89.5105 176.741C89.495 176.757 89.4641 176.765 89.4178 176.765H88.6128C88.4236 176.765 88.329 176.813 88.329 176.909V176.938C88.329 177.023 88.412 177.11 88.578 177.199L89.163 177.546C89.3637 177.655 89.5047 177.767 89.5857 177.882C89.6668 177.994 89.7074 178.143 89.7074 178.328C89.7074 178.846 89.4043 179.104 88.7981 179.104Z" fill="#00C4F4"/>
</g>
<defs>
<radialGradient id="paint0_radial_47_3" cx="0" cy="0" r="1" gradientUnits="userSpaceOnUse" gradientTransform="translate(49.9919 77.0001) rotate(90) scale(30 33.5)">
<stop offset="0.46" stop-color="#2FF5FD" stop-opacity="0.62"/>
<stop offset="1" stop-color="#00A1A7" stop-opacity="0.29"/>
</radialGradient>
<radialGradient id="paint1_radial_47_3" cx="0" cy="0" r="1" gradientUnits="userSpaceOnUse" gradientTransform="translate(49.9919 77.0001) rotate(90) scale(30 33.5)">
<stop offset="0.46" stop-color="#2FF5FD" stop-opacity="0.62"/>
<stop offset="1" stop-color="#00A1A7" stop-opacity="0.29"/>
</radialGradient>
<linearGradient id="paint2_linear_47_3" x1="84.0054" y1="5.07507" x2="87.7099" y2="11.2664" gradientUnits="userSpaceOnUse">
<stop stop-color="#541937"/>
<stop offset="1" stop-color="#541937" stop-opacity="0"/>
</linearGradient>
<linearGradient id="paint3_linear_47_3" x1="180.806" y1="31.1368" x2="184.511" y2="37.3282" gradientUnits="userSpaceOnUse">
<stop stop-color="#541937"/>
<stop offset="1" stop-color="#541937" stop-opacity="0"/>
</linearGradient>
<linearGradient id="paint4_linear_47_3" x1="118.754" y1="64.6449" x2="122.459" y2="70.8363" gradientUnits="userSpaceOnUse">
<stop stop-color="#2A5642"/>
<stop offset="1" stop-color="#2A5642" stop-opacity="0"/>
</linearGradient>
<linearGradient id="paint5_linear_47_3" x1="174.601" y1="108.081" x2="178.306" y2="114.273" gradientUnits="userSpaceOnUse">
<stop stop-color="#9C00D3"/>
<stop offset="1" stop-color="#9C00D3" stop-opacity="0"/>
</linearGradient>
<linearGradient id="paint6_linear_47_3" x1="82.7643" y1="130.42" x2="86.4688" y2="136.611" gradientUnits="userSpaceOnUse">
<stop stop-color="#2A5642"/>
<stop offset="1" stop-color="#2A5642" stop-opacity="0"/>
</linearGradient>
<linearGradient id="paint7_linear_47_3" x1="38.087" y1="163.928" x2="41.7916" y2="170.119" gradientUnits="userSpaceOnUse">
<stop stop-color="#9C00D3"/>
<stop offset="1" stop-color="#9C00D3" stop-opacity="0"/>
</linearGradient>
<clipPath id="clip0_47_3">
<rect width="263" height="185" fill="white"/>
</clipPath>
</defs>
</svg>
