<svg xmlns="http://www.w3.org/2000/svg" width="40" height="40" viewBox="0 0 49 49" fill="none"><path d="M19.5 7L24.5 2M14.5 34.5L34.5 14.5M24.5 47L29.5 42M35.75 42C37.4076 42 38.9973 41.3415 40.1694 40.1694C41.3415 38.9973 42 37.4076 42 35.75C42 34.0924 41.3415 32.5027 40.1694 31.3306C38.9973 30.1585 37.4076 29.5 35.75 29.5C34.0924 29.5 32.5027 30.1585 31.3306 31.3306C30.1585 32.5027 29.5 34.0924 29.5 35.75C29.5 37.4076 30.1585 38.9973 31.3306 40.1694C32.5027 41.3415 34.0924 42 35.75 42ZM13.25 19.5C14.9076 19.5 16.4973 18.8415 17.6694 17.6694C18.8415 16.4973 19.5 14.9076 19.5 13.25C19.5 11.5924 18.8415 10.0027 17.6694 8.83058C16.4973 7.65848 14.9076 7 13.25 7C11.5924 7 10.0027 7.65848 8.83058 8.83058C7.65848 10.0027 7 11.5924 7 13.25C7 14.9076 7.65848 16.4973 8.83058 17.6694C10.0027 18.8415 11.5924 19.5 13.25 19.5ZM8.25 47C9.9076 47 11.4973 46.3415 12.6694 45.1694C13.8415 43.9973 14.5 42.4076 14.5 40.75C14.5 39.0924 13.8415 37.5027 12.6694 36.3306C11.4973 35.1585 9.9076 34.5 8.25 34.5C6.5924 34.5 5.00268 35.1585 3.83058 36.3306C2.65848 37.5027 2 39.0924 2 40.75C2 42.4076 2.65848 43.9973 3.83058 45.1694C5.00268 46.3415 6.5924 47 8.25 47ZM40.75 14.5C42.4076 14.5 43.9973 13.8415 45.1694 12.6694C46.3415 11.4973 47 9.9076 47 8.25C47 6.5924 46.3415 5.00268 45.1694 3.83058C43.9973 2.65848 42.4076 2 40.75 2C39.0924 2 37.5027 2.65848 36.3306 3.83058C35.1585 5.00268 34.5 6.5924 34.5 8.25C34.5 9.9076 35.1585 11.4973 36.3306 12.6694C37.5027 13.8415 39.0924 14.5 40.75 14.5Z" stroke="#00C4F4" stroke-width="3.91667" stroke-linecap="round" stroke-linejoin="round"></path></svg>